<svg xmlns="http://www.w3.org/2000/svg" xmlns:xlink="http://www.w3.org/1999/xlink" xmlns:lucid="lucid" width="1694.6" height="1001.23"><g transform="translate(-90.66666666670545 -109.86274252307703)" lucid:page-tab-id="0_0"><path d="M824.92 690.43c0-3.3 2.7-6 6-6h45.4c3.33 0 6 2.7 6 6v5.74c0 3.3-2.67 6-6 6h-45.4c-3.3 0-6-2.7-6-6zM874.84 290.77c0-2.27 1.84-4.12 4.12-4.12 2.27 0 4.1 1.85 4.1 4.12v9.5c0 2.27-1.83 4.12-4.1 4.12-2.28 0-4.12-1.86-4.12-4.13z" fill="#e81313"/><g stroke="#5e5e5e" stroke-width="3"><path d="M223.2 642.67c-11.34 0-20.53-26.87-20.53-60 0-33.14 9.2-60 20.53-60h164.27c11.34 0 20.53 26.86 20.53 60 0 33.13-9.2 60-20.53 60z" fill="#fff"/><path d="M387.47 642.67c-11.34 0-20.54-26.87-20.54-60 0-33.14 9.2-60 20.54-60" fill="none"/></g><path d="M389.33 522.67c-15.4 0-27.86 31.04-27.86 69.33 0 38.3 12.47 69.33 27.86 69.33H138.5c-15.38 0-27.85-31.04-27.85-69.33 0-38.3 12.47-69.33 27.86-69.33z" stroke="#5e5e5e" stroke-width="3" fill="#fff"/><path d="M392.42 582.67c0 8.57-1.8 15.52-4.04 15.52s-4.05-6.96-4.05-15.53 1.8-15.52 4.05-15.52c2.23 0 4.04 6.95 4.04 15.52z" stroke="#5e5e5e" stroke-width="3" fill="#fff"/><g stroke="#5e5e5e" stroke-width="3"><path d="M716.94 464c-11.34 0-20.53-26.86-20.53-60s9.2-60 20.54-60H881.2c11.35 0 20.54 26.86 20.54 60s-9.2 60-20.53 60z" fill="#fff"/><path d="M881.2 464c-11.33 0-20.53-26.86-20.53-60s9.2-60 20.54-60" fill="none"/></g><path d="M883.07 344c-15.4 0-27.86 31.04-27.86 69.33 0 38.3 12.48 69.34 27.87 69.34H632.26c-15.38 0-27.85-31.04-27.85-69.34 0-38.3 12.48-69.33 27.87-69.33z" stroke="#5e5e5e" stroke-width="3" fill="#fff"/><path d="M886.16 404c0 8.57-1.8 15.52-4.04 15.52s-4.05-6.95-4.05-15.52 1.8-15.52 4.05-15.52c2.23 0 4.04 6.95 4.04 15.52z" stroke="#5e5e5e" stroke-width="3" fill="#fff"/><g stroke="#5e5e5e" stroke-width="3"><path d="M716.53 861.33c-11.34 0-20.53-26.86-20.53-60 0-33.13 9.2-60 20.53-60H880.8c11.34 0 20.53 26.87 20.53 60 0 33.14-9.2 60-20.53 60z" fill="#fff"/><path d="M880.8 861.33c-11.34 0-20.53-26.86-20.53-60 0-33.13 9.2-60 20.53-60" fill="none"/></g><path d="M882.67 741.33c-15.4 0-27.87 31.04-27.87 69.34 0 38.3 12.48 69.33 27.87 69.33H631.87c-15.4 0-27.87-31.04-27.87-69.33 0-38.3 12.48-69.34 27.87-69.34z" stroke="#5e5e5e" stroke-width="3" fill="#fff"/><path d="M885.76 801.33c0 8.57-1.82 15.52-4.05 15.52-2.22 0-4.03-6.95-4.03-15.52s1.8-15.52 4.04-15.52 4.06 6.96 4.06 15.53z" stroke="#5e5e5e" stroke-width="3" fill="#fff"/><path d="M132.97 482.5c0-.28.23-.5.5-.5H387c.28 0 .5.22.5.5s-.22.5-.5.5H133.47c-.27 0-.5-.22-.5-.5z" stroke="#fc9432" fill="none"/><path d="M133.47 474.85c.28 0 .5.23.5.5v46.32c0 .27-.22.5-.5.5-.27 0-.5-.23-.5-.5v-46.32c0-.27.23-.5.5-.5zM387.33 474.85c.28 0 .5.23.5.5v46.32c0 .27-.22.5-.5.5-.27 0-.5-.23-.5-.5v-46.32c0-.27.23-.5.5-.5zM627.7 303.83c0-.27.24-.5.5-.5h253.54c.28 0 .5.23.5.5 0 .28-.22.5-.5.5H628.2c-.26 0-.5-.22-.5-.5z" stroke="#fc9432" fill="none"/><path d="M628.2 296.2c.3 0 .5.2.5.5V343c0 .28-.2.5-.5.5-.26 0-.5-.22-.5-.5v-46.3c0-.3.24-.5.5-.5zM882.07 296.2c.28 0 .5.2.5.5V343c0 .28-.22.5-.5.5-.27 0-.5-.22-.5-.5v-46.3c0-.3.23-.5.5-.5zM627.3 701.17c0-.28.23-.5.5-.5h253.53c.28 0 .5.22.5.5 0 .27-.22.5-.5.5H627.8c-.27 0-.5-.23-.5-.5z" stroke="#fc9432" fill="none"/><path d="M627.8 693.52c.28 0 .5.22.5.5v46.3c0 .3-.22.5-.5.5-.27 0-.5-.2-.5-.5v-46.3c0-.28.23-.5.5-.5zM881.67 693.52c.27 0 .5.22.5.5v46.3c0 .3-.23.5-.5.5-.28 0-.5-.2-.5-.5v-46.3c0-.28.22-.5.5-.5z" stroke="#fc9432" fill="none"/><path d="M130 450c0-3.3 2.7-6 6-6h228c3.3 0 6 2.7 6 6v48c0 3.3-2.7 6-6 6H136c-3.3 0-6-2.7-6-6z" stroke="#000" stroke-opacity="0" stroke-width="3" fill="#fff" fill-opacity="0"/><use xlink:href="#a" transform="matrix(1,0,0,1,135.0000000000387,449) translate(96.48148148148148 30.27777777777778)"/><path d="M748.75 295.2c.27 0 .5.2.5.5v7.7c0 .26-.23.5-.5.5-.28 0-.5-.24-.5-.5v-7.7c0-.3.22-.5.5-.5zM875.84 295.2c.28 0 .5.2.5.5v7.7c0 .26-.22.5-.5.5s-.5-.24-.5-.5v-7.7c0-.3.22-.5.5-.5z" stroke="#fc9432" fill="none"/><path d="M568.4 269.6c0-3.3 2.7-6 6-6h228c3.32 0 6 2.7 6 6v48c0 3.3-2.68 6-6 6h-228c-3.3 0-6-2.7-6-6z" stroke="#000" stroke-opacity="0" stroke-width="3" fill="#fff" fill-opacity="0"/><use xlink:href="#b" transform="matrix(1,0,0,1,573.4064446162208,268.6) translate(102.65432098765432 30.27777777777778)"/><path d="M693.4 269.6c0-3.3 2.7-6 6-6h228c3.32 0 6 2.7 6 6v48c0 3.3-2.68 6-6 6h-228c-3.3 0-6-2.7-6-6z" stroke="#000" stroke-opacity="0" stroke-width="3" fill="#fff" fill-opacity="0"/><use xlink:href="#c" transform="matrix(1,0,0,1,698.4064446162208,268.6) translate(102.65432098765432 30.27777777777778)"/><path d="M686.8 692.45c.3 0 .5.22.5.5v7.7c0 .28-.2.5-.5.5-.27 0-.5-.22-.5-.5v-7.7c0-.28.23-.5.5-.5zM756.9 692.45c.28 0 .5.22.5.5v7.7c0 .28-.22.5-.5.5-.27 0-.5-.22-.5-.5v-7.7c0-.28.23-.5.5-.5z" stroke="#fc9432" fill="none"/><path d="M637.67 668.67c0-3.32 2.68-6 6-6h228c3.3 0 6 2.68 6 6v48c0 3.3-2.7 6-6 6h-228c-3.32 0-6-2.7-6-6z" stroke="#000" stroke-opacity="0" stroke-width="3" fill="#fff" fill-opacity="0"/><use xlink:href="#d" transform="matrix(1,0,0,1,642.6666666666665,667.6666666666667) translate(0 30.27777777777778)"/><use xlink:href="#e" transform="matrix(1,0,0,1,642.6666666666665,667.6666666666667) translate(67.90123456790124 30.27777777777778)"/><use xlink:href="#f" transform="matrix(1,0,0,1,642.6666666666665,667.6666666666667) translate(135.80246913580248 30.27777777777778)"/><path d="M825.92 692.5c.28 0 .5.22.5.5v7.7c0 .27-.22.5-.5.5-.27 0-.5-.23-.5-.5V693c0-.28.23-.5.5-.5z" stroke="#fc9432" fill="none"/><path d="M754.47 582.67c0 1.97-1.6 3.56-3.56 3.56s-3.56-1.6-3.56-3.56c0-1.97 1.6-3.57 3.57-3.57 1.98 0 3.57 1.6 3.57 3.57zM754.47 543.58c0 1.97-1.6 3.57-3.56 3.57s-3.56-1.6-3.56-3.57c0-1.97 1.6-3.57 3.57-3.57 1.98 0 3.57 1.6 3.57 3.58zM754.47 621.75c0 1.97-1.6 3.57-3.56 3.57s-3.56-1.6-3.56-3.57c0-1.97 1.6-3.56 3.57-3.56 1.98 0 3.57 1.58 3.57 3.55z" stroke="#4c535d" stroke-width="3" fill="#4c535d"/><path d="M167.1 286.58c0-3.3 2.68-6 6-6h335c3.33 0 6 2.7 6 6v592.17c0 3.3-2.67 6-6 6h-335c-3.32 0-6-2.7-6-6z" fill="none"/><path d="M514.1 884.75c-17.43 0-31.57-14.14-31.57-31.6v-238.9c0-17.44-14.14-31.58-31.6-31.58 17.46 0 31.6-14.14 31.6-31.6v-238.9c0-17.45 14.14-31.6 31.58-31.6" stroke="#5e5e5e" stroke-width="3" fill="none"/><path d="M901.74 379.4c0-3.3 2.7-6 6-6h228c3.3 0 6 2.7 6 6v49.2c0 3.3-2.7 6-6 6h-228c-3.3 0-6-2.7-6-6z" stroke="#000" stroke-opacity="0" stroke-width="3" fill="#fff" fill-opacity="0"/><use xlink:href="#g" transform="matrix(1,0,0,1,906.7397779495541,378.4) translate(56.09876543209877 32.861111111111114)"/><use xlink:href="#h" transform="matrix(1,0,0,1,906.7397779495541,378.4) translate(89 32.861111111111114)"/><use xlink:href="#i" transform="matrix(1,0,0,1,906.7397779495541,378.4) translate(133.85802469135803 32.861111111111114)"/><path d="M901.33 776.73c0-3.3 2.7-6 6-6h228c3.32 0 6 2.7 6 6v49.2c0 3.32-2.68 6-6 6h-228c-3.3 0-6-2.68-6-6z" stroke="#000" stroke-opacity="0" stroke-width="3" fill="#fff" fill-opacity="0"/><use xlink:href="#g" transform="matrix(1,0,0,1,906.3333333333335,775.7333333333335) translate(53.73148148148148 32.861111111111114)"/><use xlink:href="#j" transform="matrix(1,0,0,1,906.3333333333335,775.7333333333335) translate(86.63271604938271 32.861111111111114)"/><use xlink:href="#i" transform="matrix(1,0,0,1,906.3333333333335,775.7333333333335) translate(136.2253086419753 32.861111111111114)"/><g fill="none"><path d="M1440.32 878.75c0 3.3-2.7 6-6 6H1099.3c-3.3 0-6-2.7-6-6V286.58c0-3.3 2.7-6 6-6h335.02c3.3 0 6 2.7 6 6z"/><path d="M1093.3 280.58c17.45 0 31.6 14.14 31.6 31.6v238.9c0 17.45 14.13 31.6 31.57 31.6-17.44 0-31.58 14.13-31.58 31.57v238.9c0 17.46-14.15 31.6-31.6 31.6" stroke="#5e5e5e" stroke-width="3"/></g><path d="M152.42 1002.4c0-3.3 2.7-6 6-6h228c3.32 0 6 2.7 6 6v48c0 3.33-2.68 6-6 6h-228c-3.3 0-6-2.67-6-6z" stroke="#000" stroke-opacity="0" stroke-width="3" fill="#fff" fill-opacity="0"/><use xlink:href="#k" transform="matrix(1,0,0,1,157.42229123603903,1001.4115250141163) translate(43.51851851851852 30.27777777777778)"/><use xlink:href="#l" transform="matrix(1,0,0,1,157.42229123603903,1001.4115250141163) translate(117.4074074074074 30.27777777777778)"/><use xlink:href="#m" transform="matrix(1,0,0,1,157.42229123603903,1001.4115250141163) translate(149.44444444444446 30.27777777777778)"/><path d="M514.1 1002.4c0-3.3 2.7-6 6-6h567.2c3.32 0 6 2.7 6 6v48c0 3.33-2.68 6-6 6H520.1c-3.3 0-6-2.67-6-6z" stroke="#000" stroke-opacity="0" stroke-width="3" fill="#fff" fill-opacity="0"/><use xlink:href="#n" transform="matrix(1,0,0,1,519.1135603442817,1001.4115250141163) translate(105.80246913580248 30.27777777777778)"/><use xlink:href="#l" transform="matrix(1,0,0,1,519.1135603442817,1001.4115250141163) translate(286.79012345679007 30.27777777777778)"/><use xlink:href="#o" transform="matrix(1,0,0,1,519.1135603442817,1001.4115250141163) translate(318.82716049382714 30.27777777777778)"/><use xlink:href="#p" transform="matrix(1,0,0,1,519.1135603442817,1001.4115250141163) translate(379.1975308641975 30.27777777777778)"/><path d="M1152.98 1002.4c0-3.3 2.68-6 6-6h567.2c3.3 0 6 2.7 6 6v48c0 3.33-2.7 6-6 6h-567.2c-3.32 0-6-2.67-6-6z" stroke="#000" stroke-opacity="0" stroke-width="3" fill="#fff" fill-opacity="0"/><use xlink:href="#q" transform="matrix(1,0,0,1,1157.9781741836928,1001.4115250141163) translate(228.3641975308642 30.27777777777778)"/><path d="M872.84 193.24c0-3.32 2.7-6 6-6h335.02c3.3 0 6 2.68 6 6V972.1c0 3.3-2.7 6-6 6H878.84c-3.3 0-6-2.7-6-6z" fill="none"/><path d="M1219.86 978.1c-17.45 0-31.6-14.15-31.6-31.6V614.26c0-17.44-14.13-31.58-31.58-31.58 17.45 0 31.6-14.14 31.6-31.6V218.83c0-17.44 14.13-31.58 31.58-31.58" stroke="#5e5e5e" stroke-width="3" fill="none"/><g stroke="#5e5e5e" stroke-width="3"><path d="M1257.24 319.5c-8.3 0-15.05-19.7-15.05-43.98 0-24.3 6.73-44 15.04-44h120.44c8.32 0 15.06 19.7 15.06 44s-6.74 44-15.06 44z" fill="#fff"/><path d="M1377.68 319.5c-8.3 0-15.05-19.7-15.05-43.98 0-24.3 6.74-44 15.05-44" fill="none"/></g><path d="M1377.95 231.53c-8.76 0-15.87 22.76-15.87 50.83 0 28.08 7.1 50.84 15.87 50.84h-142.88c-8.77 0-15.88-22.76-15.88-50.84 0-28.07 7.1-50.83 15.87-50.83z" stroke="#5e5e5e" stroke-width="3" fill="#fff"/><path d="M1381.3 275.52c0 6.28-1.3 11.38-2.95 11.38-1.64 0-2.97-5.1-2.97-11.38 0-6.3 1.33-11.38 2.97-11.38 1.64 0 2.96 5.1 2.96 11.38z" stroke="#5e5e5e" stroke-width="3" fill="#fff"/><g stroke="#5e5e5e" stroke-width="3"><path d="M1243.07 522.82c-8.32 0-15.06-19.7-15.06-44s6.75-43.98 15.07-43.98h120.43c8.32 0 15.06 19.7 15.06 44s-6.74 43.98-15.06 43.98z" fill="#fff"/><path d="M1363.5 522.82c-8.3 0-15.05-19.7-15.05-44s6.74-43.98 15.05-43.98" fill="none"/></g><path d="M1364.57 434.84c-8.03 0-14.54 22.76-14.54 50.83 0 28.08 6.5 50.84 14.54 50.84h-130.85c-8.03 0-14.54-22.75-14.54-50.83 0-28.07 6.5-50.83 14.53-50.83z" stroke="#5e5e5e" stroke-width="3" fill="#fff"/><path d="M1367.14 478.83c0 6.28-1.33 11.38-2.97 11.38-1.64 0-2.96-5.1-2.96-11.37 0-6.28 1.33-11.38 2.97-11.38 1.64 0 2.97 5.1 2.97 11.38z" stroke="#5e5e5e" stroke-width="3" fill="#fff"/><g stroke="#5e5e5e" stroke-width="3"><path d="M1237 732.04c-6.44 0-11.66-19.7-11.66-44s5.22-43.98 11.67-43.98h93.35c6.44 0 11.67 19.7 11.67 44 0 24.28-5.23 43.98-11.67 43.98z" fill="#fff"/><path d="M1330.35 732.04c-6.44 0-11.67-19.7-11.67-44s5.23-43.98 11.67-43.98" fill="none"/></g><path d="M1329.2 644.06c-5.9 0-10.7 21.73-10.7 48.55 0 26.82 4.8 48.55 10.7 48.55h-96.25c-5.9 0-10.7-21.73-10.7-48.54 0-26.8 4.8-48.54 10.7-48.54z" stroke="#5e5e5e" stroke-width="3" fill="#fff"/><path d="M1333.32 688.05c0 6.28-1.33 11.38-2.97 11.38-1.63 0-2.96-5.1-2.96-11.38 0-6.3 1.32-11.38 2.95-11.38 1.64 0 2.97 5.1 2.97 11.38z" stroke="#5e5e5e" stroke-width="3" fill="#fff"/><path d="M1291.5 823.2c-1.3 21.9 5.2 28.4 9.05 32.25 6.2 6.2 26.05 2.86 32.25 9.06 3.9 3.92 10.36 10.37 9.12 32.32l-58.24 58.25c1.3-22.02-5.15-28.47-9.06-32.38-6.2-6.2-26.12-2.8-32.32-9-3.85-3.85-10.36-10.36-9-32.32z" stroke="#c00" stroke-width="3" fill="#ff8f8f"/><path d="M1322.35 819.52c-1.3 21.9 5.22 28.4 9.06 32.25 6.22 6.2 26.06 2.86 32.26 9.06 3.9 3.9 10.36 10.36 9.13 32.32l-58.26 58.25c1.3-22.03-5.15-28.48-9.06-32.4-6.2-6.2-26.1-2.78-32.32-8.98-3.84-3.85-10.36-10.36-9-32.32z" stroke="#c00" stroke-width="3" fill="#ff8f8f"/><path d="M1351.23 816.85c-1.3 21.9 5.22 28.4 9.06 32.25 6.2 6.2 26.04 2.86 32.25 9.07 3.9 3.9 10.35 10.36 9.12 32.3l-58.25 58.26c1.3-22.02-5.15-28.47-9.05-32.38-6.2-6.2-26.12-2.8-32.33-9-3.84-3.84-10.35-10.36-9-32.32z" stroke="#c00" stroke-width="3" fill="#ff8f8f"/><path d="M1482.78 857.13c0-3.32 2.7-6 6-6h270.48c3.32 0 6 2.68 6 6v51.33c0 3.3-2.68 6-6 6h-270.48c-3.3 0-6-2.7-6-6z" stroke="#000" stroke-opacity="0" stroke-width="3" fill="#fff" fill-opacity="0"/><use xlink:href="#r" transform="matrix(1,0,0,1,1487.7819720971538,856.1255234576122) translate(0 31.27777777777778)"/><use xlink:href="#s" transform="matrix(1,0,0,1,1487.7819720971538,856.1255234576122) translate(51.79012345679012 31.27777777777778)"/><use xlink:href="#t" transform="matrix(1,0,0,1,1487.7819720971538,856.1255234576122) translate(88.76543209876542 31.27777777777778)"/><use xlink:href="#u" transform="matrix(1,0,0,1,1487.7819720971538,856.1255234576122) translate(101.1111111111111 31.27777777777778)"/><use xlink:href="#v" transform="matrix(1,0,0,1,1487.7819720971538,856.1255234576122) translate(131.9753086419753 31.27777777777778)"/><path d="M1479.75 679.5c0-3.3 2.68-6 6-6h263.2c3.3 0 6 2.7 6 6v51.34c0 3.3-2.7 6-6 6h-263.2c-3.32 0-6-2.7-6-6z" stroke="#000" stroke-opacity="0" stroke-width="3" fill="#fff" fill-opacity="0"/><use xlink:href="#w" transform="matrix(1,0,0,1,1484.7476984254438,678.5042404987462) translate(0 31.27777777777778)"/><use xlink:href="#x" transform="matrix(1,0,0,1,1484.7476984254438,678.5042404987462) translate(43.20987654320988 31.27777777777778)"/><use xlink:href="#y" transform="matrix(1,0,0,1,1484.7476984254438,678.5042404987462) translate(80.18518518518519 31.27777777777778)"/><use xlink:href="#z" transform="matrix(1,0,0,1,1484.7476984254438,678.5042404987462) translate(111.0493827160494 31.27777777777778)"/><use xlink:href="#A" transform="matrix(1,0,0,1,1484.7476984254438,678.5042404987462) translate(159.01234567901236 31.27777777777778)"/><use xlink:href="#B" transform="matrix(1,0,0,1,1484.7476984254438,678.5042404987462) translate(225.679012345679 31.27777777777778)"/><path d="M1482.78 473.45c0-3.3 2.7-6 6-6h257.13c3.32 0 6 2.7 6 6v51.33c0 3.32-2.68 6-6 6H1488.8c-3.3 0-6-2.68-6-6z" stroke="#000" stroke-opacity="0" stroke-width="3" fill="#fff" fill-opacity="0"/><g><use xlink:href="#C" transform="matrix(1,0,0,1,1487.7819720971538,472.4506686172453) translate(0 31.27777777777778)"/><use xlink:href="#x" transform="matrix(1,0,0,1,1487.7819720971538,472.4506686172453) translate(43.20987654320988 31.27777777777778)"/><use xlink:href="#y" transform="matrix(1,0,0,1,1487.7819720971538,472.4506686172453) translate(80.18518518518519 31.27777777777778)"/><use xlink:href="#z" transform="matrix(1,0,0,1,1487.7819720971538,472.4506686172453) translate(111.0493827160494 31.27777777777778)"/><use xlink:href="#A" transform="matrix(1,0,0,1,1487.7819720971538,472.4506686172453) translate(159.01234567901236 31.27777777777778)"/><use xlink:href="#D" transform="matrix(1,0,0,1,1487.7819720971538,472.4506686172453) translate(225.679012345679 31.27777777777778)"/></g><path d="M1479.75 272.33c0-3.32 2.68-6 6-6h257.13c3.3 0 6 2.68 6 6v51.33c0 3.32-2.7 6-6 6h-257.13c-3.32 0-6-2.68-6-6z" stroke="#000" stroke-opacity="0" stroke-width="3" fill="#fff" fill-opacity="0"/><g><use xlink:href="#E" transform="matrix(1,0,0,1,1484.7476984254438,271.32842286339735) translate(0 31.27777777777778)"/><use xlink:href="#x" transform="matrix(1,0,0,1,1484.7476984254438,271.32842286339735) translate(43.20987654320988 31.27777777777778)"/><use xlink:href="#y" transform="matrix(1,0,0,1,1484.7476984254438,271.32842286339735) translate(80.18518518518519 31.27777777777778)"/><use xlink:href="#z" transform="matrix(1,0,0,1,1484.7476984254438,271.32842286339735) translate(111.0493827160494 31.27777777777778)"/><use xlink:href="#A" transform="matrix(1,0,0,1,1484.7476984254438,271.32842286339735) translate(159.01234567901236 31.27777777777778)"/><use xlink:href="#F" transform="matrix(1,0,0,1,1484.7476984254438,271.32842286339735) translate(225.679012345679 31.27777777777778)"/></g><g stroke="#5e5e5e" stroke-width="3"><path d="M1295.12 342c-8.3 0-15.05-19.7-15.05-44s6.74-44 15.05-44h120.44c8.32 0 15.06 19.7 15.06 44s-6.74 44-15.06 44z" fill="#fff"/><path d="M1415.56 342c-8.3 0-15.05-19.7-15.05-44s6.75-44 15.06-44" fill="none"/></g><path d="M1415.83 254c-8.76 0-15.87 22.76-15.87 50.84 0 28.07 7.1 50.83 15.87 50.83h-142.88c-8.77 0-15.88-22.76-15.88-50.83 0-28.08 7.1-50.84 15.88-50.84z" stroke="#5e5e5e" stroke-width="3" fill="#fff"/><path d="M1419.2 298c0 6.28-1.33 11.37-2.97 11.37-1.64 0-2.97-5.1-2.97-11.37 0-6.3 1.33-11.38 2.97-11.38 1.64 0 2.97 5.1 2.97 11.38z" stroke="#5e5e5e" stroke-width="3" fill="#fff"/><g stroke="#5e5e5e" stroke-width="3"><path d="M1268.9 544.1c-8.3 0-15.04-19.7-15.04-44s6.74-43.98 15.05-43.98h120.45c8.32 0 15.06 19.7 15.06 44 0 24.28-6.73 43.98-15.05 43.98z" fill="#fff"/><path d="M1389.35 544.1c-8.3 0-15.05-19.7-15.05-44s6.74-43.98 15.05-43.98" fill="none"/></g><path d="M1390.42 456.12c-8.03 0-14.54 22.75-14.54 50.83s6.5 50.83 14.54 50.83h-130.84c-8.03 0-14.54-22.75-14.54-50.83s6.5-50.83 14.54-50.83z" stroke="#5e5e5e" stroke-width="3" fill="#fff"/><path d="M1393 500.1c0 6.3-1.34 11.4-2.98 11.4s-2.96-5.1-2.96-11.4c0-6.28 1.32-11.37 2.96-11.37s2.97 5.1 2.97 11.38z" stroke="#5e5e5e" stroke-width="3" fill="#fff"/><g stroke="#5e5e5e" stroke-width="3"><path d="M1274.75 749.16c-6.44 0-11.67-19.7-11.67-44s5.23-43.98 11.67-43.98h93.34c6.44 0 11.66 19.7 11.66 44s-5.22 43.98-11.67 43.98z" fill="#fff"/><path d="M1368.1 749.16c-6.45 0-11.67-19.7-11.67-44s5.22-43.98 11.66-43.98" fill="none"/></g><path d="M1366.95 661.18c-5.9 0-10.7 21.74-10.7 48.55 0 26.8 4.8 48.55 10.7 48.55H1270.7c-5.9 0-10.7-21.74-10.7-48.55 0-26.8 4.8-48.55 10.7-48.55z" stroke="#5e5e5e" stroke-width="3" fill="#fff"/><path d="M1371.06 705.17c0 6.3-1.32 11.38-2.96 11.38s-2.97-5.1-2.97-11.38c0-6.28 1.33-11.38 2.97-11.38 1.64 0 2.96 5.1 2.96 11.37z" stroke="#5e5e5e" stroke-width="3" fill="#fff"/><path d="M513.5 1033.76c0-3.3 2.7-6 6-6h587.8c3.32 0 6 2.7 6 6v51.33c0 3.3-2.68 6-6 6H519.5c-3.3 0-6-2.7-6-6z" stroke="#000" stroke-opacity="0" stroke-width="3" fill="#fff" fill-opacity="0"/><g><use xlink:href="#G" transform="matrix(1,0,0,1,518.5020649264123,1032.7592013939782) translate(50.38888888888894 29.5)"/><use xlink:href="#H" transform="matrix(1,0,0,1,518.5020649264123,1032.7592013939782) translate(62.55555555555561 29.5)"/><use xlink:href="#I" transform="matrix(1,0,0,1,518.5020649264123,1032.7592013939782) translate(142.44444444444449 29.5)"/><use xlink:href="#J" transform="matrix(1,0,0,1,518.5020649264123,1032.7592013939782) translate(180.22222222222226 29.5)"/><use xlink:href="#K" transform="matrix(1,0,0,1,518.5020649264123,1032.7592013939782) translate(245.72222222222226 29.5)"/><use xlink:href="#L" transform="matrix(1,0,0,1,518.5020649264123,1032.7592013939782) translate(353.33333333333337 29.5)"/><use xlink:href="#M" transform="matrix(1,0,0,1,518.5020649264123,1032.7592013939782) translate(392.2222222222222 29.5)"/><use xlink:href="#N" transform="matrix(1,0,0,1,518.5020649264123,1032.7592013939782) translate(413.2777777777777 29.5)"/><use xlink:href="#O" transform="matrix(1,0,0,1,518.5020649264123,1032.7592013939782) translate(463.2222222222222 29.5)"/><use xlink:href="#P" transform="matrix(1,0,0,1,518.5020649264123,1032.7592013939782) translate(533 29.5)"/></g><path d="M245.72 149.4c0-1.95 1.58-3.53 3.53-3.53H1324.3c3.3 0 6-2.7 6-6v-4c0-3.32 2.26-4.57 5.06-2.8l20.77 13.12c2.8 1.76 2.8 4.63 0 6.4l-20.77 13.12c-2.8 1.77-5.07.52-5.07-2.8v-4c0-3.32-2.7-6-6-6H249.24c-1.95 0-3.53-1.58-3.53-3.53z" stroke="#ffe342" stroke-width="3" fill="#fff7a1"/><path d="M1560.15 865.33c0-3.3 2.7-6 6-6h25c3.3 0 6 2.7 6 6v22.34c0 3.3-2.7 6-6 6h-25c-3.3 0-6-2.7-6-6z" stroke="#000" stroke-opacity="0" stroke-width="3" fill="#fff" fill-opacity="0"/><g><use xlink:href="#Q" transform="matrix(1,0,0,1,1565.1494977739958,864.3333333333335) translate(0 15.569444444444441)"/></g><defs><path fill="#282c33" d="M23 0v-37h61v-169l-59 37v-38l62-41h46v211h57V0H23" id="R"/><path fill="#282c33" d="M182-182c0 78-84 86-111 141h115V0H12c-6-101 99-100 120-180 1-22-12-31-33-32-23 0-32 14-35 34l-49-3c5-45 32-70 84-70 51 0 83 22 83 69" id="S"/><path fill="#282c33" d="M139-81c0-46-55-55-73-27H18l9-140h149v37H72l-4 63c44-38 133-4 122 66C201 21 21 35 11-62l49-4c5 18 15 30 39 30 26 0 40-18 40-45" id="T"/><g id="a"><use transform="matrix(0.06172839506172839,0,0,0.06172839506172839,0,0)" xlink:href="#R"/><use transform="matrix(0.06172839506172839,0,0,0.06172839506172839,12.345679012345679,0)" xlink:href="#S"/><use transform="matrix(0.06172839506172839,0,0,0.06172839506172839,24.691358024691358,0)" xlink:href="#T"/></g><path fill="#282c33" d="M115-159c48 0 72 30 72 78 0 54-30 85-83 85-64 0-91-50-91-122 0-98 58-163 141-120 15 8 21 24 27 44l-47 6c-5-31-48-31-61-4-7 14-11 33-11 60 9-17 28-27 53-27zM102-35c24 0 36-20 36-45s-11-43-37-43c-23 0-36 14-36 38 0 27 11 50 37 50" id="U"/><path fill="#282c33" d="M165-50V0h-47v-50H5v-38l105-160h55v161h33v37h-33zm-47-37l2-116L46-87h72" id="V"/><g id="b"><use transform="matrix(0.06172839506172839,0,0,0.06172839506172839,0,0)" xlink:href="#U"/><use transform="matrix(0.06172839506172839,0,0,0.06172839506172839,12.345679012345679,0)" xlink:href="#V"/></g><path fill="#282c33" d="M101-251c68 0 84 54 84 127C185-50 166 4 99 4S15-52 14-124c-1-75 17-127 87-127zm-1 216c37-5 36-46 36-89s4-89-36-89c-39 0-36 45-36 89 0 43-3 85 36 89" id="W"/><g id="c"><use transform="matrix(0.06172839506172839,0,0,0.06172839506172839,0,0)" xlink:href="#U"/><use transform="matrix(0.06172839506172839,0,0,0.06172839506172839,12.345679012345679,0)" xlink:href="#W"/></g><path fill="#282c33" d="M128-127c34 4 56 21 59 58 7 91-148 94-172 28-4-9-6-17-7-26l51-5c1 24 16 35 40 36 23 0 39-12 38-36-1-31-31-36-65-34v-40c32 2 59-3 59-33 0-20-13-33-34-33s-33 13-35 32l-50-3c6-44 37-68 86-68 50 0 83 20 83 66 0 35-22 52-53 58" id="X"/><g id="d"><use transform="matrix(0.06172839506172839,0,0,0.06172839506172839,0,0)" xlink:href="#X"/><use transform="matrix(0.06172839506172839,0,0,0.06172839506172839,12.345679012345679,0)" xlink:href="#T"/></g><g id="e"><use transform="matrix(0.06172839506172839,0,0,0.06172839506172839,0,0)" xlink:href="#X"/><use transform="matrix(0.06172839506172839,0,0,0.06172839506172839,12.345679012345679,0)" xlink:href="#T"/></g><g id="f"><use transform="matrix(0.06172839506172839,0,0,0.06172839506172839,0,0)" xlink:href="#X"/><use transform="matrix(0.06172839506172839,0,0,0.06172839506172839,12.345679012345679,0)" xlink:href="#T"/></g><path fill="#202124" d="M25-58l62-62-62-62 19-18 61 62 62-62 18 19-61 61 61 62-17 18-63-62-62 62" id="Y"/><use transform="matrix(0.08024691358024691,0,0,0.08024691358024691,0,0)" xlink:href="#Y" id="g"/><path fill="#333" d="M233-177c-1 41-23 64-60 70L243 0h-38l-65-103H63V0H30v-248c88 3 205-21 203 71zM63-129c60-2 137 13 137-47 0-61-80-42-137-45v92" id="Z"/><path fill="#333" d="M27 0v-27h64v-190l-56 39v-29l58-41h29v221h61V0H27" id="aa"/><g id="h"><use transform="matrix(0.08024691358024691,0,0,0.08024691358024691,0,0)" xlink:href="#Z"/><use transform="matrix(0.08024691358024691,0,0,0.08024691358024691,20.78395061728395,0)" xlink:href="#aa"/></g><path fill="#333" d="M26 75v-336h71v23H56V52h41v23H26" id="ab"/><path fill="#333" d="M210-169c-67 3-38 105-44 169h-31v-121c0-29-5-50-35-48C34-165 62-65 56 0H25l-1-190h30c1 10-1 24 2 32 10-44 99-50 107 0 11-21 27-35 58-36 85-2 47 119 55 194h-31v-121c0-29-5-49-35-48" id="ac"/><path fill="#333" d="M3 75V52h41v-290H3v-23h71V75H3" id="ad"/><g id="i"><use transform="matrix(0.08024691358024691,0,0,0.08024691358024691,0,0)" xlink:href="#ab"/><use transform="matrix(0.08024691358024691,0,0,0.08024691358024691,8.024691358024691,0)" xlink:href="#ac"/><use transform="matrix(0.08024691358024691,0,0,0.08024691358024691,32.01851851851852,0)" xlink:href="#ad"/></g><path fill="#333" d="M190 0L58-211 59 0H30v-248h39L202-35l-2-213h31V0h-41" id="ae"/><g id="j"><use transform="matrix(0.08024691358024691,0,0,0.08024691358024691,0,0)" xlink:href="#Z"/><use transform="matrix(0.08024691358024691,0,0,0.08024691358024691,20.78395061728395,0)" xlink:href="#ae"/></g><path fill="#1071e5" d="M240-174c0 40-23 61-54 70L253 0h-59l-57-94H76V0H24v-248c93 4 217-23 216 74zM76-134c48-2 112 12 112-38 0-48-66-32-112-35v73" id="af"/><path fill="#1071e5" d="M110-194c64 0 96 36 96 99 0 64-35 99-97 99-61 0-95-36-95-99 0-62 34-99 96-99zm-1 164c35 0 45-28 45-65 0-40-10-65-43-65-34 0-45 26-45 65 0 36 10 65 43 65" id="ag"/><path fill="#1071e5" d="M25 0v-261h50V0H25" id="ah"/><path fill="#1071e5" d="M137-138c1-29-70-34-71-4 15 46 118 7 119 86 1 83-164 76-172 9l43-7c4 19 20 25 44 25 33 8 57-30 24-41C81-84 22-81 20-136c-2-80 154-74 161-7" id="ai"/><g id="k"><use transform="matrix(0.06172839506172839,0,0,0.06172839506172839,0,0)" xlink:href="#af"/><use transform="matrix(0.06172839506172839,0,0,0.06172839506172839,15.987654320987653,0)" xlink:href="#ag"/><use transform="matrix(0.06172839506172839,0,0,0.06172839506172839,29.50617283950617,0)" xlink:href="#ah"/><use transform="matrix(0.06172839506172839,0,0,0.06172839506172839,35.67901234567901,0)" xlink:href="#ah"/><use transform="matrix(0.06172839506172839,0,0,0.06172839506172839,41.851851851851855,0)" xlink:href="#ag"/><use transform="matrix(0.06172839506172839,0,0,0.06172839506172839,55.370370370370374,0)" xlink:href="#ai"/></g><path fill="#1071e5" d="M88-194c31-1 46 15 58 34l-1-101h50l1 261h-48c-2-10 0-23-3-31C134-8 116 4 84 4 32 4 16-41 15-95c0-56 19-97 73-99zm17 164c33 0 40-30 41-66 1-37-9-64-41-64s-38 30-39 65c0 43 13 65 39 65" id="aj"/><path fill="#1071e5" d="M185-48c-13 30-37 53-82 52C43 2 14-33 14-96s30-98 90-98c62 0 83 45 84 108H66c0 31 8 55 39 56 18 0 30-7 34-22zm-45-69c5-46-57-63-70-21-2 6-4 13-4 21h74" id="ak"/><g id="l"><use transform="matrix(0.06172839506172839,0,0,0.06172839506172839,0,0)" xlink:href="#aj"/><use transform="matrix(0.06172839506172839,0,0,0.06172839506172839,13.518518518518517,0)" xlink:href="#ak"/></g><path fill="#1071e5" d="M23 0v-37h61v-169l-59 37v-38l62-41h46v211h57V0H23" id="al"/><path fill="#1071e5" d="M182-182c0 78-84 86-111 141h115V0H12c-6-101 99-100 120-180 1-22-12-31-33-32-23 0-32 14-35 34l-49-3c5-45 32-70 84-70 51 0 83 22 83 69" id="am"/><path fill="#1071e5" d="M139-81c0-46-55-55-73-27H18l9-140h149v37H72l-4 63c44-38 133-4 122 66C201 21 21 35 11-62l49-4c5 18 15 30 39 30 26 0 40-18 40-45" id="an"/><g id="m"><use transform="matrix(0.06172839506172839,0,0,0.06172839506172839,0,0)" xlink:href="#al"/><use transform="matrix(0.06172839506172839,0,0,0.06172839506172839,12.345679012345679,0)" xlink:href="#am"/><use transform="matrix(0.06172839506172839,0,0,0.06172839506172839,24.691358024691358,0)" xlink:href="#an"/></g><path fill="#1071e5" d="M67-125c0 53 21 87 73 88 37 1 54-22 65-47l45 17C233-25 199 4 140 4 58 4 20-42 15-125 8-235 124-281 211-232c18 10 29 29 36 50l-46 12c-8-25-30-41-62-41-52 0-71 34-72 86" id="ao"/><path fill="#1071e5" d="M135-194c87-1 58 113 63 194h-50c-7-57 23-157-34-157-59 0-34 97-39 157H25l-1-190h47c2 12-1 28 3 38 12-26 28-41 61-42" id="ap"/><path fill="#1071e5" d="M121-226c-27-7-43 5-38 36h38v33H83V0H34v-157H6v-33h28c-9-59 32-81 87-68v32" id="aq"/><path fill="#1071e5" d="M25-224v-37h50v37H25zM25 0v-190h50V0H25" id="ar"/><path fill="#1071e5" d="M195-6C206 82 75 100 31 46c-4-6-6-13-8-21l49-6c3 16 16 24 34 25 40 0 42-37 40-79-11 22-30 35-61 35-53 0-70-43-70-97 0-56 18-96 73-97 30 0 46 14 59 34l2-30h47zm-90-29c32 0 41-27 41-63 0-35-9-62-40-62-32 0-39 29-40 63 0 36 9 62 39 62" id="as"/><path fill="#1071e5" d="M85 4C-2 5 27-109 22-190h50c7 57-23 150 33 157 60-5 35-97 40-157h50l1 190h-47c-2-12 1-28-3-38-12 25-28 42-61 42" id="at"/><path fill="#1071e5" d="M135-150c-39-12-60 13-60 57V0H25l-1-190h47c2 13-1 29 3 40 6-28 27-53 61-41v41" id="au"/><path fill="#1071e5" d="M133-34C117-15 103 5 69 4 32 3 11-16 11-54c-1-60 55-63 116-61 1-26-3-47-28-47-18 1-26 9-28 27l-52-2c7-38 36-58 82-57s74 22 75 68l1 82c-1 14 12 18 25 15v27c-30 8-71 5-69-32zm-48 3c29 0 43-24 42-57-32 0-66-3-65 30 0 17 8 27 23 27" id="av"/><path fill="#1071e5" d="M190-63c-7 42-38 67-86 67-59 0-84-38-90-98-12-110 154-137 174-36l-49 2c-2-19-15-32-35-32-30 0-35 28-38 64-6 74 65 87 74 30" id="aw"/><g id="n"><use transform="matrix(0.06172839506172839,0,0,0.06172839506172839,0,0)" xlink:href="#ao"/><use transform="matrix(0.06172839506172839,0,0,0.06172839506172839,15.987654320987653,0)" xlink:href="#ag"/><use transform="matrix(0.06172839506172839,0,0,0.06172839506172839,29.50617283950617,0)" xlink:href="#ap"/><use transform="matrix(0.06172839506172839,0,0,0.06172839506172839,43.02469135802469,0)" xlink:href="#aq"/><use transform="matrix(0.06172839506172839,0,0,0.06172839506172839,50.37037037037037,0)" xlink:href="#ar"/><use transform="matrix(0.06172839506172839,0,0,0.06172839506172839,56.54320987654321,0)" xlink:href="#as"/><use transform="matrix(0.06172839506172839,0,0,0.06172839506172839,70.06172839506172,0)" xlink:href="#at"/><use transform="matrix(0.06172839506172839,0,0,0.06172839506172839,83.58024691358024,0)" xlink:href="#au"/><use transform="matrix(0.06172839506172839,0,0,0.06172839506172839,92.22222222222221,0)" xlink:href="#av"/><use transform="matrix(0.06172839506172839,0,0,0.06172839506172839,104.5679012345679,0)" xlink:href="#aw"/><use transform="matrix(0.06172839506172839,0,0,0.06172839506172839,116.91358024691358,0)" xlink:href="#ar"/><use transform="matrix(0.06172839506172839,0,0,0.06172839506172839,123.08641975308642,0)" xlink:href="#ag"/><use transform="matrix(0.06172839506172839,0,0,0.06172839506172839,136.60493827160494,0)" xlink:href="#ap"/><use transform="matrix(0.06172839506172839,0,0,0.06172839506172839,150.12345679012344,0)" xlink:href="#ak"/><use transform="matrix(0.06172839506172839,0,0,0.06172839506172839,162.4691358024691,0)" xlink:href="#ai"/></g><path fill="#1071e5" d="M115-3C79 11 28 4 28-45v-112H4v-33h27l15-45h31v45h36v33H77v99c-1 23 16 31 38 25v30" id="ax"/><g id="o"><use transform="matrix(0.06172839506172839,0,0,0.06172839506172839,0,0)" xlink:href="#aw"/><use transform="matrix(0.06172839506172839,0,0,0.06172839506172839,12.345679012345679,0)" xlink:href="#ag"/><use transform="matrix(0.06172839506172839,0,0,0.06172839506172839,25.864197530864196,0)" xlink:href="#au"/><use transform="matrix(0.06172839506172839,0,0,0.06172839506172839,34.50617283950617,0)" xlink:href="#ax"/><use transform="matrix(0.06172839506172839,0,0,0.06172839506172839,41.85185185185185,0)" xlink:href="#ak"/></g><path fill="#1071e5" d="M135-194c53 0 70 44 70 98 0 56-19 98-73 100-31 1-45-17-59-34 3 33 2 69 2 105H25l-1-265h48c2 10 0 23 3 31 11-24 29-35 60-35zM114-30c33 0 39-31 40-66 0-38-9-64-40-64-56 0-55 130 0 130" id="ay"/><path fill="#1071e5" d="M220-157c-53 9-28 100-34 157h-49v-107c1-27-5-49-29-50C55-147 81-57 75 0H25l-1-190h47c2 12-1 28 3 38 10-53 101-56 108 0 13-22 24-43 59-42 82 1 51 116 57 194h-49v-107c-1-25-5-48-29-50" id="az"/><g id="p"><use transform="matrix(0.06172839506172839,0,0,0.06172839506172839,0,0)" xlink:href="#ag"/><use transform="matrix(0.06172839506172839,0,0,0.06172839506172839,13.518518518518517,0)" xlink:href="#ay"/><use transform="matrix(0.06172839506172839,0,0,0.06172839506172839,27.037037037037035,0)" xlink:href="#ax"/><use transform="matrix(0.06172839506172839,0,0,0.06172839506172839,34.382716049382715,0)" xlink:href="#ar"/><use transform="matrix(0.06172839506172839,0,0,0.06172839506172839,40.55555555555556,0)" xlink:href="#az"/><use transform="matrix(0.06172839506172839,0,0,0.06172839506172839,60.308641975308646,0)" xlink:href="#av"/><use transform="matrix(0.06172839506172839,0,0,0.06172839506172839,72.65432098765433,0)" xlink:href="#ai"/></g><g id="q"><use transform="matrix(0.06172839506172839,0,0,0.06172839506172839,0,0)" xlink:href="#af"/><use transform="matrix(0.06172839506172839,0,0,0.06172839506172839,15.987654320987653,0)" xlink:href="#ak"/><use transform="matrix(0.06172839506172839,0,0,0.06172839506172839,28.333333333333332,0)" xlink:href="#ai"/><use transform="matrix(0.06172839506172839,0,0,0.06172839506172839,40.67901234567901,0)" xlink:href="#at"/><use transform="matrix(0.06172839506172839,0,0,0.06172839506172839,54.19753086419753,0)" xlink:href="#ah"/><use transform="matrix(0.06172839506172839,0,0,0.06172839506172839,60.370370370370374,0)" xlink:href="#ax"/><use transform="matrix(0.06172839506172839,0,0,0.06172839506172839,67.71604938271605,0)" xlink:href="#av"/><use transform="matrix(0.06172839506172839,0,0,0.06172839506172839,80.06172839506173,0)" xlink:href="#ap"/><use transform="matrix(0.06172839506172839,0,0,0.06172839506172839,93.58024691358025,0)" xlink:href="#ax"/><use transform="matrix(0.06172839506172839,0,0,0.06172839506172839,100.92592592592594,0)" xlink:href="#ak"/></g><path fill="#c00" d="M30-248c118-7 216 8 213 122C240-48 200 0 122 0H30v-248zM63-27c89 8 146-16 146-99s-60-101-146-95v194" id="aA"/><path fill="#c00" d="M30 0v-248h187v28H63v79h144v27H63v87h162V0H30" id="aB"/><path fill="#c00" d="M185-189c-5-48-123-54-124 2 14 75 158 14 163 119 3 78-121 87-175 55-17-10-28-26-33-46l33-7c5 56 141 63 141-1 0-78-155-14-162-118-5-82 145-84 179-34 5 7 8 16 11 25" id="aC"/><g id="r"><use transform="matrix(0.06172839506172839,0,0,0.06172839506172839,0,0)" xlink:href="#aA"/><use transform="matrix(0.06172839506172839,0,0,0.06172839506172839,15.987654320987653,0)" xlink:href="#aB"/><use transform="matrix(0.06172839506172839,0,0,0.06172839506172839,30.80246913580247,0)" xlink:href="#aC"/></g><path fill="#c00" d="M26 75v-336h71v23H56V52h41v23H26" id="aD"/><path fill="#c00" d="M210-169c-67 3-38 105-44 169h-31v-121c0-29-5-50-35-48C34-165 62-65 56 0H25l-1-190h30c1 10-1 24 2 32 10-44 99-50 107 0 11-21 27-35 58-36 85-2 47 119 55 194h-31v-121c0-29-5-49-35-48" id="aE"/><g id="s"><use transform="matrix(0.06172839506172839,0,0,0.06172839506172839,0,0)" xlink:href="#aD"/><use transform="matrix(0.06172839506172839,0,0,0.06172839506172839,6.172839506172839,0)" xlink:href="#aE"/></g><path fill="#c00" d="M3 75V52h41v-290H3v-23h71V75H3" id="aF"/><use transform="matrix(0.06172839506172839,0,0,0.06172839506172839,0,0)" xlink:href="#aF" id="t"/><path fill="#c00" d="M85-194c31 0 48 13 60 33l-1-100h32l1 261h-30c-2-10 0-23-3-31C134-8 116 4 85 4 32 4 16-35 15-94c0-66 23-100 70-100zm9 24c-40 0-46 34-46 75 0 40 6 74 45 74 42 0 51-32 51-76 0-42-9-74-50-73" id="aG"/><path fill="#c00" d="M100-194c63 0 86 42 84 106H49c0 40 14 67 53 68 26 1 43-12 49-29l28 8c-11 28-37 45-77 45C44 4 14-33 15-96c1-61 26-98 85-98zm52 81c6-60-76-77-97-28-3 7-6 17-6 28h103" id="aH"/><g id="u"><use transform="matrix(0.06172839506172839,0,0,0.06172839506172839,0,0)" xlink:href="#aG"/><use transform="matrix(0.06172839506172839,0,0,0.06172839506172839,12.345679012345679,0)" xlink:href="#aH"/></g><path fill="#c00" d="M135-143c-3-34-86-38-87 0 15 53 115 12 119 90S17 21 10-45l28-5c4 36 97 45 98 0-10-56-113-15-118-90-4-57 82-63 122-42 12 7 21 19 24 35" id="aI"/><path fill="#c00" d="M115-194c55 1 70 41 70 98S169 2 115 4C84 4 66-9 55-30l1 105H24l-1-265h31l2 30c10-21 28-34 59-34zm-8 174c40 0 45-34 45-75s-6-73-45-74c-42 0-51 32-51 76 0 43 10 73 51 73" id="aJ"/><path fill="#c00" d="M114-163C36-179 61-72 57 0H25l-1-190h30c1 12-1 29 2 39 6-27 23-49 58-41v29" id="aK"/><path fill="#c00" d="M24-231v-30h32v30H24zM24 0v-190h32V0H24" id="aL"/><path fill="#c00" d="M96-169c-40 0-48 33-48 73s9 75 48 75c24 0 41-14 43-38l32 2c-6 37-31 61-74 61-59 0-76-41-82-99-10-93 101-131 147-64 4 7 5 14 7 22l-32 3c-4-21-16-35-41-35" id="aM"/><path fill="#c00" d="M100-194c62-1 85 37 85 99 1 63-27 99-86 99S16-35 15-95c0-66 28-99 85-99zM99-20c44 1 53-31 53-75 0-43-8-75-51-75s-53 32-53 75 10 74 51 75" id="aN"/><g id="v"><use transform="matrix(0.06172839506172839,0,0,0.06172839506172839,0,0)" xlink:href="#aG"/><use transform="matrix(0.06172839506172839,0,0,0.06172839506172839,12.345679012345679,0)" xlink:href="#aH"/><use transform="matrix(0.06172839506172839,0,0,0.06172839506172839,24.691358024691358,0)" xlink:href="#aI"/><use transform="matrix(0.06172839506172839,0,0,0.06172839506172839,35.80246913580247,0)" xlink:href="#aJ"/><use transform="matrix(0.06172839506172839,0,0,0.06172839506172839,48.148148148148145,0)" xlink:href="#aH"/><use transform="matrix(0.06172839506172839,0,0,0.06172839506172839,60.49382716049382,0)" xlink:href="#aK"/><use transform="matrix(0.06172839506172839,0,0,0.06172839506172839,67.8395061728395,0)" xlink:href="#aG"/><use transform="matrix(0.06172839506172839,0,0,0.06172839506172839,80.18518518518519,0)" xlink:href="#aL"/><use transform="matrix(0.06172839506172839,0,0,0.06172839506172839,85.06172839506173,0)" xlink:href="#aM"/><use transform="matrix(0.06172839506172839,0,0,0.06172839506172839,96.17283950617285,0)" xlink:href="#aL"/><use transform="matrix(0.06172839506172839,0,0,0.06172839506172839,101.0493827160494,0)" xlink:href="#aN"/></g><path fill="#008a0e" d="M30 0v-248h33v221h125V0H30" id="aO"/><path fill="#008a0e" d="M126-127c33 6 58 20 58 59 0 88-139 92-164 29-3-8-5-16-6-25l32-3c6 27 21 44 54 44 32 0 52-15 52-46 0-38-36-46-79-43v-28c39 1 72-4 72-42 0-27-17-43-46-43-28 0-47 15-49 41l-32-3c6-42 35-63 81-64 48-1 79 21 79 65 0 36-21 52-52 59" id="aP"/><path fill="#008a0e" d="M54-142c48-35 137-8 131 61C196 18 31 33 14-55l32-4c7 23 22 37 52 37 35-1 51-22 54-58 4-55-73-65-99-34H22l8-134h141v27H59" id="aQ"/><g id="w"><use transform="matrix(0.06172839506172839,0,0,0.06172839506172839,0,0)" xlink:href="#aO"/><use transform="matrix(0.06172839506172839,0,0,0.06172839506172839,12.345679012345679,0)" xlink:href="#aP"/><use transform="matrix(0.06172839506172839,0,0,0.06172839506172839,24.691358024691358,0)" xlink:href="#aQ"/></g><path fill="#008a0e" d="M26 75v-336h71v23H56V52h41v23H26" id="aR"/><path fill="#008a0e" d="M210-169c-67 3-38 105-44 169h-31v-121c0-29-5-50-35-48C34-165 62-65 56 0H25l-1-190h30c1 10-1 24 2 32 10-44 99-50 107 0 11-21 27-35 58-36 85-2 47 119 55 194h-31v-121c0-29-5-49-35-48" id="aS"/><path fill="#008a0e" d="M3 75V52h41v-290H3v-23h71V75H3" id="aT"/><g id="x"><use transform="matrix(0.06172839506172839,0,0,0.06172839506172839,0,0)" xlink:href="#aR"/><use transform="matrix(0.06172839506172839,0,0,0.06172839506172839,6.172839506172839,0)" xlink:href="#aS"/><use transform="matrix(0.06172839506172839,0,0,0.06172839506172839,24.629629629629626,0)" xlink:href="#aT"/></g><path fill="#008a0e" d="M85-194c31 0 48 13 60 33l-1-100h32l1 261h-30c-2-10 0-23-3-31C134-8 116 4 85 4 32 4 16-35 15-94c0-66 23-100 70-100zm9 24c-40 0-46 34-46 75 0 40 6 74 45 74 42 0 51-32 51-76 0-42-9-74-50-73" id="aU"/><path fill="#008a0e" d="M100-194c63 0 86 42 84 106H49c0 40 14 67 53 68 26 1 43-12 49-29l28 8c-11 28-37 45-77 45C44 4 14-33 15-96c1-61 26-98 85-98zm52 81c6-60-76-77-97-28-3 7-6 17-6 28h103" id="aV"/><g id="y"><use transform="matrix(0.06172839506172839,0,0,0.06172839506172839,0,0)" xlink:href="#aU"/><use transform="matrix(0.06172839506172839,0,0,0.06172839506172839,12.345679012345679,0)" xlink:href="#aV"/></g><path fill="#008a0e" d="M114-163C36-179 61-72 57 0H25l-1-190h30c1 12-1 29 2 39 6-27 23-49 58-41v29" id="aW"/><path fill="#008a0e" d="M100-194c62-1 85 37 85 99 1 63-27 99-86 99S16-35 15-95c0-66 28-99 85-99zM99-20c44 1 53-31 53-75 0-43-8-75-51-75s-53 32-53 75 10 74 51 75" id="aX"/><path fill="#008a0e" d="M24 0v-261h32V0H24" id="aY"/><g id="z"><use transform="matrix(0.06172839506172839,0,0,0.06172839506172839,0,0)" xlink:href="#aW"/><use transform="matrix(0.06172839506172839,0,0,0.06172839506172839,7.345679012345679,0)" xlink:href="#aX"/><use transform="matrix(0.06172839506172839,0,0,0.06172839506172839,19.691358024691358,0)" xlink:href="#aY"/><use transform="matrix(0.06172839506172839,0,0,0.06172839506172839,24.5679012345679,0)" xlink:href="#aY"/><use transform="matrix(0.06172839506172839,0,0,0.06172839506172839,29.444444444444443,0)" xlink:href="#aX"/></g><path fill="#008a0e" d="M141-36C126-15 110 5 73 4 37 3 15-17 15-53c-1-64 63-63 125-63 3-35-9-54-41-54-24 1-41 7-42 31l-33-3c5-37 33-52 76-52 45 0 72 20 72 64v82c-1 20 7 32 28 27v20c-31 9-61-2-59-35zM48-53c0 20 12 33 32 33 41-3 63-29 60-74-43 2-92-5-92 41" id="aZ"/><path fill="#008a0e" d="M117-194c89-4 53 116 60 194h-32v-121c0-31-8-49-39-48C34-167 62-67 57 0H25l-1-190h30c1 10-1 24 2 32 11-22 29-35 61-36" id="ba"/><path fill="#008a0e" d="M96-169c-40 0-48 33-48 73s9 75 48 75c24 0 41-14 43-38l32 2c-6 37-31 61-74 61-59 0-76-41-82-99-10-93 101-131 147-64 4 7 5 14 7 22l-32 3c-4-21-16-35-41-35" id="bb"/><path fill="#008a0e" d="M106-169C34-169 62-67 57 0H25v-261h32l-1 103c12-21 28-36 61-36 89 0 53 116 60 194h-32v-121c2-32-8-49-39-48" id="bc"/><g id="A"><use transform="matrix(0.06172839506172839,0,0,0.06172839506172839,0,0)" xlink:href="#aZ"/><use transform="matrix(0.06172839506172839,0,0,0.06172839506172839,12.345679012345679,0)" xlink:href="#ba"/><use transform="matrix(0.06172839506172839,0,0,0.06172839506172839,24.691358024691358,0)" xlink:href="#bb"/><use transform="matrix(0.06172839506172839,0,0,0.06172839506172839,35.80246913580247,0)" xlink:href="#bc"/><use transform="matrix(0.06172839506172839,0,0,0.06172839506172839,48.148148148148145,0)" xlink:href="#aX"/></g><g id="B"><use transform="matrix(0.06172839506172839,0,0,0.06172839506172839,0,0)" xlink:href="#aP"/><use transform="matrix(0.06172839506172839,0,0,0.06172839506172839,12.345679012345679,0)" xlink:href="#aQ"/></g><path fill="#008a0e" d="M110-160c48 1 74 30 74 79 0 53-28 85-80 85-65 0-83-55-86-122-5-90 50-162 133-122 14 7 22 21 27 39l-31 6c-5-40-67-38-82-6-9 19-15 44-15 74 11-20 30-34 60-33zm-7 138c34 0 49-23 49-58s-16-56-50-56c-29 0-50 16-49 49 1 36 15 65 50 65" id="bd"/><path fill="#008a0e" d="M101-251c68 0 85 55 85 127S166 4 100 4C33 4 14-52 14-124c0-73 17-127 87-127zm-1 229c47 0 54-49 54-102s-4-102-53-102c-51 0-55 48-55 102 0 53 5 102 54 102" id="be"/><g id="C"><use transform="matrix(0.06172839506172839,0,0,0.06172839506172839,0,0)" xlink:href="#aO"/><use transform="matrix(0.06172839506172839,0,0,0.06172839506172839,12.345679012345679,0)" xlink:href="#bd"/><use transform="matrix(0.06172839506172839,0,0,0.06172839506172839,24.691358024691358,0)" xlink:href="#be"/></g><g id="D"><use transform="matrix(0.06172839506172839,0,0,0.06172839506172839,0,0)" xlink:href="#bd"/><use transform="matrix(0.06172839506172839,0,0,0.06172839506172839,12.345679012345679,0)" xlink:href="#be"/></g><path fill="#008a0e" d="M155-56V0h-30v-56H8v-25l114-167h33v167h35v25h-35zm-30-156c-27 46-58 90-88 131h88v-131" id="bf"/><g id="E"><use transform="matrix(0.06172839506172839,0,0,0.06172839506172839,0,0)" xlink:href="#aO"/><use transform="matrix(0.06172839506172839,0,0,0.06172839506172839,12.345679012345679,0)" xlink:href="#bd"/><use transform="matrix(0.06172839506172839,0,0,0.06172839506172839,24.691358024691358,0)" xlink:href="#bf"/></g><g id="F"><use transform="matrix(0.06172839506172839,0,0,0.06172839506172839,0,0)" xlink:href="#bd"/><use transform="matrix(0.06172839506172839,0,0,0.06172839506172839,12.345679012345679,0)" xlink:href="#bf"/></g><path fill="#4c535d" d="M87 75C49 33 22-17 22-94c0-76 28-126 65-167h31c-38 41-64 92-64 168S80 34 118 75H87" id="bg"/><use transform="matrix(0.055555555555555546,0,0,0.055555555555555546,0,0)" xlink:href="#bg" id="G"/><path fill="#4c535d" d="M141-36C126-15 110 5 73 4 37 3 15-17 15-53c-1-64 63-63 125-63 3-35-9-54-41-54-24 1-41 7-42 31l-33-3c5-37 33-52 76-52 45 0 72 20 72 64v82c-1 20 7 32 28 27v20c-31 9-61-2-59-35zM48-53c0 20 12 33 32 33 41-3 63-29 60-74-43 2-92-5-92 41" id="bh"/><path fill="#4c535d" d="M145-31C134-9 116 4 85 4 32 4 16-35 15-94c0-59 17-99 70-100 32-1 48 14 60 33 0-11-1-24 2-32h30l-1 268h-32zM93-21c41 0 51-33 51-76s-8-73-50-73c-40 0-46 35-46 75s5 74 45 74" id="bi"/><path fill="#4c535d" d="M84 4C-5 8 30-112 23-190h32v120c0 31 7 50 39 49 72-2 45-101 50-169h31l1 190h-30c-1-10 1-25-2-33-11 22-28 36-60 37" id="bj"/><path fill="#4c535d" d="M100-194c63 0 86 42 84 106H49c0 40 14 67 53 68 26 1 43-12 49-29l28 8c-11 28-37 45-77 45C44 4 14-33 15-96c1-61 26-98 85-98zm52 81c6-60-76-77-97-28-3 7-6 17-6 28h103" id="bk"/><path fill="#4c535d" d="M24 0v-261h32V0H24" id="bl"/><path fill="#4c535d" d="M135-143c-3-34-86-38-87 0 15 53 115 12 119 90S17 21 10-45l28-5c4 36 97 45 98 0-10-56-113-15-118-90-4-57 82-63 122-42 12 7 21 19 24 35" id="bm"/><g id="H"><use transform="matrix(0.055555555555555546,0,0,0.055555555555555546,0,0)" xlink:href="#bh"/><use transform="matrix(0.055555555555555546,0,0,0.055555555555555546,11.111111111111109,0)" xlink:href="#bi"/><use transform="matrix(0.055555555555555546,0,0,0.055555555555555546,22.222222222222218,0)" xlink:href="#bj"/><use transform="matrix(0.055555555555555546,0,0,0.055555555555555546,33.33333333333333,0)" xlink:href="#bk"/><use transform="matrix(0.055555555555555546,0,0,0.055555555555555546,44.444444444444436,0)" xlink:href="#bl"/><use transform="matrix(0.055555555555555546,0,0,0.055555555555555546,48.83333333333332,0)" xlink:href="#bl"/><use transform="matrix(0.055555555555555546,0,0,0.055555555555555546,53.22222222222221,0)" xlink:href="#bh"/><use transform="matrix(0.055555555555555546,0,0,0.055555555555555546,64.33333333333331,0)" xlink:href="#bm"/></g><path fill="#4c535d" d="M96-169c-40 0-48 33-48 73s9 75 48 75c24 0 41-14 43-38l32 2c-6 37-31 61-74 61-59 0-76-41-82-99-10-93 101-131 147-64 4 7 5 14 7 22l-32 3c-4-21-16-35-41-35" id="bn"/><path fill="#4c535d" d="M100-194c62-1 85 37 85 99 1 63-27 99-86 99S16-35 15-95c0-66 28-99 85-99zM99-20c44 1 53-31 53-75 0-43-8-75-51-75s-53 32-53 75 10 74 51 75" id="bo"/><path fill="#4c535d" d="M117-194c89-4 53 116 60 194h-32v-121c0-31-8-49-39-48C34-167 62-67 57 0H25l-1-190h30c1 10-1 24 2 32 11-22 29-35 61-36" id="bp"/><g id="I"><use transform="matrix(0.055555555555555546,0,0,0.055555555555555546,0,0)" xlink:href="#bn"/><use transform="matrix(0.055555555555555546,0,0,0.055555555555555546,9.999999999999998,0)" xlink:href="#bo"/><use transform="matrix(0.055555555555555546,0,0,0.055555555555555546,21.111111111111107,0)" xlink:href="#bp"/></g><path fill="#4c535d" d="M210-169c-67 3-38 105-44 169h-31v-121c0-29-5-50-35-48C34-165 62-65 56 0H25l-1-190h30c1 10-1 24 2 32 10-44 99-50 107 0 11-21 27-35 58-36 85-2 47 119 55 194h-31v-121c0-29-5-49-35-48" id="bq"/><g id="J"><use transform="matrix(0.055555555555555546,0,0,0.055555555555555546,0,0)" xlink:href="#bq"/><use transform="matrix(0.055555555555555546,0,0,0.055555555555555546,16.611111111111107,0)" xlink:href="#bk"/><use transform="matrix(0.055555555555555546,0,0,0.055555555555555546,27.722222222222214,0)" xlink:href="#bp"/><use transform="matrix(0.055555555555555546,0,0,0.055555555555555546,38.83333333333332,0)" xlink:href="#bo"/><use transform="matrix(0.055555555555555546,0,0,0.055555555555555546,49.94444444444443,0)" xlink:href="#bm"/></g><path fill="#4c535d" d="M85-194c31 0 48 13 60 33l-1-100h32l1 261h-30c-2-10 0-23-3-31C134-8 116 4 85 4 32 4 16-35 15-94c0-66 23-100 70-100zm9 24c-40 0-46 34-46 75 0 40 6 74 45 74 42 0 51-32 51-76 0-42-9-74-50-73" id="br"/><path fill="#4c535d" d="M115-194c55 1 70 41 70 98S169 2 115 4C84 4 66-9 55-30l1 105H24l-1-265h31l2 30c10-21 28-34 59-34zm-8 174c40 0 45-34 45-75s-6-73-45-74c-42 0-51 32-51 76 0 43 10 73 51 73" id="bs"/><path fill="#4c535d" d="M114-163C36-179 61-72 57 0H25l-1-190h30c1 12-1 29 2 39 6-27 23-49 58-41v29" id="bt"/><path fill="#4c535d" d="M24-231v-30h32v30H24zM24 0v-190h32V0H24" id="bu"/><g id="K"><use transform="matrix(0.055555555555555546,0,0,0.055555555555555546,0,0)" xlink:href="#br"/><use transform="matrix(0.055555555555555546,0,0,0.055555555555555546,11.111111111111109,0)" xlink:href="#bk"/><use transform="matrix(0.055555555555555546,0,0,0.055555555555555546,22.222222222222218,0)" xlink:href="#bm"/><use transform="matrix(0.055555555555555546,0,0,0.055555555555555546,32.222222222222214,0)" xlink:href="#bs"/><use transform="matrix(0.055555555555555546,0,0,0.055555555555555546,43.33333333333332,0)" xlink:href="#bk"/><use transform="matrix(0.055555555555555546,0,0,0.055555555555555546,54.44444444444443,0)" xlink:href="#bt"/><use transform="matrix(0.055555555555555546,0,0,0.055555555555555546,61.05555555555553,0)" xlink:href="#br"/><use transform="matrix(0.055555555555555546,0,0,0.055555555555555546,72.16666666666664,0)" xlink:href="#bu"/><use transform="matrix(0.055555555555555546,0,0,0.055555555555555546,76.55555555555553,0)" xlink:href="#bn"/><use transform="matrix(0.055555555555555546,0,0,0.055555555555555546,86.55555555555553,0)" xlink:href="#bu"/><use transform="matrix(0.055555555555555546,0,0,0.055555555555555546,90.94444444444441,0)" xlink:href="#bo"/></g><g id="L"><use transform="matrix(0.055555555555555546,0,0,0.055555555555555546,0,0)" xlink:href="#bi"/><use transform="matrix(0.055555555555555546,0,0,0.055555555555555546,11.111111111111109,0)" xlink:href="#bj"/><use transform="matrix(0.055555555555555546,0,0,0.055555555555555546,22.222222222222218,0)" xlink:href="#bk"/></g><g id="M"><use transform="matrix(0.055555555555555546,0,0,0.055555555555555546,0,0)" xlink:href="#bk"/><use transform="matrix(0.055555555555555546,0,0,0.055555555555555546,11.111111111111109,0)" xlink:href="#bl"/></g><path fill="#4c535d" d="M59-47c-2 24 18 29 38 22v24C64 9 27 4 27-40v-127H5v-23h24l9-43h21v43h35v23H59v120" id="bv"/><g id="N"><use transform="matrix(0.055555555555555546,0,0,0.055555555555555546,0,0)" xlink:href="#bn"/><use transform="matrix(0.055555555555555546,0,0,0.055555555555555546,9.999999999999998,0)" xlink:href="#bo"/><use transform="matrix(0.055555555555555546,0,0,0.055555555555555546,21.111111111111107,0)" xlink:href="#bt"/><use transform="matrix(0.055555555555555546,0,0,0.055555555555555546,27.722222222222218,0)" xlink:href="#bv"/><use transform="matrix(0.055555555555555546,0,0,0.055555555555555546,33.27777777777777,0)" xlink:href="#bk"/></g><g id="O"><use transform="matrix(0.055555555555555546,0,0,0.055555555555555546,0,0)" xlink:href="#bq"/><use transform="matrix(0.055555555555555546,0,0,0.055555555555555546,16.611111111111107,0)" xlink:href="#bu"/><use transform="matrix(0.055555555555555546,0,0,0.055555555555555546,20.999999999999996,0)" xlink:href="#bp"/><use transform="matrix(0.055555555555555546,0,0,0.055555555555555546,32.11111111111111,0)" xlink:href="#bu"/><use transform="matrix(0.055555555555555546,0,0,0.055555555555555546,36.49999999999999,0)" xlink:href="#bq"/><use transform="matrix(0.055555555555555546,0,0,0.055555555555555546,53.1111111111111,0)" xlink:href="#bo"/></g><path fill="#4c535d" d="M33-261c38 41 65 92 65 168S71 34 33 75H2C39 34 66-17 66-93S39-220 2-261h31" id="bw"/><use transform="matrix(0.055555555555555546,0,0,0.055555555555555546,0,0)" xlink:href="#bw" id="P"/><path fill="#c00" d="M182-182c0 78-84 86-111 141h115V0H12c-6-101 99-100 120-180 1-22-12-31-33-32-23 0-32 14-35 34l-49-3c5-45 32-70 84-70 51 0 83 22 83 69" id="bx"/><use transform="matrix(0.04320987654320986,0,0,0.04320987654320986,0,0)" xlink:href="#bx" id="Q"/></defs></g></svg>