<svg xmlns="http://www.w3.org/2000/svg" xmlns:xlink="http://www.w3.org/1999/xlink" xmlns:lucid="lucid" width="1436.4" height="876.83"><g transform="translate(-189.3333333333332 -160)" lucid:page-tab-id="0vP.EXXPKA.O"><path d="M1106.95 446.13l298.5-40.08" stroke="#0e4180" stroke-width="4" fill="none"/><path d="M1107.26 448.1l-1.2.17-.08-.15-1.86-3.16-.3-.43 2.9-.4z" stroke="#0e4180" stroke-width=".05" fill="#0e4180"/><path d="M1421.56 403.9l-13.53 6.48-1.23-9.2z" stroke="#0e4180" stroke-width="4" fill="#0e4180"/><path d="M1106.46 562.4l300.03-104.3" stroke="#0e4180" stroke-width="4" fill="none"/><path d="M1107.17 564.28l-1.56.54-1.48-2.53-.68-.96 2.4-.84z" stroke="#0e4180" stroke-width=".05" fill="#0e4180"/><path d="M1421.86 452.77l-11.95 9.06-3.04-8.75z" stroke="#0e4180" stroke-width="4" fill="#0e4180"/><path d="M1100.13 672.98l8.83-4.86m8.83-4.86l17.65-9.72m8.83-4.86l17.66-9.7m8.83-4.87l17.66-9.7m8.83-4.87l17.66-9.72m8.83-4.85l17.66-9.72m8.84-4.86l17.66-9.72m8.83-4.86l17.66-9.73m8.82-4.86l17.66-9.7m8.83-4.87l17.67-9.72m8.83-4.85l17.66-9.72m8.83-4.86l17.66-9.72m8.83-4.86l8.82-4.87" stroke="#0e4180" stroke-width="2" fill="none"/><path d="M1100.63 673.85l-.7.4-.8-.9-.62-.62 1.17-.64z" stroke="#0e4180" stroke-width=".05" fill="#0e4180"/><path d="M1431.4 490.67l-10.27 10.94-4.47-8.1z" stroke="#0e4180" stroke-width="2" fill="#0e4180"/><path d="M1098.35 788.53l8.2-6.33m8.18-6.34l16.37-12.67m8.2-6.34l16.36-12.67m8.2-6.34l16.36-12.67m8.2-6.35l16.36-12.67m8.2-6.33l16.36-12.67m8.2-6.34l16.36-12.67m8.2-6.33l16.36-12.67m8.2-6.34l16.36-12.66m8.2-6.34l16.36-12.67m8.2-6.33l16.36-12.67m8.2-6.34l16.36-12.67m8.2-6.33l16.36-12.67m8.2-6.34l16.36-12.66m8.2-6.33l8.17-6.33" stroke="#0e4180" stroke-width="2" fill="none"/><path d="M1099 789.3l-.7.55-1.46-1.4.92-.72z" stroke="#0e4180" stroke-width=".05" fill="#0e4180"/><path d="M1454.27 513.13l-8.45 12.4-5.67-7.33z" stroke="#0e4180" stroke-width="2" fill="#0e4180"/><path d="M1108.28 465.16c0 23.56-24.77 42.67-55.33 42.67s-55.33-19.1-55.33-42.67 24.77-42.67 55.33-42.67 55.33 19.1 55.33 42.66z" stroke="#8f5f13" stroke-width="4" fill="#df9d33"/><use xlink:href="#a" transform="matrix(1,0,0,1,1002.6170683517457,427.49239543007343) translate(21.750000000000007 42.125)"/><path d="M1108.28 582.5c0 23.56-24.77 42.66-55.33 42.66s-55.33-19.1-55.33-42.67 24.77-42.67 55.33-42.67 55.33 19.1 55.33 42.66z" stroke="#8f5f13" stroke-width="4" fill="#df9d33"/><use xlink:href="#b" transform="matrix(1,0,0,1,1002.6170683517457,544.825728763368) translate(15.611111111111121 42.125)"/><path d="M1108.28 699.83c0 23.56-24.77 42.66-55.33 42.66s-55.33-19.1-55.33-42.67 24.77-42.67 55.33-42.67 55.33 19.1 55.33 42.67z" stroke="#8f5f13" stroke-width="4" fill="#df9d33"/><use xlink:href="#c" transform="matrix(1,0,0,1,1002.6170683517457,662.1590620966625) translate(2.25 42.125)"/><path d="M1108.28 817.16c0 23.56-24.77 42.67-55.33 42.67s-55.33-19.1-55.33-42.67 24.77-42.67 55.33-42.67 55.33 19.1 55.33 42.66z" stroke="#8f5f13" stroke-width="4" fill="#df9d33"/><use xlink:href="#d" transform="matrix(1,0,0,1,1002.6170683517457,779.4923954299571) translate(15.555555555555557 42.125)"/><path d="M1524.45 386.97a6 6 0 0 1 6 6v71.36c0 27.6-22.38 50-50 50-27.6 0-49.98-22.4-49.98-50v-71.36a6 6 0 0 1 6-6z" stroke="#0e4180" stroke-width="5" fill="#6db1ff"/><use xlink:href="#e" transform="matrix(1,-2.4492935982947064e-16,2.4492935982947064e-16,1,1435.4714008232838,391.968115681479) translate(36.358024691358025 65.45138888888889)"/><path d="M1524.45 577.48a6 6 0 0 1 6 6v71.37c0 27.6-22.38 50-50 50-27.6 0-49.98-22.4-49.98-50v-71.37a6 6 0 0 1 6-6z" stroke="#008a0e" stroke-width="5" fill="#c3f7c8"/><use xlink:href="#f" transform="matrix(1,-2.4492935982947064e-16,2.4492935982947064e-16,1,1435.471400823284,582.4824105118446) translate(36.358024691358025 65.45138888888889)"/><path d="M1524.45 770.9a6 6 0 0 1 6 6v71.37c0 27.6-22.38 50-50 50-27.6 0-49.98-22.4-49.98-50V776.9a6 6 0 0 1 6-6z" stroke="#d916a8" stroke-width="5" fill="#ffd6f5"/><use xlink:href="#g" transform="matrix(1,-2.4492935982947064e-16,2.4492935982947064e-16,1,1435.471400823284,775.9027348340333) translate(36.358024691358025 65.45138888888889)"/><path d="M932.95 962.83a6 6 0 0 1 6-6h228a6 6 0 0 1 6 6v48a6 6 0 0 1-6 6h-228a6 6 0 0 1-6-6z" stroke="#000" stroke-opacity="0" stroke-width="3" fill="#fff" fill-opacity="0"/><use xlink:href="#h" transform="matrix(1,0,0,1,937.950401685079,961.8305175547255) translate(74.32098765432099 30.27777777777778)"/><path d="M1365.73 962.83a6 6 0 0 1 6-6h228a6 6 0 0 1 6 6v48a6 6 0 0 1-6 6h-228a6 6 0 0 1-6-6z" stroke="#000" stroke-opacity="0" stroke-width="3" fill="#fff" fill-opacity="0"/><use xlink:href="#i" transform="matrix(1,0,0,1,1370.733881971049,961.8305175547255) translate(81.69753086419753 30.27777777777778)"/><path d="M1104.67 487.93l301.7 99.03" stroke="#008a0e" stroke-width="4" fill="none"/><path d="M1105.34 486.05l-1.25 3.8-2.67-.88 1.34-1.66 1.15-1.72z" stroke="#008a0e" stroke-width=".05" fill="#008a0e"/><path d="M1421.82 592.03l-15-.04 2.9-8.82z" stroke="#008a0e" stroke-width="4" fill="#008a0e"/><path d="M1112.25 582.86l293.36 54.17" stroke="#008a0e" stroke-width="4" fill="none"/><path d="M1112.66 580.9l-.72 3.93-1.75-.32.08-1.98-.02-1.3-.06-.78z" stroke="#008a0e" stroke-width=".05" fill="#008a0e"/><path d="M1421.6 639.98l-14.86 1.97 1.68-9.12z" stroke="#008a0e" stroke-width="4" fill="#008a0e"/><path d="M1112.28 699.65l295.83-26.07" stroke="#008a0e" stroke-width="4" fill="none"/><path d="M1112.5 701.64l-2.3.2.08-2-.02-1.27-.06-.74 1.95-.18z" stroke="#008a0e" stroke-width=".05" fill="#008a0e"/><path d="M1424.3 672.15l-13.8 5.87-.8-9.24z" stroke="#008a0e" stroke-width="4" fill="#008a0e"/><path d="M1074.72 508.2l335.6 272.66" stroke="#d916a8" stroke-width="4" fill="none"/><path d="M1076.02 506.67l-2.52 3.1-2.72-2.2 3.72-1 .97-.35z" stroke="#d916a8" stroke-width=".05" fill="#d916a8"/><path d="M1422.95 791.12l-14-5.4 5.85-7.2z" stroke="#d916a8" stroke-width="4" fill="#d916a8"/><path d="M1098.9 612l310.24 209.84" stroke="#d916a8" stroke-width="4" fill="none"/><path d="M1100.05 610.38l-2.24 3.32-2.14-1.46 1.57-1.35 1.4-1.47z" stroke="#d916a8" stroke-width=".05" fill="#d916a8"/><path d="M1422.6 830.95l-14.4-4.15 5.2-7.68z" stroke="#d916a8" stroke-width="4" fill="#d916a8"/><path d="M1092.5 498.65l7.7 6.2m7.7 6.2l15.42 12.4m7.7 6.2l15.42 12.42m7.7 6.2l15.42 12.4m7.7 6.2l15.43 12.4m7.7 6.22l15.4 12.4m7.7 6.2l15.43 12.4m7.7 6.2l15.42 12.4m7.7 6.2l15.42 12.4m7.7 6.2l15.43 12.42m7.7 6.2l15.42 12.4m7.7 6.2l15.42 12.4m7.7 6.22l15.42 12.4m7.7 6.2l15.42 12.4m7.7 6.2l7.72 6.2" stroke="#d916a8" stroke-width="2" fill="none"/><path d="M1093.14 497.9l-1.26 1.55-1-.82 1.67-1.2z" stroke="#d916a8" stroke-width=".05" fill="#d916a8"/><path d="M1428.1 768.72l-14.03-5.33 5.8-7.23z" stroke="#d916a8" stroke-width="2" fill="#d916a8"/><path d="M1085.47 620.28l8.43 5.87m8.43 5.88l16.85 11.74m8.43 5.88l16.87 11.75m8.43 5.87l16.85 11.75m8.43 5.87l16.86 11.74m8.42 5.88l16.86 11.75m8.43 5.87l16.85 11.75m8.43 5.86l16.86 11.75m8.4 5.9l16.87 11.73m8.43 5.88l16.85 11.76m8.43 5.87l16.86 11.75m8.43 5.87l16.85 11.75m8.43 5.88l16.86 11.74m8.43 5.88l8.43 5.87" stroke="#d916a8" stroke-width="2" fill="none"/><path d="M1086.07 619.47l-1.15 1.64-1.3-.9 1.52-.73.5-.3z" stroke="#d916a8" stroke-width=".05" fill="#d916a8"/><path d="M1426.7 858.1l-14.37-4.35 5.3-7.6z" stroke="#d916a8" stroke-width="2" fill="#d916a8"/><path d="M1096.92 729.7l9.17 4.1m9.16 4.14l18.34 8.25m9.16 4.12l18.34 8.25m9.17 4.13l18.34 8.25m9.17 4.12l18.34 8.26m9.18 4.12l18.33 8.25m9.18 4.13l18.34 8.25m9.17 4.13l18.32 8.26m9.17 4.13l18.33 8.24m9.17 4.12l18.33 8.25m9.17 4.14l18.34 8.25m9.17 4.12l18.34 8.25m9.17 4.13l9.18 4.12" stroke="#d916a8" stroke-width="2" fill="none"/><path d="M1097.36 728.8l-.82 1.8-1.36-.6 1.67-1.44z" stroke="#d916a8" stroke-width=".05" fill="#d916a8"/><path d="M1440.9 884.5l-14.9-1.64 3.8-8.45z" stroke="#d916a8" stroke-width="2" fill="#d916a8"/><path d="M620.88 532.28a6 6 0 0 1 6-6h149.8a6 6 0 0 1 6 6v335.1a6 6 0 0 1-6 6h-149.8a6 6 0 0 1-6-6z" stroke="#cc4e00" stroke-width="3" fill="#fff"/><use xlink:href="#j" transform="matrix(1,0,0,1,625.8806281639834,531.2754513246288) translate(13.777777777777771 170.93402777777777)"/><path d="M785.47 564.26l191.5-90.3" stroke="#8f5f13" stroke-width="3" fill="none"/><path d="M786.14 565.6l-2.03.96v-3.32l.76-.35z" stroke="#8f5f13" stroke-width=".05" fill="#8f5f13"/><path d="M991.23 467.23L980.3 477.5l-3.95-8.38z" stroke="#8f5f13" stroke-width="3" fill="#8f5f13"/><path d="M785.58 638.27l190.1-50.48" stroke="#8f5f13" stroke-width="3" fill="none"/><path d="M786 639.7l-1.87.5v-3.1l1.1-.3z" stroke="#8f5f13" stroke-width=".05" fill="#8f5f13"/><path d="M990.93 583.74l-12.6 8.14-2.38-8.96z" stroke="#8f5f13" stroke-width="3" fill="#8f5f13"/><path d="M785.62 748.06l189.9-43.62" stroke="#8f5f13" stroke-width="3" fill="none"/><path d="M786 749.52l-1.85.42v-3.08l1.17-.27z" stroke="#8f5f13" stroke-width=".05" fill="#8f5f13"/><path d="M990.9 700.9L978 708.63l-2.08-9.03z" stroke="#8f5f13" stroke-width="3" fill="#8f5f13"/><path d="M785.67 823.9L975 817.83" stroke="#8f5f13" stroke-width="3" fill="none"/><path d="M785.76 825.4l-1.6.06v-3l1.5-.05z" stroke="#8f5f13" stroke-width=".05" fill="#8f5f13"/><path d="M990.77 817.32l-14.1 5.1-.3-9.28z" stroke="#8f5f13" stroke-width="3" fill="#8f5f13"/><path d="M753.17 388.72a10.05 10.05 0 0 1-8.85 5.28H637.06c-8.94 0-16.18-26.86-16.18-60s7.24-60 16.18-60h107.26a10.05 10.05 0 0 1 8.85 5.28l26.66 49.44a11.12 11.12 0 0 1 0 10.56z" stroke="#df9d33" stroke-width="3" fill="#fff"/><use xlink:href="#k" transform="matrix(1,-2.4492935982947064e-16,2.4492935982947064e-16,1,625.8806281639831,279.00000000000006) translate(32.617283950617285 59.02777777777778)"/><path d="M769.67 363.3l7.48 5.97m7.48 5.98l14.95 11.97m7.48 5.98L822 405.17m7.5 5.98l14.95 11.97m7.47 5.98l14.96 11.96m7.48 6L889.3 459m7.5 6l14.94 11.96m7.48 5.98l14.96 11.97m7.47 6l14.96 11.96m7.5 5.98l14.94 11.96m7.48 6l7.47 5.97" stroke="#df9d33" stroke-width="2" fill="none"/><path d="M770.32 362.52l-1.25 1.57-.66-.54.97-1.8z" stroke="#df9d33" stroke-width=".05" fill="#df9d33"/><path d="M1005.9 552.3L991.9 547l5.8-7.23z" stroke="#df9d33" stroke-width="2" fill="#df9d33"/><path d="M771.2 307.55l.57-.47 1.27-1.18 1.2-1.24 1.14-1.3 1.08-1.36 1.02-1.44.45-.7m4.22-9.33l.08-.25.53-2.02.44-2.12.35-2.23.23-2.3.13-2.43v-2.53l-.13-2.62-.28-2.7-.2-1.12m-2.4-9.96l-.18-.5-1.14-3.03-1.33-3.03-1.52-3.05-1.72-3.03-1.9-3.03-1.73-2.42m-6.65-7.8l-1.28-1.32-2.9-2.7-3.12-2.6-3.3-2.48-3.53-2.37-1.98-1.18m-9.08-4.75l-.86-.4-4.45-1.8-4.7-1.66-5.02-1.47-2.5-.63-1.94-.4m-10.13-1.6l-3.77-.36-5.77-.22-5.83.1-5.14.38m-10.14 1.5l-1.27.24-4.9 1.2-4.55 1.4-4.17 1.52-3.78 1.63-.78.4m-8.88 5.13l-2.27 1.66-2.32 1.88-2.1 1.9-1.88 1.95-1.7 1.97-1.56 2-1.4 2.02-.83 1.36m-4.18 9.34l-.04.12-.66 2.36-.53 2.47-.42 2.58-.27 2.53" stroke="#df9d33" stroke-width="2" stroke-linejoin="round" fill="none"/><path d="M771.87 308.3l-.95.8-.97-1.8.63-.53z" stroke="#df9d33" stroke-width=".05" fill="#df9d33"/><path d="M632.1 271.22l-5.82-13.82 9.23-.8z" stroke="#df9d33" stroke-width="2" fill="#df9d33"/><path d="M783.64 333.8l9.7-2.07m9.67-2.07l19.38-4.13m9.68-2.06l19.37-4.13m9.7-2.07l19.35-4.13m9.7-2.06l19.36-4.13m9.68-2.06l9.68-2.08" stroke="#df9d33" stroke-width="2" fill="none"/><path d="M783.88 334.76l-1.26.27.05-1.03-.05-1 .84-.2z" stroke="#df9d33" stroke-width=".05" fill="#df9d33"/><path d="M943.84 299.64l-13 7.5-1.92-9.06z" stroke="#df9d33" stroke-width="2" fill="#df9d33"/><path d="M603.5 186a6 6 0 0 1 6-6h181a6 6 0 0 1 6 6v20a6 6 0 0 1-6 6h-181a6 6 0 0 1-6-6z" stroke="#000" stroke-opacity="0" stroke-width="3" fill="#fff" fill-opacity="0"/><use xlink:href="#l" transform="matrix(1,0,0,1,608.5,185) translate(7.62345679012347 15.597222222222221)"/><use xlink:href="#m" transform="matrix(1,0,0,1,608.5,185) translate(58.882716049382715 15.597222222222221)"/><use xlink:href="#n" transform="matrix(1,0,0,1,608.5,185) translate(83.57407407407408 15.597222222222221)"/><path d="M850.5 273a6 6 0 0 1 6-6h181a6 6 0 0 1 6 6v20a6 6 0 0 1-6 6h-181a6 6 0 0 1-6-6z" stroke="#000" stroke-opacity="0" stroke-width="3" fill="#fff" fill-opacity="0"/><use xlink:href="#o" transform="matrix(1,0,0,1,855.5,272) translate(4.611111111111114 15.597222222222221)"/><use xlink:href="#m" transform="matrix(1,0,0,1,855.5,272) translate(54.981481481481474 15.597222222222221)"/><use xlink:href="#p" transform="matrix(1,0,0,1,855.5,272) translate(79.67283950617283 15.597222222222221)"/><path d="M286.44 657.2H265.7c-.95 0-1.7-.77-1.7-1.7v-2.55c0-9.5 6.23-17.44 15.5-19.67.4-.1.8-.05 1.2.17 2.73 1.46 5.68 1.46 8.4 0 .4-.22.8-.26 1.22-.17 2.43.6 4.43 1.46 6.5 2.85l-1.9 2.83c-1.55-1-3-1.68-4.8-2.16-3.45 1.58-7 1.58-10.43 0-7.4 2.06-12.3 8.5-12.3 16.15v.84h19.04z" stroke="#fff" stroke-opacity="0" fill="#232f3e"/><path d="M284.88 637.87c-6.17 0-11.17-5-11.17-11.15s5-11.14 11.18-11.14c6.16-.07 11.2 4.88 11.26 11 .04 4.27-2.1 7.9-5.86 9.9-1.72.97-3.4 1.4-5.4 1.4zm0-18.9c-4.3 0-7.83 3.45-7.85 7.75 0 2.93 1.48 5.42 4.06 6.8 2.43 1.32 5.12 1.32 7.57 0 2.6-1.4 4.1-3.94 4.06-6.9-.05-4.27-3.57-7.68-7.85-7.63zM342.32 657.2h-20.75v-3.4h19.04v-.85c0-7.66-4.9-14.1-12.25-16.16-3.45 1.6-7 1.6-10.46 0-1.82.5-3.3 1.2-4.84 2.27l-1.94-2.8c2.07-1.44 4.08-2.35 6.5-2.97.44-.1.86-.05 1.26.16 2.7 1.46 5.7 1.46 8.42 0 .4-.2.8-.26 1.2-.16 9.25 2.22 15.5 10.17 15.5 19.65v2.54c0 .93-.76 1.67-1.68 1.7z" stroke="#fff" stroke-opacity="0" fill="#232f3e"/><path d="M323.08 637.87c-6.2 0-11.23-5.05-11.23-11.25s5.06-11.2 11.28-11.2c6.2 0 11.23 5.04 11.23 11.24 0 4.23-2.14 7.82-5.85 9.84-1.75.94-3.44 1.37-5.42 1.37zm0-18.9c-4.3 0-7.8 3.45-7.83 7.76-.02 2.92 1.46 5.4 4.05 6.78 2.43 1.34 5.13 1.34 7.6 0 2.62-1.38 4.13-3.94 4.08-6.93-.1-4.27-3.62-7.68-7.9-7.6zM331.2 695.4h-54.46c-.92 0-1.67-.74-1.67-1.68v-3.62c-.06-13.08 8.6-24.08 21.32-27.17.46-.13.86-.07 1.27.13 4.04 2.18 8.5 2.18 12.6 0 .34-.2.75-.26 1.2-.13 12.78 3.06 21.45 14.06 21.4 27.17v3.62c0 .94-.76 1.7-1.68 1.7zm-52.72-3.38h50.97v-1.92c0-11.26-7.28-20.73-18.2-23.66-4.8 2.3-9.83 2.3-14.62 0-10.93 2.93-18.15 12.4-18.15 23.66z" stroke="#fff" stroke-opacity="0" fill="#232f3e"/><path d="M304.02 668.05c-2.7 0-5-.58-7.4-1.87-7.4-4.06-10.13-13.33-6.1-20.76 4.1-7.4 13.38-10.13 20.83-6.1 7.42 4.08 10.15 13.35 6.1 20.78-1.47 2.7-3.4 4.62-6.1 6.08-2.36 1.3-4.66 1.87-7.33 1.87zm0-26.76c-4.44-.07-8.28 2.16-10.42 6.07-3.07 5.66-.98 12.76 4.7 15.85 3.67 1.96 7.7 1.96 11.4 0 3.95-2.14 6.22-5.97 6.16-10.43-.1-6.44-5.4-11.6-11.84-11.5z" stroke="#fff" stroke-opacity="0" fill="#232f3e"/><path d="M342.78 657.2h-39.72c-.68 0-1.23-.55-1.23-1.24v-2.64c-.04-9.54 6.3-17.57 15.56-19.82.33-.1.63-.05.92.1 2.95 1.58 6.2 1.58 9.2 0 .25-.15.54-.2.88-.1 9.32 2.23 15.64 10.25 15.6 19.82v2.64c0 .7-.55 1.23-1.22 1.23zm-38.46-2.48h37.2v-1.4c0-8.2-5.32-15.12-13.3-17.26-3.5 1.7-7.16 1.7-10.66 0-7.97 2.14-13.24 9.05-13.24 17.26z" stroke="#fff" stroke-opacity="0" stroke-width=".73" fill="#fff" fill-opacity="0"/><path d="M304.94 657.2h-39.72c-.67 0-1.22-.55-1.22-1.24v-2.64c-.04-9.54 6.28-17.57 15.56-19.82.34-.1.63-.05.93.1 2.94 1.58 6.2 1.58 9.18 0 .25-.15.55-.2.88-.1 9.32 2.23 15.65 10.25 15.6 19.82v2.64c0 .7-.54 1.23-1.22 1.23zm-38.45-2.48h37.18v-1.4c0-8.2-5.3-15.12-13.28-17.26-3.5 1.7-7.17 1.7-10.67 0-7.97 2.14-13.24 9.05-13.24 17.26z" stroke="#fff" stroke-opacity="0" stroke-width=".73" fill="#fff" fill-opacity="0"/><path d="M364.4 698.35h-20.75c-.95 0-1.7-.77-1.7-1.7v-2.54c0-9.48 6.23-17.43 15.48-19.66.43-.1.82-.05 1.22.17 2.72 1.47 5.67 1.47 8.4 0 .4-.2.78-.26 1.2-.16 2.44.6 4.44 1.46 6.5 2.85l-1.9 2.82c-1.54-1-2.98-1.68-4.8-2.16-3.43 1.58-6.98 1.58-10.42 0-7.38 2.06-12.27 8.5-12.27 16.15v.85h19.03z" stroke="#fff" stroke-opacity="0" fill="#232f3e"/><path d="M362.82 679.03c-6.17 0-11.17-5-11.17-11.15s5-11.14 11.17-11.14c6.17-.07 11.2 4.88 11.26 11 .04 4.27-2.1 7.9-5.85 9.9-1.73.97-3.4 1.4-5.4 1.4zm0-18.9c-4.3 0-7.83 3.45-7.85 7.75 0 2.92 1.48 5.42 4.06 6.8 2.44 1.32 5.14 1.32 7.58 0 2.6-1.4 4.12-3.94 4.07-6.9-.04-4.27-3.57-7.68-7.85-7.63zM420.27 698.35h-20.75v-3.4h19.04v-.84c0-7.65-4.9-14.1-12.27-16.15-3.46 1.6-7 1.6-10.47 0-1.8.5-3.28 1.2-4.83 2.28l-1.94-2.8c2.07-1.44 4.08-2.35 6.5-2.97.44-.1.87-.05 1.26.16 2.7 1.46 5.7 1.46 8.42 0 .4-.2.8-.26 1.22-.16 9.24 2.22 15.48 10.17 15.48 19.65v2.55c0 .93-.75 1.68-1.67 1.7z" stroke="#fff" stroke-opacity="0" fill="#232f3e"/><path d="M401.03 679.03c-6.22 0-11.24-5.05-11.24-11.25s5.06-11.2 11.27-11.2c6.2 0 11.23 5.04 11.23 11.24 0 4.22-2.13 7.82-5.85 9.84-1.75.94-3.44 1.37-5.42 1.37zm0-18.9c-4.3 0-7.82 3.45-7.84 7.76-.03 2.9 1.46 5.4 4.04 6.77 2.44 1.33 5.14 1.33 7.6 0 2.62-1.4 4.13-3.95 4.1-6.94-.1-4.27-3.64-7.68-7.9-7.6zM409.13 736.57H354.7c-.94 0-1.7-.75-1.7-1.7v-3.6c-.05-13.1 8.62-24.1 21.34-27.18.46-.14.86-.08 1.27.12 4.06 2.18 8.5 2.18 12.6 0 .36-.2.76-.26 1.22-.13 12.78 3.05 21.44 14.05 21.4 27.16v3.6c0 .96-.76 1.7-1.7 1.7zm-52.7-3.4h50.97v-1.9c0-11.27-7.3-20.74-18.2-23.67-4.8 2.3-9.83 2.3-14.63 0-10.92 2.93-18.15 12.4-18.15 23.66z" stroke="#fff" stroke-opacity="0" fill="#232f3e"/><path d="M381.97 709.2c-2.7 0-5-.57-7.4-1.86-7.4-4.06-10.14-13.33-6.1-20.76 4.08-7.4 13.37-10.13 20.82-6.1 7.4 4.08 10.14 13.34 6.1 20.78-1.48 2.7-3.4 4.62-6.1 6.08-2.37 1.3-4.67 1.87-7.33 1.87zm0-26.75c-4.45-.06-8.28 2.17-10.43 6.08-3.06 5.66-.98 12.76 4.7 15.85 3.67 1.95 7.72 1.95 11.4 0 3.95-2.14 6.22-5.97 6.16-10.43-.1-6.43-5.4-11.6-11.83-11.5z" stroke="#fff" stroke-opacity="0" fill="#232f3e"/><path d="M420.72 698.35H381c-.67 0-1.22-.54-1.22-1.23v-2.64c-.05-9.54 6.28-17.57 15.56-19.83.33-.1.63-.04.92.1 2.96 1.6 6.2 1.6 9.2 0 .25-.14.54-.2.88-.1 9.32 2.24 15.65 10.26 15.6 19.83v2.64c0 .7-.54 1.23-1.22 1.23zm-38.46-2.47h37.2v-1.4c0-8.2-5.32-15.12-13.3-17.26-3.5 1.68-7.16 1.68-10.66 0-7.96 2.14-13.24 9.05-13.24 17.26z" stroke="#fff" stroke-opacity="0" stroke-width=".73" fill="#fff" fill-opacity="0"/><path d="M382.9 698.35h-39.73c-.68 0-1.23-.54-1.23-1.23v-2.64c-.04-9.54 6.3-17.57 15.56-19.83.34-.1.64-.04.93.1 2.95 1.6 6.2 1.6 9.2 0 .25-.14.54-.2.88-.1 9.33 2.24 15.65 10.26 15.6 19.83v2.64c0 .7-.54 1.23-1.2 1.23zm-38.47-2.47h37.2v-1.4c0-8.2-5.32-15.12-13.3-17.26-3.5 1.68-7.16 1.68-10.66 0-7.97 2.14-13.24 9.05-13.24 17.26z" stroke="#fff" stroke-opacity="0" stroke-width=".73" fill="#fff" fill-opacity="0"/><path d="M284.4 746.03h-20.75c-.95 0-1.7-.77-1.7-1.7v-2.54c0-9.5 6.23-17.45 15.48-19.68.43-.1.82-.05 1.22.17 2.72 1.45 5.67 1.45 8.4 0 .4-.23.78-.28 1.2-.18 2.44.6 4.44 1.46 6.5 2.85l-1.9 2.83c-1.54-1-2.98-1.68-4.8-2.16-3.43 1.58-6.98 1.58-10.42 0-7.38 2.06-12.27 8.5-12.27 16.15v.83h19.03z" stroke="#fff" stroke-opacity="0" fill="#232f3e"/><path d="M282.82 726.7c-6.17 0-11.17-5-11.17-11.14 0-6.15 5-11.15 11.17-11.15 6.17-.05 11.2 4.9 11.26 11.03.04 4.25-2.1 7.9-5.85 9.9-1.73.95-3.4 1.38-5.4 1.38zm0-18.9c-4.3 0-7.83 3.46-7.85 7.76 0 2.92 1.48 5.42 4.06 6.8 2.44 1.32 5.14 1.32 7.58 0 2.6-1.4 4.12-3.95 4.07-6.9-.04-4.27-3.57-7.68-7.85-7.64zM340.27 746.03h-20.75v-3.4h19.04v-.84c0-7.67-4.9-14.1-12.27-16.17-3.46 1.6-7 1.6-10.47 0-1.8.5-3.28 1.2-4.83 2.27l-1.94-2.8c2.07-1.44 4.08-2.35 6.5-2.97.44-.1.87-.05 1.26.17 2.7 1.46 5.7 1.46 8.42 0 .4-.22.8-.26 1.22-.17 9.24 2.23 15.48 10.18 15.48 19.66v2.53c0 .93-.75 1.67-1.67 1.7z" stroke="#fff" stroke-opacity="0" fill="#232f3e"/><path d="M321.03 726.7c-6.22 0-11.24-5.05-11.24-11.25s5.06-11.2 11.27-11.2c6.2 0 11.23 5.05 11.23 11.25 0 4.22-2.13 7.82-5.85 9.84-1.75.94-3.44 1.37-5.42 1.37zm0-18.88c-4.3-.03-7.82 3.43-7.84 7.75-.03 2.92 1.46 5.4 4.04 6.78 2.44 1.32 5.14 1.32 7.6 0 2.62-1.4 4.13-3.95 4.1-6.94-.1-4.26-3.64-7.67-7.9-7.58zM329.13 784.24H274.7c-.94 0-1.7-.74-1.7-1.7v-3.6c-.05-13.08 8.62-24.08 21.34-27.18.46-.13.86-.06 1.27.13 4.06 2.17 8.5 2.17 12.6 0 .36-.2.76-.27 1.22-.14 12.78 3.06 21.44 14.06 21.4 27.18v3.6c0 .96-.76 1.7-1.7 1.7zm-52.7-3.38h50.97v-1.92c0-11.26-7.3-20.73-18.2-23.66-4.8 2.3-9.83 2.3-14.63 0-10.92 2.93-18.15 12.4-18.15 23.66z" stroke="#fff" stroke-opacity="0" fill="#232f3e"/><path d="M301.97 756.9c-2.7 0-5-.6-7.4-1.88-7.4-4.07-10.14-13.34-6.1-20.77 4.08-7.4 13.37-10.12 20.82-6.08 7.4 4.06 10.14 13.33 6.1 20.76-1.48 2.7-3.4 4.62-6.1 6.1-2.37 1.27-4.67 1.86-7.33 1.86zm0-26.78c-4.45-.06-8.28 2.17-10.43 6.1-3.06 5.65-.98 12.74 4.7 15.83 3.67 1.96 7.72 1.96 11.4 0 3.95-2.14 6.22-5.96 6.16-10.43-.1-6.42-5.4-11.6-11.83-11.5z" stroke="#fff" stroke-opacity="0" fill="#232f3e"/><path d="M340.72 746.03H301c-.67 0-1.22-.55-1.22-1.24v-2.64c-.05-9.55 6.28-17.57 15.56-19.83.33-.1.63-.05.92.1 2.96 1.6 6.2 1.6 9.2 0 .25-.15.54-.2.88-.1 9.32 2.23 15.65 10.26 15.6 19.83v2.63c0 .68-.54 1.23-1.22 1.23zm-38.46-2.47h37.2v-1.4c0-8.22-5.32-15.13-13.3-17.26-3.5 1.68-7.16 1.68-10.66 0-7.96 2.13-13.24 9.04-13.24 17.26z" stroke="#fff" stroke-opacity="0" stroke-width=".73" fill="#fff" fill-opacity="0"/><path d="M302.9 746.03h-39.73c-.68 0-1.23-.55-1.23-1.24v-2.64c-.04-9.55 6.3-17.57 15.56-19.83.34-.1.64-.05.93.1 2.95 1.6 6.2 1.6 9.2 0 .25-.15.54-.2.88-.1 9.33 2.23 15.65 10.26 15.6 19.83v2.63c0 .68-.54 1.23-1.2 1.23zm-38.47-2.47h37.2v-1.4c0-8.22-5.32-15.13-13.3-17.26-3.5 1.68-7.16 1.68-10.66 0-7.97 2.13-13.24 9.04-13.24 17.26z" stroke="#fff" stroke-opacity="0" stroke-width=".73" fill="#fff" fill-opacity="0"/><path d="M445.17 691.57h160.6M445.17 701.57h160.6M445.23 691.57h-2.56M445.23 701.57h-2.56M597.3 706.75l17.2-10.18-17.2-10.18" stroke="#cc4e00" stroke-width="5" fill="none"/><path d="M580 962.83a6 6 0 0 1 6-6h228a6 6 0 0 1 6 6v48a6 6 0 0 1-6 6H586a6 6 0 0 1-6-6z" stroke="#000" stroke-opacity="0" stroke-width="3" fill="#fff" fill-opacity="0"/><g><use xlink:href="#q" transform="matrix(1,0,0,1,585,961.8305175547255) translate(59.50617283950617 30.27777777777778)"/></g><path d="M209.33 968.5H445.1v36.66H209.34z" fill="#fff" fill-opacity="0"/><g><use xlink:href="#r" transform="matrix(1,0,0,1,214.3333333333332,973.4971842213922) translate(48.09259259259258 17.77777777777778)"/></g><defs><path fill="#333" d="M199 0l-22-63H83L61 0H9l90-248h61L250 0h-51zm-33-102l-36-108c-10 38-24 72-36 108h72" id="s"/><path fill="#333" d="M135-194c87-1 58 113 63 194h-50c-7-57 23-157-34-157-59 0-34 97-39 157H25l-1-190h47c2 12-1 28 3 38 12-26 28-41 61-42" id="t"/><path fill="#333" d="M115-3C79 11 28 4 28-45v-112H4v-33h27l15-45h31v45h36v33H77v99c-1 23 16 31 38 25v30" id="u"/><path fill="#333" d="M110-194c64 0 96 36 96 99 0 64-35 99-97 99-61 0-95-36-95-99 0-62 34-99 96-99zm-1 164c35 0 45-28 45-65 0-40-10-65-43-65-34 0-45 26-45 65 0 36 10 65 43 65" id="v"/><g id="a"><use transform="matrix(0.055555555555555546,0,0,0.055555555555555546,0,0)" xlink:href="#s"/><use transform="matrix(0.055555555555555546,0,0,0.055555555555555546,14.388888888888886,0)" xlink:href="#t"/><use transform="matrix(0.055555555555555546,0,0,0.055555555555555546,26.55555555555555,0)" xlink:href="#u"/><use transform="matrix(0.055555555555555546,0,0,0.055555555555555546,33.16666666666666,0)" xlink:href="#v"/><use transform="matrix(0.055555555555555546,0,0,0.055555555555555546,45.33333333333332,0)" xlink:href="#t"/></g><path fill="#333" d="M275 0h-61l-44-196L126 0H64L0-248h53L97-49l45-199h58l43 199 44-199h52" id="w"/><path fill="#333" d="M25-224v-37h50v37H25zM25 0v-190h50V0H25" id="x"/><path fill="#333" d="M25 0v-261h50V0H25" id="y"/><path fill="#333" d="M133-34C117-15 103 5 69 4 32 3 11-16 11-54c-1-60 55-63 116-61 1-26-3-47-28-47-18 1-26 9-28 27l-52-2c7-38 36-58 82-57s74 22 75 68l1 82c-1 14 12 18 25 15v27c-30 8-71 5-69-32zm-48 3c29 0 43-24 42-57-32 0-66-3-65 30 0 17 8 27 23 27" id="z"/><path fill="#333" d="M220-157c-53 9-28 100-34 157h-49v-107c1-27-5-49-29-50C55-147 81-57 75 0H25l-1-190h47c2 12-1 28 3 38 10-53 101-56 108 0 13-22 24-43 59-42 82 1 51 116 57 194h-49v-107c-1-25-5-48-29-50" id="A"/><g id="b"><use transform="matrix(0.055555555555555546,0,0,0.055555555555555546,0,0)" xlink:href="#w"/><use transform="matrix(0.055555555555555546,0,0,0.055555555555555546,18.66666666666666,0)" xlink:href="#x"/><use transform="matrix(0.055555555555555546,0,0,0.055555555555555546,24.222222222222214,0)" xlink:href="#y"/><use transform="matrix(0.055555555555555546,0,0,0.055555555555555546,29.777777777777764,0)" xlink:href="#y"/><use transform="matrix(0.055555555555555546,0,0,0.055555555555555546,35.33333333333332,0)" xlink:href="#x"/><use transform="matrix(0.055555555555555546,0,0,0.055555555555555546,40.88888888888888,0)" xlink:href="#z"/><use transform="matrix(0.055555555555555546,0,0,0.055555555555555546,51.999999999999986,0)" xlink:href="#A"/></g><path fill="#333" d="M67-125c0 53 21 87 73 88 37 1 54-22 65-47l45 17C233-25 199 4 140 4 58 4 20-42 15-125 8-235 124-281 211-232c18 10 29 29 36 50l-46 12c-8-25-30-41-62-41-52 0-71 34-72 86" id="B"/><path fill="#333" d="M185-48c-13 30-37 53-82 52C43 2 14-33 14-96s30-98 90-98c62 0 83 45 84 108H66c0 31 8 55 39 56 18 0 30-7 34-22zm-45-69c5-46-57-63-70-21-2 6-4 13-4 21h74" id="C"/><path fill="#333" d="M135-150c-39-12-60 13-60 57V0H25l-1-190h47c2 13-1 29 3 40 6-28 27-53 61-41v41" id="D"/><path fill="#333" d="M128 0H69L1-190h53L99-40l48-150h52" id="E"/><path fill="#333" d="M137-138c1-29-70-34-71-4 15 46 118 7 119 86 1 83-164 76-172 9l43-7c4 19 20 25 44 25 33 8 57-30 24-41C81-84 22-81 20-136c-2-80 154-74 161-7" id="F"/><g id="c"><use transform="matrix(0.055555555555555546,0,0,0.055555555555555546,0,0)" xlink:href="#B"/><use transform="matrix(0.055555555555555546,0,0,0.055555555555555546,14.388888888888886,0)" xlink:href="#C"/><use transform="matrix(0.055555555555555546,0,0,0.055555555555555546,25.499999999999993,0)" xlink:href="#D"/><use transform="matrix(0.055555555555555546,0,0,0.055555555555555546,33.27777777777777,0)" xlink:href="#E"/><use transform="matrix(0.055555555555555546,0,0,0.055555555555555546,44.38888888888888,0)" xlink:href="#z"/><use transform="matrix(0.055555555555555546,0,0,0.055555555555555546,55.499999999999986,0)" xlink:href="#t"/><use transform="matrix(0.055555555555555546,0,0,0.055555555555555546,67.66666666666666,0)" xlink:href="#u"/><use transform="matrix(0.055555555555555546,0,0,0.055555555555555546,74.27777777777777,0)" xlink:href="#C"/><use transform="matrix(0.055555555555555546,0,0,0.055555555555555546,85.38888888888889,0)" xlink:href="#F"/></g><path fill="#333" d="M230 0l2-204L168 0h-37L68-204 70 0H24v-248h70l56 185 57-185h69V0h-46" id="G"/><g id="d"><use transform="matrix(0.055555555555555546,0,0,0.055555555555555546,0,0)" xlink:href="#G"/><use transform="matrix(0.055555555555555546,0,0,0.055555555555555546,16.611111111111107,0)" xlink:href="#v"/><use transform="matrix(0.055555555555555546,0,0,0.055555555555555546,28.77777777777777,0)" xlink:href="#y"/><use transform="matrix(0.055555555555555546,0,0,0.055555555555555546,34.33333333333333,0)" xlink:href="#x"/><use transform="matrix(0.055555555555555546,0,0,0.055555555555555546,39.888888888888886,0)" xlink:href="#C"/><use transform="matrix(0.055555555555555546,0,0,0.055555555555555546,50.99999999999999,0)" xlink:href="#D"/><use transform="matrix(0.055555555555555546,0,0,0.055555555555555546,58.777777777777764,0)" xlink:href="#C"/></g><path fill="#333" d="M23 0v-37h61v-169l-59 37v-38l62-41h46v211h57V0H23" id="H"/><use transform="matrix(0.08641975308641973,0,0,0.08641975308641973,0,0)" xlink:href="#H" id="e"/><path fill="#333" d="M182-182c0 78-84 86-111 141h115V0H12c-6-101 99-100 120-180 1-22-12-31-33-32-23 0-32 14-35 34l-49-3c5-45 32-70 84-70 51 0 83 22 83 69" id="I"/><use transform="matrix(0.08641975308641973,0,0,0.08641975308641973,0,0)" xlink:href="#I" id="f"/><path fill="#333" d="M128-127c34 4 56 21 59 58 7 91-148 94-172 28-4-9-6-17-7-26l51-5c1 24 16 35 40 36 23 0 39-12 38-36-1-31-31-36-65-34v-40c32 2 59-3 59-33 0-20-13-33-34-33s-33 13-35 32l-50-3c6-44 37-68 86-68 50 0 83 20 83 66 0 35-22 52-53 58" id="J"/><use transform="matrix(0.08641975308641973,0,0,0.08641975308641973,0,0)" xlink:href="#J" id="g"/><path fill="#333" d="M143 4C61 4 22-44 18-125c-5-107 100-154 193-111 17 8 29 25 37 43l-32 9c-13-25-37-40-76-40-61 0-88 39-88 99 0 61 29 100 91 101 35 0 62-11 79-27v-45h-74v-28h105v86C228-13 192 4 143 4" id="K"/><path fill="#333" d="M141-36C126-15 110 5 73 4 37 3 15-17 15-53c-1-64 63-63 125-63 3-35-9-54-41-54-24 1-41 7-42 31l-33-3c5-37 33-52 76-52 45 0 72 20 72 64v82c-1 20 7 32 28 27v20c-31 9-61-2-59-35zM48-53c0 20 12 33 32 33 41-3 63-29 60-74-43 2-92-5-92 41" id="L"/><path fill="#333" d="M24 0v-261h32V0H24" id="M"/><path fill="#333" d="M100-194c63 0 86 42 84 106H49c0 40 14 67 53 68 26 1 43-12 49-29l28 8c-11 28-37 45-77 45C44 4 14-33 15-96c1-61 26-98 85-98zm52 81c6-60-76-77-97-28-3 7-6 17-6 28h103" id="N"/><path fill="#333" d="M59-47c-2 24 18 29 38 22v24C64 9 27 4 27-40v-127H5v-23h24l9-43h21v43h35v23H59v120" id="O"/><path fill="#333" d="M135-143c-3-34-86-38-87 0 15 53 115 12 119 90S17 21 10-45l28-5c4 36 97 45 98 0-10-56-113-15-118-90-4-57 82-63 122-42 12 7 21 19 24 35" id="P"/><g id="h"><use transform="matrix(0.06172839506172839,0,0,0.06172839506172839,0,0)" xlink:href="#K"/><use transform="matrix(0.06172839506172839,0,0,0.06172839506172839,17.28395061728395,0)" xlink:href="#L"/><use transform="matrix(0.06172839506172839,0,0,0.06172839506172839,29.629629629629626,0)" xlink:href="#M"/><use transform="matrix(0.06172839506172839,0,0,0.06172839506172839,34.50617283950617,0)" xlink:href="#M"/><use transform="matrix(0.06172839506172839,0,0,0.06172839506172839,39.382716049382715,0)" xlink:href="#N"/><use transform="matrix(0.06172839506172839,0,0,0.06172839506172839,51.72839506172839,0)" xlink:href="#O"/><use transform="matrix(0.06172839506172839,0,0,0.06172839506172839,57.901234567901234,0)" xlink:href="#L"/><use transform="matrix(0.06172839506172839,0,0,0.06172839506172839,70.24691358024691,0)" xlink:href="#P"/></g><path fill="#333" d="M160-131c35 5 61 23 61 61C221 17 115-2 30 0v-248c76 3 177-17 177 60 0 33-19 50-47 57zm-97-11c50-1 110 9 110-42 0-47-63-36-110-37v79zm0 115c55-2 124 14 124-45 0-56-70-42-124-44v89" id="Q"/><path fill="#333" d="M100-194c62-1 85 37 85 99 1 63-27 99-86 99S16-35 15-95c0-66 28-99 85-99zM99-20c44 1 53-31 53-75 0-43-8-75-51-75s-53 32-53 75 10 74 51 75" id="R"/><g id="i"><use transform="matrix(0.06172839506172839,0,0,0.06172839506172839,0,0)" xlink:href="#Q"/><use transform="matrix(0.06172839506172839,0,0,0.06172839506172839,14.814814814814813,0)" xlink:href="#R"/><use transform="matrix(0.06172839506172839,0,0,0.06172839506172839,27.160493827160494,0)" xlink:href="#M"/><use transform="matrix(0.06172839506172839,0,0,0.06172839506172839,32.03703703703704,0)" xlink:href="#P"/><use transform="matrix(0.06172839506172839,0,0,0.06172839506172839,43.14814814814815,0)" xlink:href="#L"/><use transform="matrix(0.06172839506172839,0,0,0.06172839506172839,55.49382716049383,0)" xlink:href="#P"/></g><path fill="#333" d="M76-208v77h127v40H76V0H24v-248h183v40H76" id="S"/><path fill="#333" d="M135-194c52 0 70 43 70 98 0 56-19 99-73 100-30 1-46-15-58-35L72 0H24l1-261h50v104c11-23 29-37 60-37zM114-30c31 0 40-27 40-66 0-37-7-63-39-63s-41 28-41 65c0 36 8 64 40 64" id="T"/><path fill="#333" d="M190-63c-7 42-38 67-86 67-59 0-84-38-90-98-12-110 154-137 174-36l-49 2c-2-19-15-32-35-32-30 0-35 28-38 64-6 74 65 87 74 30" id="U"/><g id="j"><use transform="matrix(0.06172839506172839,0,0,0.06172839506172839,0,0)" xlink:href="#S"/><use transform="matrix(0.06172839506172839,0,0,0.06172839506172839,13.518518518518517,0)" xlink:href="#z"/><use transform="matrix(0.06172839506172839,0,0,0.06172839506172839,25.864197530864196,0)" xlink:href="#T"/><use transform="matrix(0.06172839506172839,0,0,0.06172839506172839,39.382716049382715,0)" xlink:href="#D"/><use transform="matrix(0.06172839506172839,0,0,0.06172839506172839,48.02469135802469,0)" xlink:href="#x"/><use transform="matrix(0.06172839506172839,0,0,0.06172839506172839,54.19753086419753,0)" xlink:href="#U"/><use transform="matrix(0.06172839506172839,0,0,0.06172839506172839,66.54320987654322,0)" xlink:href="#z"/><use transform="matrix(0.06172839506172839,0,0,0.06172839506172839,78.8888888888889,0)" xlink:href="#U"/><use transform="matrix(0.06172839506172839,0,0,0.06172839506172839,91.23456790123458,0)" xlink:href="#x"/><use transform="matrix(0.06172839506172839,0,0,0.06172839506172839,97.40740740740742,0)" xlink:href="#v"/><use transform="matrix(0.06172839506172839,0,0,0.06172839506172839,110.92592592592594,0)" xlink:href="#t"/></g><path fill="#333" d="M135-194c53 0 70 44 70 98 0 56-19 98-73 100-31 1-45-17-59-34 3 33 2 69 2 105H25l-1-265h48c2 10 0 23 3 31 11-24 29-35 60-35zM114-30c33 0 39-31 40-66 0-38-9-64-40-64-56 0-55 130 0 130" id="V"/><g id="k"><use transform="matrix(0.06172839506172839,0,0,0.06172839506172839,0,0)" xlink:href="#B"/><use transform="matrix(0.06172839506172839,0,0,0.06172839506172839,15.987654320987653,0)" xlink:href="#v"/><use transform="matrix(0.06172839506172839,0,0,0.06172839506172839,29.50617283950617,0)" xlink:href="#A"/><use transform="matrix(0.06172839506172839,0,0,0.06172839506172839,49.25925925925925,0)" xlink:href="#V"/><use transform="matrix(0.06172839506172839,0,0,0.06172839506172839,62.77777777777777,0)" xlink:href="#D"/><use transform="matrix(0.06172839506172839,0,0,0.06172839506172839,71.41975308641975,0)" xlink:href="#z"/></g><path fill="#333" d="M212-179c-10-28-35-45-73-45-59 0-87 40-87 99 0 60 29 101 89 101 43 0 62-24 78-52l27 14C228-24 195 4 139 4 59 4 22-46 18-125c-6-104 99-153 187-111 19 9 31 26 39 46" id="W"/><path fill="#333" d="M117-194c89-4 53 116 60 194h-32v-121c0-31-8-49-39-48C34-167 62-67 57 0H25l-1-190h30c1 10-1 24 2 32 11-22 29-35 61-36" id="X"/><path fill="#333" d="M24-231v-30h32v30H24zM-9 49c24 4 33-6 33-30v-209h32V24c2 40-23 58-65 49V49" id="Y"/><g id="l"><use transform="matrix(0.049382716049382706,0,0,0.049382716049382706,0,0)" xlink:href="#W"/><use transform="matrix(0.049382716049382706,0,0,0.049382716049382706,12.790123456790122,0)" xlink:href="#L"/><use transform="matrix(0.049382716049382706,0,0,0.049382716049382706,22.666666666666664,0)" xlink:href="#X"/><use transform="matrix(0.049382716049382706,0,0,0.049382716049382706,32.5432098765432,0)" xlink:href="#Y"/><use transform="matrix(0.049382716049382706,0,0,0.049382716049382706,36.444444444444436,0)" xlink:href="#N"/></g><path fill="#333" d="M85-194c31 0 48 13 60 33l-1-100h32l1 261h-30c-2-10 0-23-3-31C134-8 116 4 85 4 32 4 16-35 15-94c0-66 23-100 70-100zm9 24c-40 0-46 34-46 75 0 40 6 74 45 74 42 0 51-32 51-76 0-42-9-74-50-73" id="Z"/><g id="m"><use transform="matrix(0.049382716049382706,0,0,0.049382716049382706,0,0)" xlink:href="#Z"/><use transform="matrix(0.049382716049382706,0,0,0.049382716049382706,9.87654320987654,0)" xlink:href="#N"/></g><path fill="#333" d="M114-163C36-179 61-72 57 0H25l-1-190h30c1 12-1 29 2 39 6-27 23-49 58-41v29" id="aa"/><path fill="#333" d="M96-169c-40 0-48 33-48 73s9 75 48 75c24 0 41-14 43-38l32 2c-6 37-31 61-74 61-59 0-76-41-82-99-10-93 101-131 147-64 4 7 5 14 7 22l-32 3c-4-21-16-35-41-35" id="ab"/><path fill="#333" d="M106-169C34-169 62-67 57 0H25v-261h32l-1 103c12-21 28-36 61-36 89 0 53 116 60 194h-32v-121c2-32-8-49-39-48" id="ac"/><path fill="#333" d="M9 0v-24l116-142H16v-24h144v24L44-24h123V0H9" id="ad"/><g id="n"><use transform="matrix(0.049382716049382706,0,0,0.049382716049382706,0,0)" xlink:href="#aa"/><use transform="matrix(0.049382716049382706,0,0,0.049382716049382706,5.876543209876542,0)" xlink:href="#N"/><use transform="matrix(0.049382716049382706,0,0,0.049382716049382706,15.75308641975308,0)" xlink:href="#ab"/><use transform="matrix(0.049382716049382706,0,0,0.049382716049382706,24.641975308641968,0)" xlink:href="#ac"/><use transform="matrix(0.049382716049382706,0,0,0.049382716049382706,34.518518518518505,0)" xlink:href="#L"/><use transform="matrix(0.049382716049382706,0,0,0.049382716049382706,44.39506172839505,0)" xlink:href="#ad"/><use transform="matrix(0.049382716049382706,0,0,0.049382716049382706,53.28395061728394,0)" xlink:href="#L"/><use transform="matrix(0.049382716049382706,0,0,0.049382716049382706,63.16049382716048,0)" xlink:href="#Z"/><use transform="matrix(0.049382716049382706,0,0,0.049382716049382706,73.03703703703702,0)" xlink:href="#R"/><use transform="matrix(0.049382716049382706,0,0,0.049382716049382706,82.91358024691357,0)" xlink:href="#P"/></g><path fill="#333" d="M137 0h-34L2-248h35l83 218 83-218h36" id="ae"/><g id="o"><use transform="matrix(0.049382716049382706,0,0,0.049382716049382706,0,0)" xlink:href="#ae"/><use transform="matrix(0.049382716049382706,0,0,0.049382716049382706,10.864197530864196,0)" xlink:href="#N"/><use transform="matrix(0.049382716049382706,0,0,0.049382716049382706,20.740740740740737,0)" xlink:href="#X"/><use transform="matrix(0.049382716049382706,0,0,0.049382716049382706,30.617283950617278,0)" xlink:href="#O"/><use transform="matrix(0.049382716049382706,0,0,0.049382716049382706,35.55555555555555,0)" xlink:href="#L"/></g><path fill="#333" d="M233-177c-1 41-23 64-60 70L243 0h-38l-65-103H63V0H30v-248c88 3 205-21 203 71zM63-129c60-2 137 13 137-47 0-61-80-42-137-45v92" id="af"/><g id="p"><use transform="matrix(0.049382716049382706,0,0,0.049382716049382706,0,0)" xlink:href="#af"/><use transform="matrix(0.049382716049382706,0,0,0.049382716049382706,12.790123456790122,0)" xlink:href="#N"/><use transform="matrix(0.049382716049382706,0,0,0.049382716049382706,22.666666666666664,0)" xlink:href="#ab"/><use transform="matrix(0.049382716049382706,0,0,0.049382716049382706,31.55555555555555,0)" xlink:href="#ac"/><use transform="matrix(0.049382716049382706,0,0,0.049382716049382706,41.43209876543209,0)" xlink:href="#L"/><use transform="matrix(0.049382716049382706,0,0,0.049382716049382706,51.30864197530863,0)" xlink:href="#ad"/><use transform="matrix(0.049382716049382706,0,0,0.049382716049382706,60.19753086419752,0)" xlink:href="#L"/><use transform="matrix(0.049382716049382706,0,0,0.049382716049382706,70.07407407407406,0)" xlink:href="#Z"/><use transform="matrix(0.049382716049382706,0,0,0.049382716049382706,79.9506172839506,0)" xlink:href="#R"/><use transform="matrix(0.049382716049382706,0,0,0.049382716049382706,89.82716049382715,0)" xlink:href="#P"/></g><path fill="#333" d="M30-248c87 1 191-15 191 75 0 78-77 80-158 76V0H30v-248zm33 125c57 0 124 11 124-50 0-59-68-47-124-48v98" id="ag"/><path fill="#333" d="M84 4C-5 8 30-112 23-190h32v120c0 31 7 50 39 49 72-2 45-101 50-169h31l1 190h-30c-1-10 1-25-2-33-11 22-28 36-60 37" id="ah"/><path fill="#333" d="M24-231v-30h32v30H24zM24 0v-190h32V0H24" id="ai"/><g id="q"><use transform="matrix(0.06172839506172839,0,0,0.06172839506172839,0,0)" xlink:href="#ag"/><use transform="matrix(0.06172839506172839,0,0,0.06172839506172839,14.814814814814813,0)" xlink:href="#aa"/><use transform="matrix(0.06172839506172839,0,0,0.06172839506172839,22.160493827160494,0)" xlink:href="#R"/><use transform="matrix(0.06172839506172839,0,0,0.06172839506172839,34.50617283950617,0)" xlink:href="#Z"/><use transform="matrix(0.06172839506172839,0,0,0.06172839506172839,46.85185185185185,0)" xlink:href="#ah"/><use transform="matrix(0.06172839506172839,0,0,0.06172839506172839,59.197530864197525,0)" xlink:href="#ab"/><use transform="matrix(0.06172839506172839,0,0,0.06172839506172839,70.30864197530863,0)" xlink:href="#ab"/><use transform="matrix(0.06172839506172839,0,0,0.06172839506172839,81.41975308641975,0)" xlink:href="#ai"/><use transform="matrix(0.06172839506172839,0,0,0.06172839506172839,86.29629629629629,0)" xlink:href="#R"/><use transform="matrix(0.06172839506172839,0,0,0.06172839506172839,98.64197530864197,0)" xlink:href="#X"/></g><path fill="#333" d="M127-220V0H93v-220H8v-28h204v28h-85" id="aj"/><path fill="#333" d="M115-194c53 0 69 39 70 98 0 66-23 100-70 100C84 3 66-7 56-30L54 0H23l1-261h32v101c10-23 28-34 59-34zm-8 174c40 0 45-34 45-75 0-40-5-75-45-74-42 0-51 32-51 76 0 43 10 73 51 73" id="ak"/><g id="r"><use transform="matrix(0.06172839506172839,0,0,0.06172839506172839,0,0)" xlink:href="#aj"/><use transform="matrix(0.06172839506172839,0,0,0.06172839506172839,12.716049382716047,0)" xlink:href="#aa"/><use transform="matrix(0.06172839506172839,0,0,0.06172839506172839,20.061728395061728,0)" xlink:href="#L"/><use transform="matrix(0.06172839506172839,0,0,0.06172839506172839,32.407407407407405,0)" xlink:href="#ak"/><use transform="matrix(0.06172839506172839,0,0,0.06172839506172839,44.75308641975308,0)" xlink:href="#L"/><use transform="matrix(0.06172839506172839,0,0,0.06172839506172839,57.09876543209876,0)" xlink:href="#Y"/><use transform="matrix(0.06172839506172839,0,0,0.06172839506172839,61.9753086419753,0)" xlink:href="#L"/><use transform="matrix(0.06172839506172839,0,0,0.06172839506172839,74.32098765432099,0)" xlink:href="#Z"/><use transform="matrix(0.06172839506172839,0,0,0.06172839506172839,86.66666666666667,0)" xlink:href="#R"/><use transform="matrix(0.06172839506172839,0,0,0.06172839506172839,99.01234567901236,0)" xlink:href="#aa"/><use transform="matrix(0.06172839506172839,0,0,0.06172839506172839,106.35802469135804,0)" xlink:href="#N"/><use transform="matrix(0.06172839506172839,0,0,0.06172839506172839,118.70370370370372,0)" xlink:href="#P"/></g></defs></g></svg>