<svg xmlns="http://www.w3.org/2000/svg" xmlns:xlink="http://www.w3.org/1999/xlink" xmlns:lucid="lucid" width="1326.66" height="1101.8"><g transform="translate(-249.9999999999999 -87.7129003199536)" lucid:page-tab-id="qgo~28C~_zrv"><path d="M1090.28 758.62l-13.93 20.58 82.1-.6-17.42-23.7-1 .3" stroke="#008a0e" stroke-width="3" fill="#e3fae3"/><path d="M1077.84 705.1s2.32-4 3.48-5.57c1-1.57 1.16-2.45 3.98-5.5 3-2.93 5.48-5.28 9.3-7.24 3.8-2.07 6.13-4.03 12.26-4.72 6.14-.78 8.13-.88 8.13-.88l61.68.2-.16 37.14-22.9-.1s.34 3.43.34 5.5c0 2.15.17 4.3-.5 7.54-.66 3.23-1.16 6.07-2.98 10-1.82 3.9-3.65 6.85-4.98 8.52-1.32 1.76-2.15 2.94-4.97 5.5-2.65 2.63-4.3 3.9-7.46 5.57-3.15 1.77-4.98 2.84-7.3 3.43-2.32.7-3 1.18-6.63 1.57-3.82.3-6.14.5-8.46.3-2.5-.3-5.3-.6-7.47-1.38-2.14-.8-5.8-2.36-7.95-3.54-2-1.17-2.15-.78-5.14-3.13-2.8-2.35-3.47-2.16-5.96-5.5-2.5-3.22-4.8-6.26-6.3-10-1.5-3.7-3-9.1-3-9.1" stroke="#008a0e" stroke-width="3" fill="#e3fae3"/><path d="M1035.05 721.1h7.46v1.95h-7.45v-1.96z" stroke="#008a0e" stroke-width="3" fill="#b6c8b6"/><path d="M1034.4 709.82h.98V735.5h-1s-.16-.2-.16-.4v-24.9c0-.2.17-.38.17-.38zM1042.02 715.4h56.38v14.12h-56.38V715.4zM1179.83 698.74h19.9s.17.1.17.3v1.57c0 .1-.16.3-.16.3h-19.9c-.17 0-.34-.2-.34-.3v-1.56c0-.2.17-.3.33-.3z" stroke="#008a0e" stroke-width="3" fill="#b6c8b6"/><path d="M1199.57 692.57c.33 0 .66.3.66.7v15.67c0 .4-.33.68-.66.68s-.5-.3-.5-.68v-15.68c0-.4.17-.7.5-.7z" stroke="#008a0e" stroke-width="3" fill="#b6c8b6"/><path d="M1099.88 772.62l-13.93 20.58 82.1-.6-17.42-23.7-1 .3" stroke="#008a0e" stroke-width="3" fill="#e3fae3"/><path d="M1087.44 719.1s2.33-4 3.5-5.57c.98-1.57 1.15-2.45 3.97-5.5 3-2.93 5.48-5.28 9.3-7.24 3.8-2.07 6.13-4.03 12.27-4.72 6.13-.78 8.12-.88 8.12-.88l61.7.2-.18 37.14-22.88-.1s.33 3.43.33 5.5c0 2.15.16 4.3-.5 7.54-.66 3.23-1.16 6.07-3 10-1.8 3.9-3.63 6.85-4.96 8.52-1.32 1.76-2.15 2.94-4.97 5.5-2.65 2.63-4.3 3.9-7.46 5.57-3.15 1.77-4.97 2.84-7.3 3.43-2.32.7-2.98 1.18-6.63 1.57-3.8.3-6.14.5-8.46.3-2.5-.3-5.3-.6-7.46-1.38-2.16-.8-5.8-2.36-7.96-3.54-2-1.17-2.16-.78-5.14-3.13-2.82-2.35-3.5-2.16-5.97-5.5-2.5-3.22-4.8-6.26-6.3-10-1.5-3.7-3-9.1-3-9.1" stroke="#008a0e" stroke-width="3" fill="#e3fae3"/><path d="M1044.66 735.1h7.46v1.95h-7.46v-1.96z" stroke="#008a0e" stroke-width="3" fill="#b6c8b6"/><path d="M1044 723.82h1V749.5h-1s-.17-.2-.17-.4v-24.9c0-.2.16-.38.16-.38zM1051.62 729.4h56.4v14.12h-56.4V729.4zM1189.44 712.74h19.9s.17.1.17.3v1.57c0 .1-.16.3-.16.3h-19.9c-.17 0-.33-.2-.33-.3v-1.56c0-.2.17-.3.34-.3z" stroke="#008a0e" stroke-width="3" fill="#b6c8b6"/><path d="M1209.18 706.57c.33 0 .66.3.66.7v15.67c0 .4-.33.68-.66.68-.34 0-.5-.3-.5-.68v-15.68c0-.4.16-.7.5-.7z" stroke="#008a0e" stroke-width="3" fill="#b6c8b6"/><path d="M1087.48 589.98l-13.93 20.58 82.1-.6-17.42-23.7-1 .3" stroke="#008a0e" stroke-width="3" fill="#e3fae3"/><path d="M1075.04 536.47s2.32-4.02 3.48-5.6c1-1.55 1.16-2.44 3.98-5.47 3-2.94 5.48-5.3 9.3-7.26 3.8-2.05 6.13-4 12.26-4.7 6.14-.78 8.13-.88 8.13-.88l61.68.2-.16 37.14-22.9-.1s.34 3.43.34 5.5c0 2.14.17 4.3-.5 7.53-.66 3.24-1.16 6.08-2.98 10s-3.65 6.86-4.98 8.52c-1.32 1.77-2.15 2.94-4.97 5.5-2.65 2.64-4.3 3.9-7.46 5.58-3.16 1.76-4.98 2.84-7.3 3.43-2.32.68-3 1.17-6.64 1.57-3.8.3-6.13.5-8.45.3-2.5-.3-5.3-.6-7.47-1.38-2.14-.8-5.8-2.35-7.95-3.53-2-1.18-2.15-.78-5.14-3.14-2.8-2.35-3.47-2.15-5.96-5.48-2.5-3.24-4.8-6.28-6.3-10-1.5-3.72-3-9.1-3-9.1" stroke="#008a0e" stroke-width="3" fill="#e3fae3"/><path d="M1032.25 552.44h7.46v1.96h-7.45v-1.96z" stroke="#008a0e" stroke-width="3" fill="#b6c8b6"/><path d="M1031.6 541.17h.98V566.85h-1s-.16-.2-.16-.4v-24.88c0-.2.17-.4.17-.4zM1039.22 546.76h56.38v14.1h-56.38v-14.1zM1177.03 530.1h19.9s.17.1.17.3v1.56c0 .1-.16.3-.16.3h-19.9c-.17 0-.34-.2-.34-.3v-1.57c0-.2.17-.3.33-.3z" stroke="#008a0e" stroke-width="3" fill="#b6c8b6"/><path d="M1196.77 523.93c.33 0 .66.3.66.68v15.7c0 .38-.33.68-.66.68s-.5-.3-.5-.7v-15.67c0-.38.17-.67.5-.67z" stroke="#008a0e" stroke-width="3" fill="#b6c8b6"/><path d="M1097.08 603.98l-13.93 20.58 82.1-.6-17.42-23.7-1 .3" stroke="#008a0e" stroke-width="3" fill="#e3fae3"/><path d="M1084.64 550.47s2.33-4.02 3.5-5.6c.98-1.55 1.15-2.44 3.97-5.47 3-2.94 5.48-5.3 9.3-7.26 3.8-2.05 6.13-4 12.27-4.7 6.13-.78 8.12-.88 8.12-.88l61.7.2-.18 37.14-22.88-.1s.33 3.43.33 5.5c0 2.14.16 4.3-.5 7.53-.66 3.24-1.16 6.08-3 10-1.8 3.92-3.63 6.86-4.96 8.52-1.32 1.77-2.15 2.94-4.97 5.5-2.65 2.64-4.3 3.9-7.46 5.58-3.15 1.76-4.97 2.84-7.3 3.43-2.32.68-2.98 1.17-6.63 1.57-3.8.3-6.14.5-8.46.3-2.5-.3-5.3-.6-7.46-1.38-2.16-.8-5.8-2.35-7.96-3.53-2-1.18-2.16-.78-5.14-3.14-2.82-2.35-3.5-2.15-5.97-5.48-2.5-3.24-4.8-6.28-6.3-10-1.5-3.72-3-9.1-3-9.1" stroke="#008a0e" stroke-width="3" fill="#e3fae3"/><path d="M1041.86 566.44h7.46v1.96h-7.46v-1.96z" stroke="#008a0e" stroke-width="3" fill="#b6c8b6"/><path d="M1041.2 555.17h1V580.85h-1s-.17-.2-.17-.4v-24.88c0-.2.16-.4.16-.4zM1048.82 560.76h56.4v14.1h-56.4v-14.1zM1186.64 544.1h19.9s.17.1.17.3v1.56c0 .1-.16.3-.16.3h-19.9c-.17 0-.33-.2-.33-.3v-1.57c0-.2.17-.3.34-.3z" stroke="#008a0e" stroke-width="3" fill="#b6c8b6"/><path d="M1206.38 537.93c.33 0 .66.3.66.68v15.7c0 .38-.33.68-.66.68-.34 0-.5-.3-.5-.7v-15.67c0-.38.16-.67.5-.67z" stroke="#008a0e" stroke-width="3" fill="#b6c8b6"/><path d="M1087 418.6l-13.92 20.6 82.1-.6-17.42-23.7-1 .28" stroke="#008a0e" stroke-width="3" fill="#e3fae3"/><path d="M1074.57 365.1s2.32-4.02 3.48-5.58c1-1.57 1.17-2.45 4-5.5 2.97-2.93 5.46-5.28 9.27-7.24 3.82-2.06 6.14-4.02 12.28-4.7 6.13-.8 8.12-.9 8.12-.9l61.7.2-.17 37.15-22.9-.1s.35 3.43.35 5.5c0 2.14.16 4.3-.5 7.53-.67 3.24-1.16 6.08-3 10-1.8 3.92-3.64 6.86-4.96 8.53-1.33 1.75-2.16 2.93-4.98 5.47-2.65 2.65-4.3 3.92-7.46 5.6-3.15 1.75-4.98 2.83-7.3 3.42-2.32.68-2.98 1.17-6.63 1.56-3.82.3-6.14.5-8.46.3-2.48-.3-5.3-.6-7.45-1.38-2.16-.78-5.8-2.35-7.96-3.53-2-1.17-2.17-.78-5.16-3.13-2.8-2.36-3.48-2.16-5.97-5.5-2.48-3.23-4.8-6.26-6.3-10-1.5-3.7-2.98-9.1-2.98-9.1" stroke="#008a0e" stroke-width="3" fill="#e3fae3"/><path d="M1031.78 381.08h7.47v1.96h-7.47v-1.96z" stroke="#008a0e" stroke-width="3" fill="#b6c8b6"/><path d="M1031.12 369.8h1V395.5h-1s-.17-.2-.17-.4V370.2c0-.2.17-.4.17-.4zM1038.75 375.4h56.4v14.1h-56.4v-14.1zM1176.57 358.73h19.9s.16.1.16.3v1.56c0 .1-.16.3-.16.3h-19.9c-.17 0-.33-.2-.33-.3v-1.57c0-.2.16-.3.33-.3z" stroke="#008a0e" stroke-width="3" fill="#b6c8b6"/><path d="M1196.3 352.56c.33 0 .67.3.67.68v15.68c0 .4-.34.7-.67.7s-.5-.3-.5-.7v-15.68c0-.4.17-.68.5-.68z" stroke="#008a0e" stroke-width="3" fill="#b6c8b6"/><path d="M1096.62 432.6l-13.94 20.6 82.1-.6-17.42-23.7-1 .28" stroke="#008a0e" stroke-width="3" fill="#e3fae3"/><path d="M1084.18 379.1s2.32-4.02 3.48-5.58c1-1.57 1.16-2.45 3.98-5.5 3-2.93 5.47-5.28 9.3-7.24 3.8-2.06 6.12-4.02 12.26-4.7 6.14-.8 8.13-.9 8.13-.9l61.7.2-.17 37.15-22.9-.1s.34 3.43.34 5.5c0 2.14.17 4.3-.5 7.53-.66 3.24-1.16 6.08-2.98 10-1.83 3.92-3.65 6.86-4.98 8.53-1.32 1.75-2.15 2.93-4.97 5.47-2.66 2.65-4.32 3.92-7.47 5.6-3.15 1.75-4.97 2.83-7.3 3.42-2.32.68-2.98 1.17-6.63 1.56-3.8.3-6.13.5-8.46.3-2.47-.3-5.3-.6-7.45-1.38-2.15-.78-5.8-2.35-7.96-3.53-2-1.17-2.17-.78-5.15-3.13-2.82-2.36-3.48-2.16-5.97-5.5-2.5-3.23-4.8-6.26-6.3-10-1.5-3.7-3-9.1-3-9.1" stroke="#008a0e" stroke-width="3" fill="#e3fae3"/><path d="M1041.4 395.08h7.45v1.96h-7.46v-1.96z" stroke="#008a0e" stroke-width="3" fill="#b6c8b6"/><path d="M1040.73 383.8h1V409.5h-1s-.17-.2-.17-.4V384.2c0-.2.17-.4.17-.4zM1048.35 389.4h56.4v14.1h-56.4v-14.1zM1186.17 372.73h19.9s.17.1.17.3v1.56c0 .1-.17.3-.17.3h-19.9c-.16 0-.33-.2-.33-.3v-1.57c0-.2.17-.3.33-.3z" stroke="#008a0e" stroke-width="3" fill="#b6c8b6"/><path d="M1205.9 366.56c.34 0 .67.3.67.68v15.68c0 .4-.33.7-.66.7-.32 0-.5-.3-.5-.7v-15.68c0-.4.18-.68.5-.68z" stroke="#008a0e" stroke-width="3" fill="#b6c8b6"/><path d="M771.3 449.73l-13.95 20.58 82.1-.58-17.42-23.7-1 .28" stroke="#202124" stroke-width="3" fill="#fff"/><path d="M758.85 396.22s2.32-4 3.48-5.58c1-1.57 1.16-2.45 3.98-5.5 3-2.93 5.48-5.28 9.3-7.24 3.8-2.06 6.13-4.02 12.27-4.7 6.14-.8 8.13-.9 8.13-.9l61.7.2-.17 37.15-22.9-.1s.34 3.43.34 5.5c0 2.15.17 4.3-.5 7.54-.66 3.22-1.16 6.06-2.98 9.98-1.84 3.92-3.66 6.86-5 8.53-1.3 1.77-2.14 2.95-4.96 5.5-2.66 2.64-4.3 3.92-7.47 5.58-3.15 1.77-4.97 2.84-7.3 3.43-2.32.7-2.98 1.2-6.63 1.58-3.8.3-6.13.5-8.46.3-2.48-.3-5.3-.6-7.46-1.38-2.15-.78-5.8-2.35-7.96-3.53-2-1.17-2.15-.78-5.14-3.13-2.82-2.35-3.48-2.16-5.97-5.5-2.5-3.22-4.8-6.26-6.3-10-1.5-3.7-3-9.1-3-9.1" stroke="#202124" stroke-width="3" fill="#fff"/><path d="M716.06 412.2h7.46v1.96h-7.46v-1.96z" stroke="#202124" stroke-width="3" fill="#ccc"/><path d="M715.4 400.93h1V426.6h-1s-.17-.2-.17-.4v-24.88c0-.2.17-.4.17-.4zM723.02 406.5h56.4v14.13H723V406.5zM860.84 389.85h19.9s.17.1.17.3v1.57c0 .1-.16.3-.16.3h-19.9c-.16 0-.33-.2-.33-.3v-1.57c0-.2.18-.3.34-.3z" stroke="#202124" stroke-width="3" fill="#ccc"/><path d="M880.58 383.68c.33 0 .66.3.66.7v15.67c0 .4-.33.68-.66.68s-.5-.3-.5-.68v-15.68c0-.4.17-.7.5-.7z" stroke="#202124" stroke-width="3" fill="#ccc"/><path d="M771.3 619.4l-13.95 20.58 82.1-.6-17.42-23.7-1 .3" stroke="#202124" stroke-width="3" fill="#fff"/><path d="M758.85 565.9s2.32-4.03 3.48-5.6c1-1.56 1.16-2.44 3.98-5.48 3-2.94 5.48-5.3 9.3-7.25 3.8-2.06 6.13-4.02 12.27-4.7 6.14-.8 8.13-.9 8.13-.9l61.7.2-.17 37.15-22.9-.1s.34 3.43.34 5.5c0 2.14.17 4.3-.5 7.53-.66 3.24-1.16 6.08-2.98 10-1.84 3.92-3.66 6.86-5 8.53-1.3 1.76-2.14 2.94-4.96 5.48-2.66 2.65-4.3 3.92-7.47 5.6-3.15 1.75-4.97 2.83-7.3 3.42-2.32.7-2.98 1.18-6.63 1.57-3.8.3-6.13.5-8.46.3-2.48-.3-5.3-.6-7.46-1.38-2.15-.78-5.8-2.35-7.96-3.53-2-1.17-2.15-.78-5.14-3.13-2.82-2.35-3.48-2.15-5.97-5.48-2.5-3.24-4.8-6.27-6.3-10-1.5-3.72-3-9.1-3-9.1" stroke="#202124" stroke-width="3" fill="#fff"/><path d="M716.06 581.87h7.46v1.96h-7.46v-1.96z" stroke="#202124" stroke-width="3" fill="#ccc"/><path d="M715.4 570.6h1V596.28h-1s-.17-.2-.17-.4v-24.9c0-.2.17-.38.17-.38zM723.02 576.18h56.4v14.1H723v-14.1zM860.84 559.52h19.9s.17.1.17.3v1.56c0 .1-.16.3-.16.3h-19.9c-.16 0-.33-.2-.33-.3v-1.56c0-.2.18-.3.34-.3z" stroke="#202124" stroke-width="3" fill="#ccc"/><path d="M880.58 553.35c.33 0 .66.3.66.68v15.68c0 .4-.33.7-.66.7s-.5-.3-.5-.7v-15.67c0-.4.17-.68.5-.68z" stroke="#202124" stroke-width="3" fill="#ccc"/><path d="M771.3 789.07l-13.95 20.58 82.1-.6-17.42-23.7-1 .3" stroke="#202124" stroke-width="3" fill="#fff"/><path d="M758.85 735.56s2.32-4.02 3.48-5.6c1-1.55 1.16-2.44 3.98-5.47 3-2.95 5.48-5.3 9.3-7.27 3.8-2.05 6.13-4 12.27-4.7 6.14-.78 8.13-.88 8.13-.88l61.7.2-.17 37.14-22.9-.1s.34 3.42.34 5.48c0 2.15.17 4.3-.5 7.54-.66 3.24-1.16 6.08-2.98 10-1.84 3.92-3.66 6.86-5 8.52-1.3 1.77-2.14 2.94-4.96 5.5-2.66 2.64-4.3 3.9-7.47 5.58-3.15 1.76-4.97 2.84-7.3 3.43-2.32.68-2.98 1.17-6.63 1.57-3.8.3-6.13.5-8.46.3-2.48-.3-5.3-.6-7.46-1.38-2.15-.8-5.8-2.35-7.96-3.53-2-1.17-2.15-.77-5.14-3.13-2.82-2.35-3.48-2.15-5.97-5.48-2.5-3.25-4.8-6.3-6.3-10-1.5-3.73-3-9.12-3-9.12" stroke="#202124" stroke-width="3" fill="#fff"/><path d="M716.06 751.53h7.46v1.96h-7.46v-1.97z" stroke="#202124" stroke-width="3" fill="#ccc"/><path d="M715.4 740.26h1V765.94h-1s-.17-.2-.17-.4v-24.88c0-.2.17-.4.17-.4zM723.02 745.85h56.4v14.1H723v-14.1zM860.84 729.2h19.9s.17.1.17.28v1.57c0 .1-.16.3-.16.3h-19.9c-.16 0-.33-.2-.33-.3v-1.57c0-.2.18-.3.34-.3z" stroke="#202124" stroke-width="3" fill="#ccc"/><path d="M880.58 723.02c.33 0 .66.3.66.68v15.68c0 .4-.33.7-.66.7s-.5-.3-.5-.7V723.7c0-.4.17-.68.5-.68z" stroke="#202124" stroke-width="3" fill="#ccc"/><path d="M1088.57 449.73l-13.94 20.58 82.1-.58-17.42-23.7-.98.28" stroke="#cc4e00" stroke-width="3" fill="#fff"/><path d="M1076.13 396.22s2.32-4 3.48-5.58c1-1.57 1.17-2.45 4-5.5 2.98-2.93 5.46-5.28 9.28-7.24 3.8-2.06 6.13-4.02 12.27-4.7 6.14-.8 8.13-.9 8.13-.9l61.7.2-.17 37.15-22.88-.1s.33 3.43.33 5.5c0 2.15.17 4.3-.5 7.54-.66 3.22-1.16 6.06-2.98 9.98-1.83 3.92-3.65 6.86-4.98 8.53-1.33 1.77-2.16 2.95-4.98 5.5-2.66 2.64-4.3 3.92-7.47 5.58-3.15 1.77-4.97 2.84-7.3 3.43-2.3.7-2.98 1.2-6.63 1.58-3.8.3-6.13.5-8.45.3-2.5-.3-5.3-.6-7.47-1.38-2.15-.78-5.8-2.35-7.96-3.53-2-1.17-2.15-.78-5.14-3.13-2.82-2.35-3.48-2.16-5.97-5.5-2.5-3.22-4.8-6.26-6.3-10-1.5-3.7-3-9.1-3-9.1" stroke="#cc4e00" stroke-width="3" fill="#fff"/><path d="M1033.34 412.2h7.46v1.96h-7.46v-1.96z" stroke="#cc4e00" stroke-width="3" fill="#ccc"/><path d="M1032.68 400.93h1V426.6h-1s-.17-.2-.17-.4v-24.88c0-.2.18-.4.18-.4zM1040.3 406.5h56.4v14.13h-56.4V406.5zM1178.12 389.85h19.9s.17.1.17.3v1.57c0 .1-.18.3-.18.3h-19.9c-.16 0-.33-.2-.33-.3v-1.57c0-.2.16-.3.32-.3z" stroke="#cc4e00" stroke-width="3" fill="#ccc"/><path d="M1197.86 383.68c.33 0 .66.3.66.7v15.67c0 .4-.33.68-.66.68s-.5-.3-.5-.68v-15.68c0-.4.17-.7.5-.7z" stroke="#cc4e00" stroke-width="3" fill="#ccc"/><path d="M1088.57 619.4l-13.94 20.58 82.1-.6-17.42-23.7-.98.3" stroke="#cc4e00" stroke-width="3" fill="#fff"/><path d="M1076.13 565.9s2.32-4.03 3.48-5.6c1-1.56 1.17-2.44 4-5.48 2.98-2.94 5.46-5.3 9.28-7.25 3.8-2.06 6.13-4.02 12.27-4.7 6.14-.8 8.13-.9 8.13-.9l61.7.2-.17 37.15-22.88-.1s.33 3.43.33 5.5c0 2.14.17 4.3-.5 7.53-.66 3.24-1.16 6.08-2.98 10-1.83 3.92-3.65 6.86-4.98 8.53-1.33 1.76-2.16 2.94-4.98 5.48-2.66 2.65-4.3 3.92-7.47 5.6-3.15 1.75-4.97 2.83-7.3 3.42-2.3.7-2.98 1.18-6.63 1.57-3.8.3-6.13.5-8.45.3-2.5-.3-5.3-.6-7.47-1.38-2.15-.78-5.8-2.35-7.96-3.53-2-1.17-2.15-.78-5.14-3.13-2.82-2.35-3.48-2.15-5.97-5.48-2.5-3.24-4.8-6.27-6.3-10-1.5-3.72-3-9.1-3-9.1" stroke="#cc4e00" stroke-width="3" fill="#fff"/><path d="M1033.34 581.87h7.46v1.96h-7.46v-1.96z" stroke="#cc4e00" stroke-width="3" fill="#ccc"/><path d="M1032.68 570.6h1V596.28h-1s-.17-.2-.17-.4v-24.9c0-.2.18-.38.18-.38zM1040.3 576.18h56.4v14.1h-56.4v-14.1zM1178.12 559.52h19.9s.17.1.17.3v1.56c0 .1-.18.3-.18.3h-19.9c-.16 0-.33-.2-.33-.3v-1.56c0-.2.16-.3.32-.3z" stroke="#cc4e00" stroke-width="3" fill="#ccc"/><path d="M1197.86 553.35c.33 0 .66.3.66.68v15.68c0 .4-.33.7-.66.7s-.5-.3-.5-.7v-15.67c0-.4.17-.68.5-.68z" stroke="#cc4e00" stroke-width="3" fill="#ccc"/><path d="M1088.57 789.07l-13.94 20.58 82.1-.6-17.42-23.7-.98.3" stroke="#cc4e00" stroke-width="3" fill="#fff"/><path d="M1076.13 735.56s2.32-4.02 3.48-5.6c1-1.55 1.17-2.44 4-5.47 2.98-2.95 5.46-5.3 9.28-7.27 3.8-2.05 6.13-4 12.27-4.7 6.14-.78 8.13-.88 8.13-.88l61.7.2-.17 37.14-22.88-.1s.33 3.42.33 5.48c0 2.15.17 4.3-.5 7.54-.66 3.24-1.16 6.08-2.98 10-1.83 3.92-3.65 6.86-4.98 8.52-1.33 1.77-2.16 2.94-4.98 5.5-2.66 2.64-4.3 3.9-7.47 5.58-3.15 1.76-4.97 2.84-7.3 3.43-2.3.68-2.98 1.17-6.63 1.57-3.8.3-6.13.5-8.45.3-2.5-.3-5.3-.6-7.47-1.38-2.15-.8-5.8-2.35-7.96-3.53-2-1.17-2.15-.77-5.14-3.13-2.82-2.35-3.48-2.15-5.97-5.48-2.5-3.25-4.8-6.3-6.3-10-1.5-3.73-3-9.12-3-9.12" stroke="#cc4e00" stroke-width="3" fill="#fff"/><path d="M1033.34 751.53h7.46v1.96h-7.46v-1.97z" stroke="#cc4e00" stroke-width="3" fill="#ccc"/><path d="M1032.68 740.26h1V765.94h-1s-.17-.2-.17-.4v-24.88c0-.2.18-.4.18-.4zM1040.3 745.85h56.4v14.1h-56.4v-14.1zM1178.12 729.2h19.9s.17.1.17.28v1.57c0 .1-.18.3-.18.3h-19.9c-.16 0-.33-.2-.33-.3v-1.57c0-.2.16-.3.32-.3z" stroke="#cc4e00" stroke-width="3" fill="#ccc"/><path d="M1197.86 723.02c.33 0 .66.3.66.68v15.68c0 .4-.33.7-.66.7s-.5-.3-.5-.7V723.7c0-.4.17-.68.5-.68z" stroke="#cc4e00" stroke-width="3" fill="#ccc"/><path d="M889.42 413h123.1M889.44 413h-1.02" stroke="#fcce14" stroke-width="2" fill="none"/><path d="M1027.77 413l-14.26 4.63v-9.27z" stroke="#fcce14" stroke-width="2" fill="#fcce14"/><path d="M889.1 413.73l130.26 141.74M889.1 413.75l-.68-.76" stroke="#282c33" stroke-width="2" fill="none"/><path d="M1029.7 566.7l-13.08-7.35 6.83-6.28z" stroke="#282c33" stroke-width="2" fill="#282c33"/><path d="M888.82 413.9l136.1 307.94M888.83 413.93l-.4-.94" stroke="#282c33" stroke-width="2" fill="none"/><path d="M1031.08 735.8l-10-11.17 8.47-3.75z" stroke="#282c33" stroke-width="2" fill="#282c33"/><path d="M889.38 578.8h123.1M889.4 578.8h-1.02" stroke="#fcce14" stroke-width="2" fill="none"/><path d="M1027.74 578.8l-14.27 4.64v-9.27z" stroke="#fcce14" stroke-width="2" fill="#fcce14"/><path d="M889.02 579.58l130.06 155.06M889.04 579.6l-.66-.8" stroke="#6f7681" stroke-width="2" fill="none"/><path d="M1028.9 746.34l-12.72-7.95 7.1-5.97z" stroke="#6f7681" stroke-width="2" fill="#6f7681"/><path d="M889.03 578.05l129.9-150.7M889.05 578.03l-.67.78" stroke="#6f7681" stroke-width="2" fill="none"/><path d="M1028.9 415.78l-5.8 13.83-7.03-6.04z" stroke="#6f7681" stroke-width="2" fill="#6f7681"/><path d="M886.64 758.38h123.1M886.67 758.38h-1.03" stroke="#fcce14" stroke-width="2" fill="none"/><path d="M1025 758.38l-14.26 4.64v-9.27z" stroke="#fcce14" stroke-width="2" fill="#fcce14"/><path d="M886.05 757.47l138.34-312.45M886.06 757.44l-.42.94" stroke="#ced4db" stroke-width="2" fill="none"/><path d="M1030.57 431.06l-1.54 14.92-8.47-3.75z" stroke="#ced4db" stroke-width="2" fill="#ced4db"/><path d="M886.32 757.64l133.1-146.2M886.33 757.62l-.7.76" stroke="#ced4db" stroke-width="2" fill="none"/><path d="M1029.7 600.16l-6.18 13.67-6.85-6.24z" stroke="#ced4db" stroke-width="2" fill="#ced4db"/><path d="M1210.64 412.42h123.1M1210.67 412.42h-1.03" stroke="#fcce14" stroke-width="2" fill="none"/><path d="M1349 412.42l-14.27 4.64v-9.27z" stroke="#fcce14" stroke-width="2" fill="#fcce14"/><path d="M1210.32 413.16L1340.6 554.9M1210.34 413.18l-.7-.76" stroke="#282c33" stroke-width="2" fill="none"/><path d="M1350.92 566.15l-13.07-7.37 6.83-6.27z" stroke="#282c33" stroke-width="2" fill="#282c33"/><path d="M1210.05 413.34l136.08 307.93M1210.06 413.36l-.42-.94" stroke="#282c33" stroke-width="2" fill="none"/><path d="M1352.3 735.24l-10-11.18 8.48-3.75z" stroke="#282c33" stroke-width="2" fill="#282c33"/><path d="M1210.6 578.24h123.1M1210.63 578.24h-1.02" stroke="#fcce14" stroke-width="2" fill="none"/><path d="M1348.96 578.24l-14.26 4.64v-9.27z" stroke="#fcce14" stroke-width="2" fill="#fcce14"/><path d="M1210.25 579l130.06 155.07M1210.27 579.03l-.66-.8" stroke="#6f7681" stroke-width="2" fill="none"/><path d="M1350.12 745.77l-12.72-7.95 7.1-5.96z" stroke="#6f7681" stroke-width="2" fill="#6f7681"/><path d="M1210.26 577.48l129.9-150.7M1210.28 577.47l-.67.77" stroke="#6f7681" stroke-width="2" fill="none"/><path d="M1350.12 415.22l-5.8 13.83-7.02-6.05z" stroke="#6f7681" stroke-width="2" fill="#6f7681"/><path d="M1207.87 757.82h123.1M1207.9 757.82h-1.03" stroke="#fcce14" stroke-width="2" fill="none"/><path d="M1346.23 757.82l-14.27 4.63v-9.27z" stroke="#fcce14" stroke-width="2" fill="#fcce14"/><path d="M1207.27 756.9l138.35-312.44M1207.3 756.88l-.43.94" stroke="#ced4db" stroke-width="2" fill="none"/><path d="M1351.8 430.5l-1.54 14.92-8.48-3.76z" stroke="#ced4db" stroke-width="2" fill="#ced4db"/><path d="M1207.54 757.08l133.1-146.2M1207.56 757.06l-.7.76" stroke="#ced4db" stroke-width="2" fill="none"/><path d="M1350.93 599.6l-6.18 13.67-6.85-6.24z" stroke="#ced4db" stroke-width="2" fill="#ced4db"/><path d="M678.15 274.03a6 6 0 0 1 6-6h228a6 6 0 0 1 6 6v48a6 6 0 0 1-6 6h-228a6 6 0 0 1-6-6z" stroke="#000" stroke-opacity="0" stroke-width="3" fill="#fff" fill-opacity="0"/><use xlink:href="#a" transform="matrix(1,0,0,1,683.1527353895692,273.03015253681224) translate(89.1358024691358 30.27777777777778)"/><use xlink:href="#b" transform="matrix(1,0,0,1,683.1527353895692,273.03015253681224) translate(128.5185185185185 30.27777777777778)"/><path d="M995.43 274.03a6 6 0 0 1 6-6h228a6 6 0 0 1 6 6v48a6 6 0 0 1-6 6h-228a6 6 0 0 1-6-6z" stroke="#000" stroke-opacity="0" stroke-width="3" fill="#fff" fill-opacity="0"/><use xlink:href="#a" transform="matrix(1,0,0,1,1000.4330708661416,273.03015253681224) translate(89.1358024691358 30.27777777777778)"/><use xlink:href="#c" transform="matrix(1,0,0,1,1000.4330708661416,273.03015253681224) translate(128.5185185185185 30.27777777777778)"/><path d="M1316.66 274.03a6 6 0 0 1 6-6h228a6 6 0 0 1 6 6v48a6 6 0 0 1-6 6h-228a6 6 0 0 1-6-6z" stroke="#000" stroke-opacity="0" stroke-width="3" fill="#fff" fill-opacity="0"/><use xlink:href="#a" transform="matrix(1,0,0,1,1321.6597813423323,273.03015253681224) translate(89.1358024691358 30.27777777777778)"/><use xlink:href="#d" transform="matrix(1,0,0,1,1321.6597813423323,273.03015253681224) translate(128.5185185185185 30.27777777777778)"/><path d="M370.55 397.3a6 6 0 0 1 6-6h228a6 6 0 0 1 6 6v48a6 6 0 0 1-6 6h-228a6 6 0 0 1-6-6z" stroke="#000" stroke-opacity="0" stroke-width="3" fill="#fff" fill-opacity="0"/><use xlink:href="#e" transform="matrix(1,0,0,1,375.54945130429553,396.31280661436165) translate(68.7962962962963 30.27777777777778)"/><use xlink:href="#b" transform="matrix(1,0,0,1,375.54945130429553,396.31280661436165) translate(148.85802469135803 30.27777777777778)"/><path d="M375.68 566.98a6 6 0 0 1 6-6h228a6 6 0 0 1 6 6v48a6 6 0 0 1-6 6h-228a6 6 0 0 1-6-6z" stroke="#000" stroke-opacity="0" stroke-width="3" fill="#fff" fill-opacity="0"/><use xlink:href="#e" transform="matrix(1,0,0,1,380.68250008618475,565.9801791094601) translate(68.7962962962963 30.27777777777778)"/><use xlink:href="#c" transform="matrix(1,0,0,1,380.68250008618475,565.9801791094601) translate(148.85802469135803 30.27777777777778)"/><path d="M375.68 736.65a6 6 0 0 1 6-6h228a6 6 0 0 1 6 6v48a6 6 0 0 1-6 6h-228a6 6 0 0 1-6-6z" stroke="#000" stroke-opacity="0" stroke-width="3" fill="#fff" fill-opacity="0"/><use xlink:href="#e" transform="matrix(1,0,0,1,380.68250008618475,735.6475516045585) translate(68.7962962962963 30.27777777777778)"/><use xlink:href="#d" transform="matrix(1,0,0,1,380.68250008618475,735.6475516045585) translate(148.85802469135803 30.27777777777778)"/><path d="M375.68 274.03a6 6 0 0 1 6-6h228a6 6 0 0 1 6 6v48a6 6 0 0 1-6 6h-228a6 6 0 0 1-6-6z" stroke="#000" stroke-opacity="0" stroke-width="3" fill="#fff" fill-opacity="0"/><use xlink:href="#f" transform="matrix(1,0,0,1,380.6825000861848,273.03015253681224) translate(44.660493827160494 30.27777777777778)"/><use xlink:href="#g" transform="matrix(1,0,0,1,380.6825000861848,273.03015253681224) translate(145.83333333333331 30.27777777777778)"/><use xlink:href="#h" transform="matrix(1,0,0,1,380.6825000861848,273.03015253681224) translate(158.179012345679 30.27777777777778)"/><path d="M375.68 190.04a6 6 0 0 1 6-6h228a6 6 0 0 1 6 6v48a6 6 0 0 1-6 6h-228a6 6 0 0 1-6-6z" stroke="#000" stroke-opacity="0" stroke-width="3" fill="#fff" fill-opacity="0"/><use xlink:href="#i" transform="matrix(1,0,0,1,380.68250008618475,189.0445367130751) translate(44.1358024691358 30.27777777777778)"/><use xlink:href="#j" transform="matrix(1,0,0,1,380.68250008618475,189.0445367130751) translate(146.48148148148147 30.27777777777778)"/><path d="M1413.7 758.8l-13.92 20.6 82.1-.6-17.42-23.72-1 .3" stroke="#008a0e" stroke-width="3" fill="#e3fae3"/><path d="M1401.28 705.3s2.32-4.02 3.48-5.6c1-1.56 1.16-2.44 3.98-5.48 2.98-2.94 5.47-5.3 9.3-7.25 3.8-2.06 6.12-4.02 12.26-4.7 6.14-.8 8.13-.88 8.13-.88l61.7.18-.18 37.14-22.88-.1s.33 3.44.33 5.5c0 2.15.17 4.3-.5 7.54-.66 3.23-1.16 6.08-2.98 10-1.83 3.92-3.65 6.86-4.98 8.52-1.33 1.77-2.15 2.94-4.97 5.5-2.66 2.64-4.32 3.9-7.47 5.58-3.15 1.76-4.97 2.84-7.3 3.43-2.32.67-2.98 1.16-6.63 1.55-3.8.3-6.13.5-8.46.3-2.47-.3-5.3-.6-7.45-1.37-2.16-.8-5.8-2.36-7.96-3.53-2-1.18-2.17-.8-5.15-3.14-2.82-2.34-3.48-2.14-5.97-5.48-2.5-3.23-4.8-6.27-6.3-10-1.5-3.72-3-9.1-3-9.1" stroke="#008a0e" stroke-width="3" fill="#e3fae3"/><path d="M1358.5 721.27h7.45v1.96h-7.46v-1.96z" stroke="#008a0e" stroke-width="3" fill="#b6c8b6"/><path d="M1357.82 710h1V735.68h-1s-.16-.2-.16-.4v-24.9c0-.18.16-.38.16-.38zM1365.45 715.6h56.4v14.1h-56.4v-14.1zM1503.27 698.93h19.9s.17.1.17.3v1.56c0 .1-.17.28-.17.28h-19.9c-.16 0-.33-.2-.33-.3v-1.56c0-.2.17-.3.33-.3z" stroke="#008a0e" stroke-width="3" fill="#b6c8b6"/><path d="M1523 692.75c.34 0 .67.3.67.7v15.67c0 .4-.33.7-.66.7-.32 0-.5-.3-.5-.7v-15.68c0-.4.18-.7.5-.7z" stroke="#008a0e" stroke-width="3" fill="#b6c8b6"/><path d="M1423.32 772.8l-13.93 20.6 82.08-.6-17.4-23.72-1 .3" stroke="#cc4e00" stroke-width="3" fill="#fff"/><path d="M1410.88 719.3s2.32-4.02 3.48-5.6c1-1.56 1.16-2.44 3.98-5.48 3-2.94 5.48-5.3 9.3-7.25 3.8-2.06 6.13-4.02 12.26-4.7 6.14-.8 8.13-.88 8.13-.88l61.7.18-.17 37.14-22.9-.1s.34 3.44.34 5.5c0 2.15.17 4.3-.5 7.54-.66 3.23-1.15 6.08-2.98 10-1.82 3.92-3.65 6.86-4.97 8.52-1.33 1.77-2.16 2.94-4.98 5.5-2.65 2.64-4.3 3.9-7.46 5.58-3.14 1.76-4.97 2.84-7.3 3.43-2.3.67-2.97 1.16-6.62 1.55-3.82.3-6.14.5-8.46.3-2.5-.3-5.3-.6-7.46-1.37-2.16-.8-5.8-2.36-7.97-3.53-2-1.18-2.16-.8-5.15-3.14-2.82-2.34-3.48-2.14-5.97-5.48-2.48-3.23-4.8-6.27-6.3-10-1.5-3.72-2.98-9.1-2.98-9.1" stroke="#cc4e00" stroke-width="3" fill="#fff"/><path d="M1368.1 735.27h7.46v1.96h-7.47v-1.96z" stroke="#cc4e00" stroke-width="3" fill="#ccc"/><path d="M1367.43 724h1V749.68h-1s-.17-.2-.17-.4v-24.9c0-.18.17-.38.17-.38zM1375.06 729.6h56.4v14.1h-56.4v-14.1zM1512.88 712.93h19.9s.16.1.16.3v1.56c0 .1-.16.28-.16.28h-19.9c-.17 0-.34-.2-.34-.3v-1.56c0-.2.17-.3.34-.3z" stroke="#cc4e00" stroke-width="3" fill="#ccc"/><path d="M1532.6 706.75c.34 0 .68.3.68.7v15.67c0 .4-.34.7-.67.7-.32 0-.5-.3-.5-.7v-15.68c0-.4.18-.7.5-.7z" stroke="#cc4e00" stroke-width="3" fill="#ccc"/><path d="M1410.9 590.16L1397 610.74l82.1-.6-17.42-23.7-1 .3" stroke="#008a0e" stroke-width="3" fill="#e3fae3"/><path d="M1398.48 536.65s2.32-4 3.48-5.58c1-1.57 1.16-2.45 3.98-5.5 2.98-2.93 5.47-5.28 9.3-7.24 3.8-2.06 6.12-4.02 12.26-4.7 6.14-.8 8.13-.9 8.13-.9l61.7.2-.18 37.15-22.88-.1s.33 3.43.33 5.5c0 2.15.16 4.3-.5 7.54-.66 3.23-1.16 6.07-2.98 10-1.83 3.9-3.65 6.85-4.98 8.52-1.33 1.76-2.16 2.94-4.97 5.5-2.66 2.63-4.32 3.9-7.47 5.57-3.15 1.78-4.97 2.85-7.3 3.44-2.32.7-2.98 1.18-6.63 1.57-3.8.3-6.13.5-8.46.3-2.47-.3-5.3-.58-7.45-1.37-2.16-.78-5.8-2.35-7.96-3.53-2-1.17-2.17-.78-5.15-3.13-2.82-2.35-3.48-2.16-5.97-5.5-2.5-3.22-4.8-6.26-6.3-10-1.5-3.7-3-9.1-3-9.1" stroke="#008a0e" stroke-width="3" fill="#e3fae3"/><path d="M1355.7 552.63h7.45v1.96h-7.46v-1.97z" stroke="#008a0e" stroke-width="3" fill="#b6c8b6"/><path d="M1355.02 541.36h1V567.04h-1s-.16-.2-.16-.4v-24.9c0-.2.16-.38.16-.38zM1362.65 546.94h56.4v14.12h-56.4v-14.12zM1500.47 530.28h19.9s.17.1.17.3v1.57c0 .1-.17.3-.17.3h-19.9c-.16 0-.33-.2-.33-.3v-1.57c0-.2.17-.3.33-.3z" stroke="#008a0e" stroke-width="3" fill="#b6c8b6"/><path d="M1520.2 524.1c.34 0 .67.3.67.7v15.68c0 .4-.33.68-.66.68-.32 0-.5-.3-.5-.68V524.8c0-.4.18-.7.5-.7z" stroke="#008a0e" stroke-width="3" fill="#b6c8b6"/><path d="M1420.52 604.16l-13.93 20.58 82.08-.6-17.4-23.7-1 .3" stroke="#cc4e00" stroke-width="3" fill="#fff"/><path d="M1408.08 550.65s2.32-4 3.48-5.58c1-1.57 1.16-2.45 3.98-5.5 3-2.93 5.48-5.28 9.3-7.24 3.8-2.06 6.13-4.02 12.26-4.7 6.14-.8 8.13-.9 8.13-.9l61.7.2-.17 37.15-22.9-.1s.34 3.43.34 5.5c0 2.15.17 4.3-.5 7.54-.66 3.23-1.15 6.07-2.98 10-1.82 3.9-3.65 6.85-4.97 8.52-1.33 1.76-2.16 2.94-4.98 5.5-2.65 2.63-4.3 3.9-7.46 5.57-3.14 1.78-4.97 2.85-7.3 3.44-2.3.7-2.98 1.18-6.62 1.57-3.82.3-6.14.5-8.46.3-2.5-.3-5.3-.58-7.47-1.37-2.15-.78-5.8-2.35-7.96-3.53-2-1.17-2.16-.78-5.15-3.13-2.82-2.35-3.48-2.16-5.97-5.5-2.5-3.22-4.8-6.26-6.3-10-1.5-3.7-2.98-9.1-2.98-9.1" stroke="#cc4e00" stroke-width="3" fill="#fff"/><path d="M1365.3 566.63h7.46v1.96h-7.47v-1.97z" stroke="#cc4e00" stroke-width="3" fill="#ccc"/><path d="M1364.63 555.36h1V581.04h-1s-.17-.2-.17-.4v-24.9c0-.2.17-.38.17-.38zM1372.26 560.94h56.4v14.12h-56.4v-14.12zM1510.08 544.28h19.9s.16.1.16.3v1.57c0 .1-.16.3-.16.3h-19.9c-.17 0-.34-.2-.34-.3v-1.57c0-.2.17-.3.34-.3z" stroke="#cc4e00" stroke-width="3" fill="#ccc"/><path d="M1529.8 538.1c.34 0 .67.3.67.7v15.68c0 .4-.33.68-.66.68-.32 0-.5-.3-.5-.68V538.8c0-.4.18-.7.5-.7z" stroke="#cc4e00" stroke-width="3" fill="#ccc"/><path d="M1410.45 418.8l-13.93 20.57 82.1-.58-17.42-23.73-1 .3" stroke="#008a0e" stroke-width="3" fill="#e3fae3"/><path d="M1398 365.3s2.33-4.03 3.5-5.6c1-1.57 1.15-2.45 3.97-5.5 3-2.93 5.47-5.28 9.3-7.24 3.8-2.06 6.13-4.02 12.26-4.7 6.14-.8 8.13-.9 8.13-.9l61.7.2-.17 37.15-22.9-.1s.33 3.44.33 5.5c0 2.16.17 4.3-.5 7.55-.66 3.23-1.16 6.07-2.98 10-1.83 3.9-3.65 6.85-4.98 8.52-1.32 1.76-2.15 2.94-4.97 5.5-2.66 2.63-4.3 3.9-7.46 5.57-3.16 1.77-4.98 2.85-7.3 3.43-2.32.7-3 1.18-6.64 1.57-3.8.3-6.13.5-8.45.3-2.5-.3-5.3-.6-7.47-1.38-2.15-.78-5.8-2.35-7.96-3.52-2-1.18-2.15-.8-5.14-3.14-2.82-2.35-3.48-2.16-5.97-5.5-2.48-3.22-4.8-6.26-6.3-9.98-1.48-3.73-2.98-9.12-2.98-9.12" stroke="#008a0e" stroke-width="3" fill="#e3fae3"/><path d="M1355.22 381.26h7.46v1.96h-7.46v-1.96z" stroke="#008a0e" stroke-width="3" fill="#b6c8b6"/><path d="M1354.56 370h1V395.67h-1s-.17-.2-.17-.4v-24.9c0-.2.16-.4.16-.4zM1362.2 375.58h56.37v14.1h-56.38v-14.1zM1500 358.92h19.9s.17.1.17.3v1.56c0 .1-.16.3-.16.3H1500c-.16 0-.33-.2-.33-.3v-1.57c0-.2.17-.28.33-.28z" stroke="#008a0e" stroke-width="3" fill="#b6c8b6"/><path d="M1519.74 352.74c.33 0 .66.3.66.7v15.67c0 .4-.33.7-.66.7s-.5-.3-.5-.7v-15.67c0-.4.17-.7.5-.7z" stroke="#008a0e" stroke-width="3" fill="#b6c8b6"/><path d="M1420.05 432.8l-13.93 20.57 82.1-.58-17.42-23.73-1 .3" stroke="#cc4e00" stroke-width="3" fill="#fff"/><path d="M1407.6 379.3s2.34-4.03 3.5-5.6c1-1.57 1.16-2.45 3.98-5.5 2.98-2.93 5.47-5.28 9.28-7.24 3.82-2.06 6.14-4.02 12.28-4.7 6.13-.8 8.12-.9 8.12-.9l61.7.2-.17 37.15-22.9-.1s.34 3.44.34 5.5c0 2.16.16 4.3-.5 7.55-.66 3.23-1.16 6.07-3 10-1.8 3.9-3.63 6.85-4.96 8.52-1.33 1.76-2.16 2.94-4.98 5.5-2.65 2.63-4.3 3.9-7.46 5.57-3.15 1.77-4.98 2.85-7.3 3.43-2.32.7-2.98 1.18-6.63 1.57-3.8.3-6.13.5-8.45.3-2.5-.3-5.3-.6-7.46-1.38-2.17-.78-5.82-2.35-7.97-3.52-2-1.18-2.16-.8-5.14-3.14-2.83-2.35-3.5-2.16-5.98-5.5-2.5-3.22-4.8-6.26-6.3-9.98-1.5-3.73-3-9.12-3-9.12" stroke="#cc4e00" stroke-width="3" fill="#fff"/><path d="M1364.83 395.26h7.46v1.96h-7.47v-1.96z" stroke="#cc4e00" stroke-width="3" fill="#ccc"/><path d="M1364.16 384h1V409.67h-1s-.16-.2-.16-.4v-24.9c0-.2.16-.4.16-.4zM1371.8 389.58h56.38v14.1h-56.4v-14.1zM1509.6 372.92h19.9s.18.1.18.3v1.56c0 .1-.17.3-.17.3h-19.9c-.16 0-.32-.2-.32-.3v-1.57c0-.2.16-.28.33-.28z" stroke="#cc4e00" stroke-width="3" fill="#ccc"/><path d="M1529.34 366.74c.34 0 .67.3.67.7v15.67c0 .4-.32.7-.66.7-.33 0-.5-.3-.5-.7v-15.67c0-.4.17-.7.5-.7z" stroke="#cc4e00" stroke-width="3" fill="#ccc"/><path d="M1412 449.92l-13.93 20.58 82.1-.6-17.42-23.7-1 .3" stroke="#c00" stroke-width="3" fill="#fff0f0"/><path d="M1399.56 396.4s2.33-4 3.5-5.58c.98-1.57 1.15-2.45 3.97-5.5 2.98-2.93 5.47-5.28 9.28-7.24 3.83-2.06 6.15-4.02 12.3-4.7 6.12-.8 8.1-.88 8.1-.88l61.7.2-.16 37.13-22.88-.1s.33 3.44.33 5.5c0 2.15.15 4.3-.5 7.54-.67 3.23-1.17 6.08-3 10-1.82 3.92-3.64 6.86-4.97 8.52-1.33 1.76-2.16 2.93-4.98 5.48-2.65 2.65-4.3 3.92-7.46 5.6-3.16 1.75-4.98 2.83-7.3 3.42-2.33.68-3 1.17-6.64 1.56-3.8.3-6.14.5-8.46.3-2.5-.3-5.3-.6-7.46-1.37-2.16-.8-5.8-2.37-7.96-3.54-2-1.18-2.16-.8-5.14-3.14-2.82-2.35-3.5-2.15-5.97-5.5-2.5-3.22-4.8-6.26-6.3-9.98-1.5-3.73-3-9.12-3-9.12" stroke="#c00" stroke-width="3" fill="#fff0f0"/><path d="M1356.78 412.38h7.46v1.96h-7.46v-1.96z" stroke="#c00" stroke-width="3" fill="#ccc0c0"/><path d="M1356.1 401.1h1V426.8h-1s-.15-.2-.15-.4v-24.9c0-.2.16-.4.16-.4zM1363.74 406.7h56.4v14.1h-56.4v-14.1zM1501.56 390.04h19.9s.17.1.17.3v1.56c0 .1-.17.3-.17.3h-19.9c-.17 0-.33-.2-.33-.3v-1.57c0-.2.16-.3.33-.3z" stroke="#c00" stroke-width="3" fill="#ccc0c0"/><path d="M1521.3 383.86c.33 0 .66.3.66.7v15.67c0 .4-.33.7-.66.7-.34 0-.5-.3-.5-.7v-15.68c0-.4.16-.7.5-.7z" stroke="#c00" stroke-width="3" fill="#ccc0c0"/><path d="M1412 619.58l-13.93 20.58 82.1-.58-17.42-23.72-1 .3" stroke="#c00" stroke-width="3" fill="#fff0f0"/><path d="M1399.56 566.08s2.33-4.02 3.5-5.6c.98-1.56 1.15-2.44 3.97-5.48 2.98-2.94 5.47-5.3 9.28-7.25 3.83-2.06 6.15-4.02 12.3-4.7 6.12-.8 8.1-.9 8.1-.9l61.7.2-.16 37.15-22.88-.1s.33 3.43.33 5.5c0 2.15.15 4.3-.5 7.54-.67 3.23-1.17 6.07-3 10-1.82 3.9-3.64 6.85-4.97 8.52-1.33 1.76-2.16 2.94-4.98 5.5-2.65 2.63-4.3 3.9-7.46 5.57-3.16 1.77-4.98 2.85-7.3 3.43-2.33.7-3 1.18-6.64 1.57-3.8.3-6.14.5-8.46.3-2.5-.3-5.3-.6-7.46-1.38-2.16-.78-5.8-2.35-7.96-3.52-2-1.18-2.16-.8-5.14-3.14-2.82-2.36-3.5-2.17-5.97-5.5-2.5-3.23-4.8-6.27-6.3-10-1.5-3.72-3-9.1-3-9.1" stroke="#c00" stroke-width="3" fill="#fff0f0"/><path d="M1356.78 582.05h7.46V584h-7.46v-1.95z" stroke="#c00" stroke-width="3" fill="#ccc0c0"/><path d="M1356.1 570.78h1V596.46h-1s-.15-.2-.15-.4v-24.9c0-.18.16-.38.16-.38zM1363.74 576.37h56.4v14.1h-56.4v-14.1zM1501.56 559.7h19.9s.17.1.17.3v1.57c0 .1-.17.3-.17.3h-19.9c-.17 0-.33-.2-.33-.3V560c0-.2.16-.3.33-.3z" stroke="#c00" stroke-width="3" fill="#ccc0c0"/><path d="M1521.3 553.53c.33 0 .66.3.66.7v15.67c0 .4-.33.68-.66.68-.34 0-.5-.3-.5-.68v-15.68c0-.4.16-.7.5-.7z" stroke="#c00" stroke-width="3" fill="#ccc0c0"/><path d="M1412 789.25l-13.93 20.58 82.1-.6-17.42-23.7-1 .3" stroke="#c00" stroke-width="3" fill="#fff0f0"/><path d="M1399.56 735.74s2.33-4 3.5-5.58c.98-1.57 1.15-2.45 3.97-5.5 2.98-2.93 5.47-5.28 9.28-7.24 3.83-2.06 6.15-4.02 12.3-4.7 6.12-.8 8.1-.9 8.1-.9l61.7.2-.16 37.15-22.88-.1s.33 3.43.33 5.5c0 2.15.15 4.3-.5 7.54-.67 3.24-1.17 6.08-3 10-1.82 3.92-3.64 6.86-4.97 8.53-1.33 1.76-2.16 2.94-4.98 5.5-2.65 2.63-4.3 3.9-7.46 5.57-3.16 1.77-4.98 2.84-7.3 3.43-2.33.7-3 1.18-6.64 1.57-3.8.3-6.14.5-8.46.3-2.5-.3-5.3-.6-7.46-1.38-2.16-.78-5.8-2.35-7.96-3.53-2-1.18-2.16-.8-5.14-3.14-2.82-2.35-3.5-2.16-5.97-5.5-2.5-3.22-4.8-6.26-6.3-10-1.5-3.7-3-9.1-3-9.1" stroke="#c00" stroke-width="3" fill="#fff0f0"/><path d="M1356.78 751.72h7.46v1.96h-7.46v-1.96z" stroke="#c00" stroke-width="3" fill="#ccc0c0"/><path d="M1356.1 740.45h1V766.13h-1s-.15-.2-.15-.4v-24.9c0-.2.16-.38.16-.38zM1363.74 746.03h56.4v14.12h-56.4v-14.12zM1501.56 729.37h19.9s.17.1.17.3v1.57c0 .1-.17.3-.17.3h-19.9c-.17 0-.33-.2-.33-.3v-1.57c0-.2.16-.3.33-.3z" stroke="#c00" stroke-width="3" fill="#ccc0c0"/><path d="M1521.3 723.2c.33 0 .66.3.66.7v15.67c0 .4-.33.68-.66.68-.34 0-.5-.3-.5-.68V723.9c0-.4.16-.7.5-.7z" stroke="#c00" stroke-width="3" fill="#ccc0c0"/><path d="M370.55 912.94a6 6 0 0 1 6-6h228a6 6 0 0 1 6 6v48a6 6 0 0 1-6 6h-228a6 6 0 0 1-6-6z" stroke="#000" stroke-opacity="0" stroke-width="3" fill="#fff" fill-opacity="0"/><use xlink:href="#k" transform="matrix(1,0,0,1,375.54945130429553,911.9403007894289) translate(55.83333333333333 30.27777777777778)"/><use xlink:href="#l" transform="matrix(1,0,0,1,375.54945130429553,911.9403007894289) translate(117.56172839506172 30.27777777777778)"/><path d="M415.68 979.43a6 6 0 0 1 6-6h148a6 6 0 0 1 6 6v13.22a6 6 0 0 1-6 6h-148a6 6 0 0 1-6-6z" stroke="#282c33" stroke-width="2" fill="#fff"/><use xlink:href="#m" transform="matrix(1,0,0,1,420.68250008618486,978.4322229726838) translate(75 17.06666666666667)"/><path d="M415.68 1004.65a6 6 0 0 1 6-6h148a6 6 0 0 1 6 6v13.22a6 6 0 0 1-6 6h-148a6 6 0 0 1-6-6z" stroke="#282c33" stroke-width="2" fill="#fff"/><use xlink:href="#m" transform="matrix(1,0,0,1,420.68250008618486,1003.652029525528) translate(75 17.06666666666667)"/><path d="M415.68 1029.87a6 6 0 0 1 6-6h148a6 6 0 0 1 6 6v13.22a6 6 0 0 1-6 6h-148a6 6 0 0 1-6-6z" stroke="#282c33" stroke-width="2" fill="#fff"/><use xlink:href="#m" transform="matrix(1,0,0,1,420.6825000861848,1028.871836078372) translate(75 17.06666666666667)"/><path d="M715.23 979.43a6 6 0 0 1 6-6h148a6 6 0 0 1 6 6v13.22a6 6 0 0 1-6 6h-148a6 6 0 0 1-6-6z" stroke="#282c33" stroke-width="2" fill="#fff"/><use xlink:href="#m" transform="matrix(1,0,0,1,720.2296584664924,978.4322229726838) translate(75 17.06666666666667)"/><path d="M715.23 1004.65a6 6 0 0 1 6-6h148a6 6 0 0 1 6 6v13.22a6 6 0 0 1-6 6h-148a6 6 0 0 1-6-6z" stroke="#282c33" stroke-width="2" fill="#fff"/><use xlink:href="#m" transform="matrix(1,0,0,1,720.2296584664924,1003.652029525528) translate(75 17.06666666666667)"/><path d="M715.23 1029.87a6 6 0 0 1 6-6h148a6 6 0 0 1 6 6v13.22a6 6 0 0 1-6 6h-148a6 6 0 0 1-6-6z" stroke="#282c33" stroke-width="2" fill="#fff"/><use xlink:href="#m" transform="matrix(1,0,0,1,720.2296584664923,1028.871836078372) translate(75 17.06666666666667)"/><path d="M1276.53 236.77v2m0 8v4.02m0 8v4m0 8.02v4m0 8.02v4m0 8.02v4m0 8.02v4m0 8.02v4m0 8.02v4m0 8.02v4m0 8.02v4m0 8.02v4m0 8.02v4m0 8.02v4m0 8.02v4m0 8.02v4m0 8.02v4m0 8.02v4m0 8.02v4m0 8.02v4m0 8.02v4m0 8.02v4m0 8.02v4m0 8.02v4m0 8.02v4m0 8.02v4m0 8.02v4m0 8.02v4m0 8.02v4m0 8.02v4m0 8.02v4m0 8v4.02m0 8v4.02m0 8v4.02m0 8v4.02m0 8v4.02m0 8v4.02m0 8v4.02m0 8v4.02m0 8v4.02m0 8v4.02m0 8v4.02m0 8v4.02m0 8v4.02m0 8v4.02m0 8v4.02m0 8v4.02m0 8v4.02m0 8v4.02m0 8v4.02m0 8v4.02m0 8v4.02m0 8v4.02m0 8v4.02m0 8v4m0 8.03v4m0 8.02v4m0 8.02v4m0 8v4m0 8.03v4m0 8.02v4m0 8.02v4m0 8.02v4m0 8v4m0 8.03v4m0 8.02v4m0 8v4.02m0 8v4.02m0 8v4m0 8.02v4m0 8.02v4m0 8.02v4m0 8.02v4m0 8.02v4m0 8.02v4m0 8.02v4m0 8.02v4m0 8.02v4m0 8.02v2M1276.53 236.8v-1.03M1276.53 1174.28v1.02M955.8 238.26v2m0 8.02v4m0 8.02v4m0 8.02v4m0 8.02v4m0 8.02v4m0 8.02v4m0 8.02v4m0 8.02v4m0 8.02v4m0 8v4.02m0 8v4.02m0 8v4.02m0 8v4.02m0 8v4.02m0 8v4.02m0 8v4.02m0 8v4.02m0 8v4.02m0 8v4.02m0 8v4.02m0 8v4.02m0 8v4.02m0 8v4.02m0 8v4.02m0 8v4.02m0 8v4.02m0 8v4.02m0 8v4.02m0 8v4.02m0 8v4.02m0 8v4.02m0 8v4.02m0 8v4m0 8.03v4m0 8.02v4m0 8.02v4m0 8.02v4m0 8v4m0 8.03v4m0 8.02v4m0 8.02v4m0 8.02v4m0 8v4m0 8.02v4m0 8.02v4m0 8.02v4m0 8.02v4m0 8.02v4m0 8.02v4m0 8.02v4m0 8.02v4m0 8.02v4m0 8.02v4m0 8.02v4m0 8.02v4m0 8.02v4m0 8.02v4m0 8.02v4m0 8.02v4m0 8.02v4m0 8.02v4m0 8.02v4m0 8.02v4m0 8.02v4m0 8.02v4m0 8.02v4m0 8.02v4m0 8.02v4m0 8.02v4m0 8.02v4m0 8.02v4m0 8.02v4m0 8.02v4m0 8.02v4m0 8.02v4m0 8.02v4m0 8.02v4m0 8.02v2M955.8 238.3v-1.04M955.8 1175.77v1.03M632.73 239.73v2m0 8.02v4m0 8.02v4m0 8.02v4m0 8v4m0 8.03v4m0 8.02v4m0 8.02v4m0 8.02v4m0 8v4m0 8.02v4m0 8.02v4m0 8.02v4m0 8.02v4m0 8.02v4m0 8.02v4m0 8.02v4m0 8.02v4m0 8.02v4m0 8.02v4m0 8.02v4m0 8.02v4m0 8.02v4m0 8.02v4m0 8.02v4m0 8.02v4m0 8.02v4m0 8.02v4m0 8.02v4m0 8.02v4m0 8.02v4m0 8.02v4m0 8.02v4m0 8.02v4m0 8.02v4m0 8.02v4m0 8.02v4m0 8.02v4m0 8.02v4m0 8.02v4m0 8.02v4m0 8.02v4m0 8.02v4m0 8.02v4m0 8.02v4m0 8v4.02m0 8v4.02m0 8v4.02m0 8v4.02m0 8v4.02m0 8v4.02m0 8v4.02m0 8v4.02m0 8v4.02m0 8v4.02m0 8v4.02m0 8v4.02m0 8v4.02m0 8v4.02m0 8v4.02m0 8v4.02m0 8v4.02m0 8v4.02m0 8V999m0 8v4.02m0 8v4.02m0 8v4.02m0 8v4m0 8.03v4m0 8.02v4m0 8v4m0 8.03v4m0 8.02v4m0 8.02v4m0 8.02v4m0 8v4m0 8.03v4m0 8.02v4m0 8.02v2M632.73 239.76v-1.03M632.73 1177.24v1.03M1551.77 874.74h-2m-8.04 0h-4.02m-8.02 0h-4.02m-8.03 0h-4.02m-8.02 0h-4.02m-8.03 0h-4.02m-8.03 0h-4m-8.05 0h-4m-8.05 0h-4m-8.05 0h-4.02m-8.03 0h-4.02m-8.03 0h-4.02m-8.03 0h-4.02m-8.03 0h-4.02m-8.03 0h-4.02m-8.03 0H1369m-8.03 0h-4.02m-8.04 0h-4m-8.04 0h-4m-8.05 0h-4m-8.04 0h-4m-8.05 0h-4m-8.04 0h-4.02m-8.03 0h-4m-8.04 0h-4.02m-8.03 0h-4m-8.04 0h-4.02m-8.03 0h-4m-8.04 0h-4.02m-8.04 0h-4m-8.05 0h-4m-8.05 0h-4m-8.05 0h-4m-8.05 0h-4.02m-8.03 0h-4.02m-8.03 0h-4.02m-8.03 0h-4.02m-8.03 0h-4.02m-8.03 0h-4.02m-8.03 0h-4.02m-8.03 0h-4.02m-8.04 0h-4.02m-8.04 0h-4m-8.05 0h-4.02m-8.04 0h-4m-8.05 0h-4.03m-8.03 0h-4.02m-8.03 0h-4.03m-8.03 0h-4.02m-8.03 0h-4.03m-8.03 0h-4.02m-8.03 0h-4.03m-8.03 0h-4.02m-8.04 0h-4m-8.05 0h-4m-8.05 0h-4m-8.05 0h-4m-8.05 0h-4.02m-8.03 0h-4.02m-8.02 0h-4.02m-8.03 0h-4.02m-8.02 0h-4.02m-8.03 0h-4.02m-8.02 0h-4.02m-8.03 0h-4.02m-8.03 0h-4m-8.05 0h-4m-8.05 0h-4m-8.05 0h-4m-8.05 0h-4.02m-8.03 0h-4.02m-8.03 0h-4.02m-8.03 0h-4.02m-8.03 0h-4.02m-8.03 0H658m-8.03 0h-4.02m-8.03 0h-4.02m-8.04 0h-4m-8.05 0h-4m-8.04 0h-4m-8.05 0h-4m-8.04 0h-4.02m-8.03 0h-4m-8.04 0h-4.02m-8.03 0h-4m-8.04 0h-4.02m-8.03 0h-4m-8.04 0h-4.02m-8.03 0h-4m-8.05 0h-4m-8.05 0h-4m-8.05 0h-4m-8.05 0h-4m-8.05 0h-4.02m-8.03 0h-4.02m-8.03 0h-2M1551.75 874.74h1.02M406.97 874.74h-1.03" stroke="#6f7681" stroke-width="2" fill="none"/><g fill="none"><path d="M869.23 886.94a6 6 0 0 1 6 6v68a6 6 0 0 1-6 6h-148a6 6 0 0 1-6-6v-68a6 6 0 0 1 6-6z"/><path d="M715.23 886.94c0 11 8.9 19.9 19.9 19.9h40.2c11 0 19.9 8.9 19.9 19.9 0-11 8.9-19.9 19.9-19.9h40.2c11 0 19.9-8.9 19.9-19.9" stroke="#4c535d" stroke-width="3"/></g><path d="M795.23 929.75v22.1M795.23 929.8v-4.55" stroke="#4c535d" stroke-width="3" fill="none"/><path d="M795.23 967.6l-4.63-14.25h9.27z" stroke="#4c535d" stroke-width="3" fill="#4c535d"/><path d="M1043.48 979.43a6 6 0 0 1 6-6h148a6 6 0 0 1 6 6v13.22a6 6 0 0 1-6 6h-148a6 6 0 0 1-6-6z" stroke="#282c33" stroke-width="2" fill="#fff"/><use xlink:href="#m" transform="matrix(1,0,0,1,1048.4826555549776,978.432222972684) translate(75 17.06666666666667)"/><path d="M1043.48 1004.65a6 6 0 0 1 6-6h148a6 6 0 0 1 6 6v13.22a6 6 0 0 1-6 6h-148a6 6 0 0 1-6-6z" stroke="#282c33" stroke-width="2" fill="#fff"/><use xlink:href="#m" transform="matrix(1,0,0,1,1048.4826555549776,1003.652029525528) translate(75 17.06666666666667)"/><path d="M1043.48 1029.87a6 6 0 0 1 6-6h148a6 6 0 0 1 6 6v13.22a6 6 0 0 1-6 6h-148a6 6 0 0 1-6-6z" stroke="#282c33" stroke-width="2" fill="#fff"/><use xlink:href="#m" transform="matrix(1,0,0,1,1048.4826555549773,1028.871836078372) translate(75 17.06666666666667)"/><g fill="none"><path d="M1197.48 886.94a6 6 0 0 1 6 6v68a6 6 0 0 1-6 6h-148a6 6 0 0 1-6-6v-68a6 6 0 0 1 6-6z"/><path d="M1043.48 886.94c0 11 8.9 19.9 19.9 19.9h40.2c11 0 19.9 8.9 19.9 19.9 0-11 8.9-19.9 19.9-19.9h40.2c11 0 19.9-8.9 19.9-19.9" stroke="#4c535d" stroke-width="3"/></g><path d="M1123.5 929.75v22.1M1123.5 929.8v-4.55" stroke="#4c535d" stroke-width="3" fill="none"/><path d="M1123.5 967.6l-4.65-14.25h9.27z" stroke="#4c535d" stroke-width="3" fill="#4c535d"/><path d="M1355.95 981.2a6 6 0 0 1 6-6h148a6 6 0 0 1 6 6v13.23a6 6 0 0 1-6 6h-148a6 6 0 0 1-6-6z" stroke="#282c33" stroke-width="2" fill="#fff"/><use xlink:href="#m" transform="matrix(1,0,0,1,1360.9464404310054,980.2137064135532) translate(75 17.06666666666667)"/><path d="M1355.95 1006.43a6 6 0 0 1 6-6h148a6 6 0 0 1 6 6v13.22a6 6 0 0 1-6 6h-148a6 6 0 0 1-6-6z" stroke="#282c33" stroke-width="2" fill="#fff"/><use xlink:href="#m" transform="matrix(1,0,0,1,1360.9464404310054,1005.4335129663971) translate(75 17.06666666666667)"/><path d="M1355.95 1031.65a6 6 0 0 1 6-6h148a6 6 0 0 1 6 6v13.22a6 6 0 0 1-6 6h-148a6 6 0 0 1-6-6z" stroke="#282c33" stroke-width="2" fill="#fff"/><use xlink:href="#m" transform="matrix(1,0,0,1,1360.9464404310052,1030.6533195192412) translate(75 17.06666666666667)"/><g fill="none"><path d="M1509.95 888.72a6 6 0 0 1 6 6v68a6 6 0 0 1-6 6h-148a6 6 0 0 1-6-6v-68a6 6 0 0 1 6-6z"/><path d="M1355.95 888.72c0 11 8.9 19.9 19.9 19.9h40.2c11 0 19.9 8.9 19.9 19.9 0-11 8.9-19.9 19.9-19.9h40.2c11 0 19.9-8.9 19.9-19.9" stroke="#4c535d" stroke-width="3"/></g><path d="M1435.95 931.53v22.1M1435.95 931.57v-4.54" stroke="#4c535d" stroke-width="3" fill="none"/><path d="M1435.95 969.4l-4.63-14.27h9.27z" stroke="#4c535d" stroke-width="3" fill="#4c535d"/><path d="M596.46 1010.4h80.5M596.48 1010.4h-1.02" stroke="#4c535d" stroke-width="2" fill="none"/><path d="M692.22 1010.4l-14.27 4.63v-9.27z" stroke="#4c535d" stroke-width="2" fill="#4c535d"/><path d="M910.36 1011.4h80.5M910.38 1011.4h-1.02" stroke="#4c535d" stroke-width="2" fill="none"/><path d="M1006.12 1011.4l-14.27 4.64v-9.27z" stroke="#4c535d" stroke-width="2" fill="#4c535d"/><path d="M1236.43 1013.47h80.5M1236.46 1013.47h-1.03" stroke="#4c535d" stroke-width="2" fill="none"/><path d="M1332.2 1013.47l-14.27 4.64v-9.26z" stroke="#4c535d" stroke-width="2" fill="#4c535d"/><path d="M793.34 1080.96v58.54M793.34 1081v-1.04" stroke="#635dff" stroke-width="2" fill="none"/><path d="M793.34 1154.76l-4.64-14.26h9.27z" stroke="#635dff" stroke-width="2" fill="#635dff"/><path d="M1125.15 1080.64v58.53M1125.15 1080.66v-1.02" stroke="#635dff" stroke-width="2" fill="none"/><path d="M1125.15 1154.44l-4.63-14.27h9.27z" stroke="#635dff" stroke-width="2" fill="#635dff"/><path d="M1435.37 1081.47V1140M1435.37 1081.5v-1.03" stroke="#635dff" stroke-width="2" fill="none"/><path d="M1435.37 1155.27l-4.64-14.26h9.27z" stroke="#635dff" stroke-width="2" fill="#635dff"/><path d="M1434.87 1125.7h-5.02m-5.02 0h-10.04m-5.03 0h-10.04m-5.02 0h-10.03m-5.02 0h-10.04m-5 0h-10.05m-5.02 0h-10.04m-5.03 0h-10.04m-5.02 0h-10.04m-5.02 0h-10.04m-5.02 0h-10.04m-5.02 0h-10.04m-5.02 0h-10.04m-5.02 0h-10.04m-5.02 0H1219m-5.02 0h-10.04m-5.02 0h-10.04m-5.02 0h-10.04m-5.02 0h-10.04m-5.02 0h-10.04m-5.02 0h-10.04m-5.02 0h-10.04m-5.02 0h-10.04m-5.02 0h-10.04m-5.02 0h-10.04m-5.02 0h-10.04m-5.02 0h-10.04m-5.03 0h-10.04m-5 0h-10.05m-5.02 0h-5.02l-.07-.02-.08-.02-.08-.03-.07-.05-.07-.05-.05-.07-.05-.07-.03-.1-.02-.07v-.18l-.03-.07-.04-.08-.03-.07-.05-.07-.07-.05-.07-.04-.08-.03-.08-.02h-5.02m-5.02 0h-10.05m-5.02 0h-10.03m-5.02 0H946.9m-5.02 0h-10.04m-5.02 0h-10.04m-5.02 0h-10.04m-5.03 0h-10.05m-5.02 0H871.6m-5.03 0h-10.04m-5.03 0h-10.04m-5.02 0H826.4m-5.02 0h-10.04m-5.03 0h-10.03m-5.02 0H781.2m-5 0h-10.06m-5.02 0h-10.04m-5.02 0h-10.04m-5.02 0h-10.05m-5.02 0H705.9m-5.03 0h-10.04m-5.02 0h-10.04m-5.02 0H660.7m-5.02 0h-10.04m-5.02 0h-10.05m-5.02 0H615.5m-5 0h-10.05m-5.02 0h-10.05m-5.02 0h-10.04m-5.02 0h-5.02M1434.86 1125.7h.5" stroke="#635dff" fill="none"/><path d="M560.3 1125.1h-.52v-1h.5z" stroke="#635dff" stroke-width=".05" fill="#635dff"/><path d="M438 1100.6a6 6 0 0 1 6-6h109.8a6 6 0 0 1 6 6v48a6 6 0 0 1-6 6H444a6 6 0 0 1-6-6z" stroke="#000" stroke-opacity="0" stroke-width="3" fill="#fff" fill-opacity="0"/><g><use xlink:href="#n" transform="matrix(1,0,0,1,442.99771272021565,1099.6055537657014) translate(15.907407407407405 30.27777777777778)"/></g><g><path d="M276 620.98a6 6 0 0 1-6-6v-228a6 6 0 0 1 6-6h48a6 6 0 0 1 6 6v228a6 6 0 0 1-6 6z" stroke="#000" stroke-opacity="0" stroke-width="3" fill="#fff" fill-opacity="0"/></g><g><use xlink:href="#o" transform="matrix(6.123233995736766e-17,-1,1,6.123233995736766e-17,275,615.9801791094601) translate(54.04320987654321 30.27777777777778)"/></g><g><path d="M276 1167.14a6 6 0 0 1-6-6v-228a6 6 0 0 1 6-6h48a6 6 0 0 1 6 6v228a6 6 0 0 1-6 6z" stroke="#000" stroke-opacity="0" stroke-width="3" fill="#fff" fill-opacity="0"/></g><g><use xlink:href="#p" transform="matrix(6.123233995736766e-17,-1,1,6.123233995736766e-17,274.9999999999999,1162.13745215716) translate(60.216049382716044 30.27777777777778)"/></g><path d="M988.8 113.7a6 6 0 0 1 6-6h228a6 6 0 0 1 6 6v48a6 6 0 0 1-6 6h-228a6 6 0 0 1-6-6z" stroke="#000" stroke-opacity="0" stroke-width="3" fill="#fff" fill-opacity="0"/><g><use xlink:href="#q" transform="matrix(1,0,0,1,993.7939592312966,112.7129003199536) translate(91.57407407407408 30.27777777777778)"/></g><defs><path fill="#333" d="M30-248c118-7 216 8 213 122C240-48 200 0 122 0H30v-248zM63-27c89 8 146-16 146-99s-60-101-146-95v194" id="r"/><path fill="#333" d="M24-231v-30h32v30H24zM24 0v-190h32V0H24" id="s"/><path fill="#333" d="M141-36C126-15 110 5 73 4 37 3 15-17 15-53c-1-64 63-63 125-63 3-35-9-54-41-54-24 1-41 7-42 31l-33-3c5-37 33-52 76-52 45 0 72 20 72 64v82c-1 20 7 32 28 27v20c-31 9-61-2-59-35zM48-53c0 20 12 33 32 33 41-3 63-29 60-74-43 2-92-5-92 41" id="t"/><g id="a"><use transform="matrix(0.06172839506172839,0,0,0.06172839506172839,0,0)" xlink:href="#r"/><use transform="matrix(0.06172839506172839,0,0,0.06172839506172839,15.987654320987653,0)" xlink:href="#s"/><use transform="matrix(0.06172839506172839,0,0,0.06172839506172839,20.864197530864196,0)" xlink:href="#t"/></g><path fill="#333" d="M27 0v-27h64v-190l-56 39v-29l58-41h29v221h61V0H27" id="u"/><use transform="matrix(0.06172839506172839,0,0,0.06172839506172839,0,0)" xlink:href="#u" id="b"/><path fill="#333" d="M101-251c82-7 93 87 43 132L82-64C71-53 59-42 53-27h129V0H18c2-99 128-94 128-182 0-28-16-43-45-43s-46 15-49 41l-32-3c6-41 34-60 81-64" id="v"/><use transform="matrix(0.06172839506172839,0,0,0.06172839506172839,0,0)" xlink:href="#v" id="c"/><path fill="#333" d="M126-127c33 6 58 20 58 59 0 88-139 92-164 29-3-8-5-16-6-25l32-3c6 27 21 44 54 44 32 0 52-15 52-46 0-38-36-46-79-43v-28c39 1 72-4 72-42 0-27-17-43-46-43-28 0-47 15-49 41l-32-3c6-42 35-63 81-64 48-1 79 21 79 65 0 36-21 52-52 59" id="w"/><use transform="matrix(0.06172839506172839,0,0,0.06172839506172839,0,0)" xlink:href="#w" id="d"/><path fill="#333" d="M205 0l-28-72H64L36 0H1l101-248h38L239 0h-34zm-38-99l-47-123c-12 45-31 82-46 123h93" id="x"/><path fill="#333" d="M114-163C36-179 61-72 57 0H25l-1-190h30c1 12-1 29 2 39 6-27 23-49 58-41v29" id="y"/><path fill="#333" d="M59-47c-2 24 18 29 38 22v24C64 9 27 4 27-40v-127H5v-23h24l9-43h21v43h35v23H59v120" id="z"/><path fill="#333" d="M96-169c-40 0-48 33-48 73s9 75 48 75c24 0 41-14 43-38l32 2c-6 37-31 61-74 61-59 0-76-41-82-99-10-93 101-131 147-64 4 7 5 14 7 22l-32 3c-4-21-16-35-41-35" id="A"/><path fill="#333" d="M84 4C-5 8 30-112 23-190h32v120c0 31 7 50 39 49 72-2 45-101 50-169h31l1 190h-30c-1-10 1-25-2-33-11 22-28 36-60 37" id="B"/><path fill="#333" d="M24 0v-261h32V0H24" id="C"/><path fill="#333" d="M100-194c62-1 85 37 85 99 1 63-27 99-86 99S16-35 15-95c0-66 28-99 85-99zM99-20c44 1 53-31 53-75 0-43-8-75-51-75s-53 32-53 75 10 74 51 75" id="D"/><g id="e"><use transform="matrix(0.06172839506172839,0,0,0.06172839506172839,0,0)" xlink:href="#x"/><use transform="matrix(0.06172839506172839,0,0,0.06172839506172839,14.814814814814813,0)" xlink:href="#y"/><use transform="matrix(0.06172839506172839,0,0,0.06172839506172839,22.160493827160494,0)" xlink:href="#z"/><use transform="matrix(0.06172839506172839,0,0,0.06172839506172839,28.333333333333332,0)" xlink:href="#s"/><use transform="matrix(0.06172839506172839,0,0,0.06172839506172839,33.20987654320987,0)" xlink:href="#A"/><use transform="matrix(0.06172839506172839,0,0,0.06172839506172839,44.32098765432099,0)" xlink:href="#B"/><use transform="matrix(0.06172839506172839,0,0,0.06172839506172839,56.666666666666664,0)" xlink:href="#C"/><use transform="matrix(0.06172839506172839,0,0,0.06172839506172839,61.54320987654321,0)" xlink:href="#D"/></g><path fill="#333" d="M30-248c87 1 191-15 191 75 0 78-77 80-158 76V0H30v-248zm33 125c57 0 124 11 124-50 0-59-68-47-124-48v98" id="E"/><path fill="#333" d="M85-194c31 0 48 13 60 33l-1-100h32l1 261h-30c-2-10 0-23-3-31C134-8 116 4 85 4 32 4 16-35 15-94c0-66 23-100 70-100zm9 24c-40 0-46 34-46 75 0 40 6 74 45 74 42 0 51-32 51-76 0-42-9-74-50-73" id="F"/><path fill="#333" d="M100-194c63 0 86 42 84 106H49c0 40 14 67 53 68 26 1 43-12 49-29l28 8c-11 28-37 45-77 45C44 4 14-33 15-96c1-61 26-98 85-98zm52 81c6-60-76-77-97-28-3 7-6 17-6 28h103" id="G"/><path fill="#333" d="M117-194c89-4 53 116 60 194h-32v-121c0-31-8-49-39-48C34-167 62-67 57 0H25l-1-190h30c1 10-1 24 2 32 11-22 29-35 61-36" id="H"/><g id="f"><use transform="matrix(0.06172839506172839,0,0,0.06172839506172839,0,0)" xlink:href="#E"/><use transform="matrix(0.06172839506172839,0,0,0.06172839506172839,14.814814814814813,0)" xlink:href="#y"/><use transform="matrix(0.06172839506172839,0,0,0.06172839506172839,22.160493827160494,0)" xlink:href="#D"/><use transform="matrix(0.06172839506172839,0,0,0.06172839506172839,34.50617283950617,0)" xlink:href="#F"/><use transform="matrix(0.06172839506172839,0,0,0.06172839506172839,46.85185185185185,0)" xlink:href="#B"/><use transform="matrix(0.06172839506172839,0,0,0.06172839506172839,59.197530864197525,0)" xlink:href="#A"/><use transform="matrix(0.06172839506172839,0,0,0.06172839506172839,70.30864197530863,0)" xlink:href="#G"/><use transform="matrix(0.06172839506172839,0,0,0.06172839506172839,82.65432098765432,0)" xlink:href="#H"/></g><path fill="#333" d="M72 4L0-261h28L100 4H72" id="I"/><use transform="matrix(0.06172839506172839,0,0,0.06172839506172839,0,0)" xlink:href="#I" id="g"/><path fill="#333" d="M30 0v-248h187v28H63v79h144v27H63v87h162V0H30" id="J"/><g id="h"><use transform="matrix(0.06172839506172839,0,0,0.06172839506172839,0,0)" xlink:href="#J"/><use transform="matrix(0.06172839506172839,0,0,0.06172839506172839,14.814814814814813,0)" xlink:href="#H"/></g><path fill="#333" d="M240 0l2-218c-23 76-54 145-80 218h-23L58-218 59 0H30v-248h44l77 211c21-75 51-140 76-211h43V0h-30" id="K"/><path fill="#333" d="M145-31C134-9 116 4 85 4 32 4 16-35 15-94c0-59 17-99 70-100 32-1 48 14 60 33 0-11-1-24 2-32h30l-1 268h-32zM93-21c41 0 51-33 51-76s-8-73-50-73c-40 0-46 35-46 75s5 74 45 74" id="L"/><path fill="#333" d="M135-143c-3-34-86-38-87 0 15 53 115 12 119 90S17 21 10-45l28-5c4 36 97 45 98 0-10-56-113-15-118-90-4-57 82-63 122-42 12 7 21 19 24 35" id="M"/><g id="i"><use transform="matrix(0.06172839506172839,0,0,0.06172839506172839,0,0)" xlink:href="#K"/><use transform="matrix(0.06172839506172839,0,0,0.06172839506172839,18.456790123456788,0)" xlink:href="#t"/><use transform="matrix(0.06172839506172839,0,0,0.06172839506172839,30.80246913580247,0)" xlink:href="#L"/><use transform="matrix(0.06172839506172839,0,0,0.06172839506172839,43.148148148148145,0)" xlink:href="#B"/><use transform="matrix(0.06172839506172839,0,0,0.06172839506172839,55.49382716049382,0)" xlink:href="#s"/><use transform="matrix(0.06172839506172839,0,0,0.06172839506172839,60.37037037037037,0)" xlink:href="#H"/><use transform="matrix(0.06172839506172839,0,0,0.06172839506172839,72.71604938271605,0)" xlink:href="#t"/><use transform="matrix(0.06172839506172839,0,0,0.06172839506172839,85.06172839506173,0)" xlink:href="#M"/></g><path fill="#333" d="M87 75C49 33 22-17 22-94c0-76 28-126 65-167h31c-38 41-64 92-64 168S80 34 118 75H87" id="N"/><path fill="#333" d="M64 0c3-98 48-159 88-221H18v-27h164v26C143-157 98-101 97 0H64" id="O"/><path fill="#333" d="M33-261c38 41 65 92 65 168S71 34 33 75H2C39 34 66-17 66-93S39-220 2-261h31" id="P"/><g id="j"><use transform="matrix(0.06172839506172839,0,0,0.06172839506172839,0,0)" xlink:href="#N"/><use transform="matrix(0.06172839506172839,0,0,0.06172839506172839,7.345679012345679,0)" xlink:href="#v"/><use transform="matrix(0.06172839506172839,0,0,0.06172839506172839,19.691358024691358,0)" xlink:href="#O"/><use transform="matrix(0.06172839506172839,0,0,0.06172839506172839,32.03703703703704,0)" xlink:href="#P"/></g><path fill="#333" d="M185-189c-5-48-123-54-124 2 14 75 158 14 163 119 3 78-121 87-175 55-17-10-28-26-33-46l33-7c5 56 141 63 141-1 0-78-155-14-162-118-5-82 145-84 179-34 5 7 8 16 11 25" id="Q"/><path fill="#333" d="M143 0L79-87 56-68V0H24v-261h32v163l83-92h37l-77 82L181 0h-38" id="R"/><g id="k"><use transform="matrix(0.06172839506172839,0,0,0.06172839506172839,0,0)" xlink:href="#Q"/><use transform="matrix(0.06172839506172839,0,0,0.06172839506172839,14.814814814814813,0)" xlink:href="#z"/><use transform="matrix(0.06172839506172839,0,0,0.06172839506172839,20.98765432098765,0)" xlink:href="#D"/><use transform="matrix(0.06172839506172839,0,0,0.06172839506172839,33.33333333333333,0)" xlink:href="#A"/><use transform="matrix(0.06172839506172839,0,0,0.06172839506172839,44.44444444444444,0)" xlink:href="#R"/></g><path fill="#333" d="M33 0v-248h34V0H33" id="S"/><g id="l"><use transform="matrix(0.06172839506172839,0,0,0.06172839506172839,0,0)" xlink:href="#S"/><use transform="matrix(0.06172839506172839,0,0,0.06172839506172839,6.172839506172839,0)" xlink:href="#H"/><use transform="matrix(0.06172839506172839,0,0,0.06172839506172839,18.51851851851852,0)" xlink:href="#s"/><use transform="matrix(0.06172839506172839,0,0,0.06172839506172839,23.395061728395063,0)" xlink:href="#A"/><use transform="matrix(0.06172839506172839,0,0,0.06172839506172839,34.50617283950618,0)" xlink:href="#s"/><use transform="matrix(0.06172839506172839,0,0,0.06172839506172839,39.38271604938272,0)" xlink:href="#t"/><use transform="matrix(0.06172839506172839,0,0,0.06172839506172839,51.7283950617284,0)" xlink:href="#C"/></g><path fill="#635dff" d="M30-248c87 1 191-15 191 75 0 78-77 80-158 76V0H30v-248zm33 125c57 0 124 11 124-50 0-59-68-47-124-48v98" id="T"/><path fill="#635dff" d="M100-194c63 0 86 42 84 106H49c0 40 14 67 53 68 26 1 43-12 49-29l28 8c-11 28-37 45-77 45C44 4 14-33 15-96c1-61 26-98 85-98zm52 81c6-60-76-77-97-28-3 7-6 17-6 28h103" id="U"/><path fill="#635dff" d="M85-194c31 0 48 13 60 33l-1-100h32l1 261h-30c-2-10 0-23-3-31C134-8 116 4 85 4 32 4 16-35 15-94c0-66 23-100 70-100zm9 24c-40 0-46 34-46 75 0 40 6 74 45 74 42 0 51-32 51-76 0-42-9-74-50-73" id="V"/><path fill="#635dff" d="M24-231v-30h32v30H24zM24 0v-190h32V0H24" id="W"/><path fill="#635dff" d="M100-194c62-1 85 37 85 99 1 63-27 99-86 99S16-35 15-95c0-66 28-99 85-99zM99-20c44 1 53-31 53-75 0-43-8-75-51-75s-53 32-53 75 10 74 51 75" id="X"/><path fill="#635dff" d="M135-143c-3-34-86-38-87 0 15 53 115 12 119 90S17 21 10-45l28-5c4 36 97 45 98 0-10-56-113-15-118-90-4-57 82-63 122-42 12 7 21 19 24 35" id="Y"/><g id="n"><use transform="matrix(0.06172839506172839,0,0,0.06172839506172839,0,0)" xlink:href="#T"/><use transform="matrix(0.06172839506172839,0,0,0.06172839506172839,14.814814814814813,0)" xlink:href="#U"/><use transform="matrix(0.06172839506172839,0,0,0.06172839506172839,27.160493827160494,0)" xlink:href="#V"/><use transform="matrix(0.06172839506172839,0,0,0.06172839506172839,39.50617283950617,0)" xlink:href="#W"/><use transform="matrix(0.06172839506172839,0,0,0.06172839506172839,44.382716049382715,0)" xlink:href="#V"/><use transform="matrix(0.06172839506172839,0,0,0.06172839506172839,56.72839506172839,0)" xlink:href="#X"/><use transform="matrix(0.06172839506172839,0,0,0.06172839506172839,69.07407407407408,0)" xlink:href="#Y"/></g><path fill="#333" d="M24-248c93 1 206-16 204 79-1 75-69 88-152 82V0H24v-248zm52 121c47 0 100 7 100-41 0-47-54-39-100-39v80" id="Z"/><path fill="#333" d="M135-150c-39-12-60 13-60 57V0H25l-1-190h47c2 13-1 29 3 40 6-28 27-53 61-41v41" id="aa"/><path fill="#333" d="M110-194c64 0 96 36 96 99 0 64-35 99-97 99-61 0-95-36-95-99 0-62 34-99 96-99zm-1 164c35 0 45-28 45-65 0-40-10-65-43-65-34 0-45 26-45 65 0 36 10 65 43 65" id="ab"/><path fill="#333" d="M88-194c31-1 46 15 58 34l-1-101h50l1 261h-48c-2-10 0-23-3-31C134-8 116 4 84 4 32 4 16-41 15-95c0-56 19-97 73-99zm17 164c33 0 40-30 41-66 1-37-9-64-41-64s-38 30-39 65c0 43 13 65 39 65" id="ac"/><path fill="#333" d="M85 4C-2 5 27-109 22-190h50c7 57-23 150 33 157 60-5 35-97 40-157h50l1 190h-47c-2-12 1-28-3-38-12 25-28 42-61 42" id="ad"/><path fill="#333" d="M190-63c-7 42-38 67-86 67-59 0-84-38-90-98-12-110 154-137 174-36l-49 2c-2-19-15-32-35-32-30 0-35 28-38 64-6 74 65 87 74 30" id="ae"/><path fill="#333" d="M25-224v-37h50v37H25zM25 0v-190h50V0H25" id="af"/><path fill="#333" d="M135-194c87-1 58 113 63 194h-50c-7-57 23-157-34-157-59 0-34 97-39 157H25l-1-190h47c2 12-1 28 3 38 12-26 28-41 61-42" id="ag"/><g id="o"><use transform="matrix(0.06172839506172839,0,0,0.06172839506172839,0,0)" xlink:href="#Z"/><use transform="matrix(0.06172839506172839,0,0,0.06172839506172839,14.814814814814813,0)" xlink:href="#aa"/><use transform="matrix(0.06172839506172839,0,0,0.06172839506172839,23.456790123456788,0)" xlink:href="#ab"/><use transform="matrix(0.06172839506172839,0,0,0.06172839506172839,36.9753086419753,0)" xlink:href="#ac"/><use transform="matrix(0.06172839506172839,0,0,0.06172839506172839,50.49382716049382,0)" xlink:href="#ad"/><use transform="matrix(0.06172839506172839,0,0,0.06172839506172839,64.01234567901234,0)" xlink:href="#ae"/><use transform="matrix(0.06172839506172839,0,0,0.06172839506172839,76.35802469135803,0)" xlink:href="#ae"/><use transform="matrix(0.06172839506172839,0,0,0.06172839506172839,88.70370370370371,0)" xlink:href="#af"/><use transform="matrix(0.06172839506172839,0,0,0.06172839506172839,94.87654320987654,0)" xlink:href="#ab"/><use transform="matrix(0.06172839506172839,0,0,0.06172839506172839,108.39506172839506,0)" xlink:href="#ag"/><path fill="#333" d="M-1.1 1.2h124.13V3.5H-1.1z"/></g><path fill="#333" d="M115-3C79 11 28 4 28-45v-112H4v-33h27l15-45h31v45h36v33H77v99c-1 23 16 31 38 25v30" id="ah"/><path fill="#333" d="M137-138c1-29-70-34-71-4 15 46 118 7 119 86 1 83-164 76-172 9l43-7c4 19 20 25 44 25 33 8 57-30 24-41C81-84 22-81 20-136c-2-80 154-74 161-7" id="ai"/><g id="p"><use transform="matrix(0.06172839506172839,0,0,0.06172839506172839,0,0)" xlink:href="#Z"/><use transform="matrix(0.06172839506172839,0,0,0.06172839506172839,14.814814814814813,0)" xlink:href="#aa"/><use transform="matrix(0.06172839506172839,0,0,0.06172839506172839,23.456790123456788,0)" xlink:href="#ab"/><use transform="matrix(0.06172839506172839,0,0,0.06172839506172839,36.9753086419753,0)" xlink:href="#ac"/><use transform="matrix(0.06172839506172839,0,0,0.06172839506172839,50.49382716049382,0)" xlink:href="#ad"/><use transform="matrix(0.06172839506172839,0,0,0.06172839506172839,64.01234567901234,0)" xlink:href="#ae"/><use transform="matrix(0.06172839506172839,0,0,0.06172839506172839,76.35802469135803,0)" xlink:href="#ah"/><use transform="matrix(0.06172839506172839,0,0,0.06172839506172839,83.70370370370371,0)" xlink:href="#ab"/><use transform="matrix(0.06172839506172839,0,0,0.06172839506172839,97.22222222222223,0)" xlink:href="#ai"/><path fill="#333" d="M-1.1 1.2h111.78V3.5H-1.12z"/></g><path fill="#333" d="M24-248c120-7 223 5 221 122C244-46 201 0 124 0H24v-248zM76-40c74 7 117-18 117-86 0-67-45-88-117-82v168" id="aj"/><path fill="#333" d="M133-34C117-15 103 5 69 4 32 3 11-16 11-54c-1-60 55-63 116-61 1-26-3-47-28-47-18 1-26 9-28 27l-52-2c7-38 36-58 82-57s74 22 75 68l1 82c-1 14 12 18 25 15v27c-30 8-71 5-69-32zm-48 3c29 0 43-24 42-57-32 0-66-3-65 30 0 17 8 27 23 27" id="ak"/><g id="q"><use transform="matrix(0.06172839506172839,0,0,0.06172839506172839,0,0)" xlink:href="#aj"/><use transform="matrix(0.06172839506172839,0,0,0.06172839506172839,15.987654320987653,0)" xlink:href="#af"/><use transform="matrix(0.06172839506172839,0,0,0.06172839506172839,22.160493827160494,0)" xlink:href="#ak"/><use transform="matrix(0.06172839506172839,0,0,0.06172839506172839,34.50617283950617,0)" xlink:href="#ai"/><path fill="#333" d="M-1.1 1.2h49.06V3.5H-1.1z"/></g></defs></g></svg>